<mxfile host="app.diagrams.net" agent="Mozilla/5.0 (Windows NT 10.0; Win64; x64) AppleWebKit/537.36 (KHTML, like Gecko) Chrome/130.0.0.0 Safari/537.36 OPR/115.0.0.0" version="26.0.6">
  <diagram name="Page-1" id="6hxuIcc0owQ2gNriQ1SH">
    <mxGraphModel dx="847" dy="551" grid="1" gridSize="10" guides="1" tooltips="1" connect="1" arrows="1" fold="1" page="1" pageScale="1" pageWidth="850" pageHeight="1100" math="0" shadow="0">
      <root>
        <mxCell id="0" />
        <mxCell id="1" parent="0" />
        <mxCell id="lJ1zFouzsyEd4bretrZ_-1" value="" style="shape=image;verticalLabelPosition=bottom;labelBackgroundColor=default;verticalAlign=top;aspect=fixed;imageAspect=0;image=data:image/png,iVBORw0KGgoAAAANSUhEUgAAAyAAAAMgCAYAAADbcAZoAAAAOXRFWHRTb2Z0d2FyZQBNYXRwbG90bGliIHZlcnNpb24zLjcuMSwgaHR0cHM6Ly9tYXRwbG90bGliLm9yZy/bCgiHAAAACXBIWXMAAA9hAAAPYQGoP6dpAAEAAElEQVR4nOz9ebxkeVrX+35+a8U87NhT7r1znrMqK7OqsqpyqGqaFgEBGQ6gF4+ioB5B9Hq853qPIHjgHjzwElDRewT0ikc96nXgIL5UJgEB6aa7q3KoqqzKzMp5ztxD7jnmYa3f/WMNsWJnVoPdmVGd2d83r2BHrFixYkVUv3auZz+/53mM7/sWERERERGRIXA+6hMQEREREZEvHQpARERERERkaBSAiIiIiIjI0CgAERERERGRoVEAIiIiIiIiQ6MAREREREREhkYBiIiIiIiIDI0CEBERERERGRoFICIiIiIiMjQKQEREREREZGgUgIiIiIiIyNAoABERERERkaFRACIiIiIiIkOjAERERERERIZGAYiIiIiIiAyNAhARERERERkaBSAiIiIiIjI0CkBERERERGRoFICIiIiIiMjQKAAREREREZGhUQAiIiIiIiJDowBERERERESGRgGIiIiIiIgMjQIQEREREREZGgUgIiIiIiIyNApARERERERkaBSAiIiIiIjI0CgAERERERGRoVEAIiIiIiIiQ6MAREREREREhkYBiIiIiIiIDI0CEBERERERGRoFICIiIiIiMjQKQEREREREZGgUgIiIiIiIyNAoABERERERkaFRACIiIiIiIkOjAERERERERIZGAYiIiIiIiAyNAhARERERERkaBSAiIiIiIjI0CkBERERERGRoFICIiIiIiMjQKAAREREREZGhUQAiIiIiIiJDowBERERERESGRgGIiIiIiIgMjQIQEREREREZGgUgIiIiIiIyNApARERERERkaBSAiIiIiIjI0CgAERERERGRoVEAIiIiIiIiQ6MAREREREREhkYBiIiIiIiIDI0CEBERERERGRoFICIiIiIiMjQKQEREREREZGgUgIiIiIiIyNAoABERERERkaFRACIiIiIiIkOjAERERERERIZGAYiIiIiIiAyNAhARERERERkaBSAiIiIiIjI0CkBERERERGRoFICIiIiIiMjQKAAREREREZGhUQAiIiIiIiJDowBERERERESGRgGIiIiIiIgMjQIQEREREREZGgUgIiIiIiIyNApARERERERkaBSAiIiIiIjI0CgAERERERGRoVEAIiIiIiIiQ6MAREREREREhkYBiIiIiIiIDI0CEBERERERGRoFICIiIiIiMjQKQEREREREZGgUgIiIiIiIyNAoABERERERkaFRACIiIiIiIkOjAERERERERIZGAYiIiIiIiAyNAhARERERERkaBSAiIiIiIjI0CkBERERERGRoFICIiIiIiMjQKAAREREREZGhUQAiIiIiIiJDowBERERERESGRgGIiIiIiIgMjQIQEREREREZGgUgIiIiIiIyNApARERERERkaBSAiIiIiIjI0CgAERERERGRoVEAIiIiIiIiQ6MAREREREREhkYBiIiIiIiIDI0CEBERERERGRoFICIiIiIiMjQKQEREREREZGgUgIiIiIiIyNAoABERERERkaFRACIiIiIiIkOjAERERERERIZGAYiIiIiIiAyNAhARERERERkaBSAiIiIiIjI0CkBERERERGRoFICIiIiIiMjQKAAREREREZGhUQAiIiIiIiJDowBERERERESGRgGIiIiIiIgMjQIQEREREREZGgUgIiIiIiIyNApARERERERkaBSAiIiIiIjI0CgAERERERGRoVEAIiIiIiIiQ6MAREREREREhkYBiIiIiIiIDI0CEBERERERGRoFICIiIiIiMjQKQEREREREZGgUgIiIiIiIyNAoABERERERkaFRACIiIiIiIkOjAERERERERIZGAYiIiIiIiAyNAhARERERERkaBSAiIiIiIjI0CkBERERERGRoFICIiIiIiMjQKAAREREREZGhUQAiIiIiIiJDowBERERERESGRgGIiIiIiIgMjQIQEREREREZGgUgIiIiIiIyNApARERERERkaBSAiIiIiIjI0CgAERERERGRoVEAIiIiIiIiQ6MAREREREREhkYBiIiIiIiIDI0CEBERERERGRoFICIiIiIiMjQKQEREREREZGgUgIiIiIiIyNAoABERERERkaFRACIiIiIiIkOjAERERERERIYm9VGfgIjIl4Ir77+H7/tYz8dg8Sw0PA/PWk6cOPFRn56IiMjQGN/37Ud9EiIiz4Iz+TzWWlKZLE7KxQJb/of/gfv/7J9BKsXWb/92ABZ/+ZcpHjtGb3UV+z3fQ2fvXurNJgCvHT36EX4CERGRJ08BiIjI5+Gd0TFsvYaxFgNYazHGYNJpjNNf3erk8wBkR0YY+6ZvYvW3fguAkY9/nOVz75Ob3ERndRXzV78XZ+sWOqkUpdEK27dt/yg+loiIyBOnAERE5PfwTi6HtRasxe31ADDGgO3/+rTG4BiDNQYT7ICTy5EZHQ12cF2M42BcF1suU3njDdbDrEdmbY3u1389jb//9/FeeYXK9/5VAJzyCDu2KxAREZFniwIQEZEP8b7j4BuDE2Y5gPhndN+GP71E1sMYA+k02clJvHYLHIf8t3wrnV/9VQBSxSK548cB6DUaeOvrrF+6BEB3dZVqs8mWM2cAcDNp1r/s47wyP/9kP6yIiMiQKAAREUk45zikCQKLKLhI/ozuR6LHvTAAsb4fZEJcF5PP46bTGNcFY8hWKnSbTfiyL6N07Rre1q2wtgZAs9EAIPdX/goLf/bPstrtseXf/huKYU3Ig/37yadSHAr3ExEReVopABGRL3kXHAcLpAlaA1qgw8OBBvQDkWibAbzEfT4k+PA6HXp79zIRLeF68cXgZzMIKLr1Jpnv/I7gvjHM/+k/TWfrVir/7t+RyWbIFks82L2bdCrFy53OE/omREREnjzNARGRL0lnMxkuOA6XHYc8kCcIQBzAZzD4SIqCj9SXfzn+l385yb/g+ED2Yx/Deh7dVot2vU67XsfrdMiUy4zW63jtNnXPo/buu5iLF+HWbWh3cCsjePfusf6jP8ryd30X6XSa8p07tP7O3wGg1+3AH/kj9DyP9zOZJ/OliIiIDIECEBH5kvJBFHT0egNBR3SDIKMRsRtuyeedT31qYL+IFxanjxw+DECn0aBVq9FpNrDWku12yVvLeq2GtRY7O4u3XsX7rd8mt3MXEz/+E6TqdfxslszP/zwrL73M9U/+Litf/w2YrVvp9Xqcz+Ue6/ciIiIyLApAROSZ94Hj8IHjcCXMdqSBLMEvQDfcJ8p4dMOfyYAj+bPwZR8HoPmpT8WBSI8gKPGB5qc/jXVdsJa1s2fxe72g6HykTHO9SqdeB2tpeB6FVIrlapXlapW277F47RrVSxcBqPzUT5Oq10n1ehjfZ0ejDsDSD/8NHMB0Opx1o7MXERF5eqgGRESeWRcdhxTEReXRX1weVVweaTxi2+jrb3C5XmPy/ffj1/uJ/XrhfQNsPnqU26dPB48dByeVwslmMakUuWIRAK/XozgxQWvbNiqNBtVUKn6v8sgIC6dPYxcXAXDabVxgDRj/uZ/jVrXGzo9/Gb3nnwcgnU6zv91+LN+XiIjIMCgDIiLPnKuOw9VEtsMw+MtuY0vd6Gcyo9EL73eAhTc/CwTZkS79jEeU9YB+UPJ78Xo98uURGtUq5dVV/E6HYqOB327jt9usPXjA1NGj2PII+D5+Oo0HVIDGd38Xez7+ZbgksjKex7Vv+qbfz9ciIiLyRUEZEBF5ptxxHHyCgOPDWuYuHT7E2LnzAx2soB9YdIDNr7/O/Jtv4vPwUizDw4FHMpgZ2N8Ytr18hIVrV8FxqExN02q3AChPTgLghvUc616/+qRUqQCwFE5ON70eLuD+1/8a7DA5Qffwi8EyMsfhQK+HiIjI00AZEBF5ZtwNZ3GYxC2S/EtL5dz5OIOR/4qviO+PfOIPxFmN+2++iUc/EwL9DIkN70fPRQGJBbYdOxYHJRbww4L0bquFTQQYGdelXavh5nJ47TZeu81YNot38SK21WLx7FkWz57Fz2ZxfD/+Ze1///djfvd3Mf/hP/YzN77PjXz+8/rOREREhk0BiIg8E+5tCD5gMBPhAc3du+Mic8Jt1TCj4AOrn/wdmvv3x4/9xH4esPP48ThLsvPYsTjw2BEGHRa4ferUQNcsA9x+9534PdeXFvG6XUinAbhVKlG/c4dMsUiv02Hy5ZfpzM1hgLGXXsJtNkn7flzLkn7zTbxf+iVS3/SNZN55uz8IURkQERF5SigAEZFnwqM6VkFQs+HTz15E96OfUaDglstxwLHtxIk4i7H92PFgn5074+MGxzbx/ZunTg1MSgfYfexYfG47X3sNr9tl0969DOZiAuU9e7jpW+6m0vQ6HaaPvMz0kZdZfe898H06jjPQJjjdbmGNwXFdsgefD1oJex7XNR9ERESeAgpAROSpdy+cZB51pCL82dq1CwvkP/EJANwbN+LAwwPSlcpDy6zytRq33nrroTAh1wgmlkfZlVunTsb3dx07DgwGHbfCLlbJwvRbZ8/Sqjfwez1a9ToPdu1i/NIl/F4P2+1QunwJJ5fDtjs8+J1PMn3kZdyZGdypqcFak3feZa1aY61aY+kn/lZQGwI4vs/7Lxz6PL5BERGR4VEAIiJPtSj4SHau6gG5MOiIJJdURfdba2txoNGuVgHozs6y8/jx+HW3T53EAq0HDwaOt/NYf5+bp06GP0/Fx9sxMRkvB7t15gwAe159jV67TbvRIF8oULl0KfgMrkv5xg1sq8XS22+z9PbbmEyGB7/zyWBuSCgKsnxg9Id+CIBNe3b3gyXfJ+VpKZaIiHxxUwAiIk+tO4ngA8DbtTMOLqqf/CTp5WV8YO2TnwQgVakw+bGPAcGF/Ex4HwbrRm6dPBlv33HseLy86ma4feex43HQsSsRiOwK60L6R2Lg0a23z8SPVxcX8cKi9PKNG6zt2vXQ5+tlMmCCI3YS2w3g7dvHWGUkeL8dO+LgJH/t2kPHERER+WKiAEREnloO/ToOHzA3bz2yc9Xkxz6GR5DxmPvMZ7BAtlhkPnF/+mMfwwIZYOfxEwDsOnEizoDsOn58IOsRt9sNI46oFiQZdlhg19Fj7EoszQLoNptMzGyOHxdnZh7+cL0em994A4DykSPB8XbujFsM87M/izUO1jj0/vW/6hff+z7XvvVbf+8vT0RE5COiAEREnkr/m+MMFJN7gDMy0m9/C7TW17HA/Gc+Awx2yGrX6/F09Ha9Dtb26ztOvgXAzbfeGliOdSsMRozp5zeirIghyIYYgg5ZN0+fDp4/fYqbp07FxzCA7weLway1OK5Lt91mp+ti0mlMOs34a68xfuIEfqfD5jfeYCk8/+QxHMD5sb+JMYbU2Djs3h0cE3B/8Rc/vy9VRERkCBSAiMhT6c8CmampuLvV6Btv0F5fB4KL8Gy5/NAskOi5aNv0G288ctBg8n60HOvmyZMUi8WHzmPX8ePx9mQtSFSQHmU/doeteqNjO+kUftg616tW4/uLO3YMHH/xU58CzyOfTtO9dQsTDi0EsPMLdJtNjDF4zSbev/gXLB15Bazmy4qIyBcvTUIXkafOvXDaebTcygeyIyM0wwBk0/HjrF24QLtWe+Trs6USrfC5KCBJBgepYoFavTHwGh8oFQrUGoPbSbzu97M9qtXY8dJLLNy5Q7ZYxHVdylNTXO/12D86OrC/k8kw+7u/S7kTVIH4rovbamF27oQDB+j++I8D0FpaojA3R/o7vzNYppXLseNDzlVEROSjpAyIiDx17I4dcder6AK/dPDgwD5R8DEV1nMkZ3Qk5cPsRbIIvZ4IPiz9mpB6ozGQVdkVLs+KgpiN2RY2bNt19Gj8+OZ779FqNMjn83ieR6/VAqDX7Q68fiEsoE/yAXvrFvzGb5D+s3823p76zu+M39N2Og+9TkRE5IuBAhAReep0b98eaEkLsPjWWwP7bAwGDDDzelDU3UpkRpphm1sL5BJLrJIBy82Tb8UBRhR0GAbrPyz9GpCkXUePxfvcCOtCkr94HdfF+j6dTpexmze5Ua/T63bjG4Dfbgfn3e2S8f34vAzgf80fAiA/Pob7K78c7P8zPwN+cgKJiIjIFw8FICLy1MmPj8fZj+QFfxQ0VD/4IL5IXwgLyi0w/+ZngcElV9FzBmjV6zh87uVUN8KgI7q835mo7bgRFqlvrCmJ3m9PVBdy9GhwjESthnEMs7t2sadYZPXMmfjW7XaxqRTGGPKPmHTu/OIvkXYMNp2O38v9S38JgNuFwod8EhERkY+OAhAReeqsLy8zMj7+0PYoGGmGQwUBpl5/Pb5vgUypNPA4el10f+aNjz2U7QAGumHtPN7PdNxKdLiK7EkGJadPxe91I2zTe+P0aXYfOUL7+WDZWBTMTN+4wYV6nbHXXgtur75K5hFBx4C9e/E8DzeVpvePfnbwOWVBRETki5ACEBF56oyMj7O+vBxnG0Zfew14dOZi/fy5ge3tWm0gc7JxydTsZz9D+nO8d3LpVXLb7kSAkny/3UePxtmPqDOWAW6/+y5YH4zBWovveeSmppi+cSPoYpXIjthUCoB6pwPGkMlmB94/1Q06aNm/9RNxMON88zfjbN/+OT6JiIjIR0MBiIg8ddbCDIgBRsbGWD1zhlKie1QyqGhWa/G25PbpcMifDe9ni8WBwKRUKAwEEjdP9pdX7QwDieinBR6cO/fIc53/4AMgyH7cOHVqINuSef/94E4i2MhNTWF9P761HAcTZkGK4c9WWBMCwPnzmHodk3IhnAz/qGJ4ERGRLxYKQETkqVMJMyAA7q5dlMfGgODCe+r48YEajGR3q2RAMf/Zz8bPzX22Xxsy/cYbQR3Jh7Sw3XX8eLzsyhgTH3Py0KH4faLBg7uPHmP6hReC+8eOsSvMhiTPzXEcrLUQBhXtxUWW33svvqWtJZ9YUoa15MJAJDr/bioFzuCv87W336F37dojP4OIiMhHSQGIiDx11sLgA6B34wbrKyvUVlcfWoKVK5fjbdOJWhB4OCBphZPRo2Bk9+uvx0MId5048ciBhtAPAqKgI5iIfizefiPcfuPUqbgLVrRfHIxYGwQhQHZyEpNYYpXudKiNjtKyllqitW50/q1bt0i/dxYAxzjx9mxXbXhFROSLkwIQEXnqPBcWV1ugtroKQDlcgrWQqM+ovHDo91yOZIHshlkgADfefPP3PI8bJ08+FMjsOnasH3ScHixQj46/O+yCBXAjXKIF0PM8WouLjOzbR+XQISqHDrGyaRPddJqsgWImqE6pJwIR87u/C4TBhw0rQP7gHwQgfegQtx8xvV1EROSjpABERJ5KFhh/6SUsUB4bo7q6ytSx/oV9tlxm/q0giDDA6rlzcbCQDBiSxejJJVu7TpygFF6830jMGLmRmP0R2ZMoQL956hS7E12wAIrhcTa2/gXY/cILzM/MgDE4rguAZy337t7l3t27AIw9eADAeqdLvdOhlMkMfo6V1Tj4sID97d8mOzdH5/x5fM97xLcnIiLy0VEAIiJPJQMsv/ceALWVFQAWTp1+aB94dMCR3N4KhxFu/tjH4gv7m2+9FReH70rUlQAU8/mBgYQ3ElmXZAYkaWNxeDRv5PblyxQvXIi3ZyYnubuyQq9QiG8AbQuVaNZHWHtiAefjH8devQKeF9xKJdyv+UNBy+GJCbK53EPnIiIi8lFSACIiT6XySy/Fs0A21n5YoF2tDmwfPXz4oda7G3/OfeYzAKQIakAAdh4/MdB214T/Lwo6NmY1NgYfNvz/ydkgGBO/j9/pYByHZruNMYb24iKVRI3LtskJAHLh6zYOOczkcth33g0O2+7A1q30fv036IwGhfntVpPLYZG+iIjIFwMFICLyVFp/7724E1Z0Mb4p7DKVTxSfRz/nEzUd0TDCqAVvdD8ZTNx4802qjQY3T741EKjsOn6cWqP5UCYlWXgeieZ+1OsNrj8iMNn16qvsOnyYHQcOkM9modVicetWcps2sTW8WeOQOXqUVuJ1yfPs/PqvB+fW7uD2gnkgqa//ejKrK3SWlsBCq9Xig5GRR3+RIiIiQ2Z833/U7C4RkS9qc5s2sba0FD+OfpFlR0bAWprVahwQRMP5kp2nItlikXbYASupC/ToT0C/cfLkQ0u6dh8/PrD8Knku0fDBKPDYHS7N2h1uM+F5eYBbKPTnmEQzPprN+HiZbpemcch22ligks3SbLdxCLIoTcel9KlPYkZH6Xz/92N+8RdxwuObdJpVrwcYsvk8B5MtfUVERD4CyoCIyFNpdWkpXoJVHhsbGDQYBR9RIDDz+uvx41wi+wEwGhayA/EwQoBtr78e1IKcPMnNMPiwBBmQ6L02Bh+W/kT0YKmWeWQ73mjbntdeC4IExyEfzvYoTM8Et127Kbz6KoVXXyV14gR+Ok0h3KfZbg/UlPi+B81wbsnOnaT/u2+Kz8n3ffAt+D7tZpMP1BVLREQ+YgpAROSpZoH1sAjdQlw4PnXixOd8XRRQzCeGEI6//HK8/c6b/Q5aURF6FHRY+lmV6H03LvmyDAYoyRqQ6Oe1M2cGsir5TIbG/ByN+TnqN29Qf/tt1t55l97Jk3jZIPjwgXw2SymXjV/rAvbePcCSeemlhz5niuCXvev79DodrqsmREREPkIKQETkqRXVgCRb6LbCJUbzb731UIF4rlSiVas98lgWmP3MZwYyC9FxbyQyIJFyIR8/TrbhJfFaEs9HS7EssCcxER2CrlYAzW4XYwzFzZsp7dlDO5fDy2ZYL5UYqdWoJuZ/tFttsomBhUnO9HQ/sLH9dzJAc/t2GrUa16IlXyIiIkOmAEREnkrP+/5D26JL7alExgJgLlGAvrGIO54cnlh+NTBYMJyCvnF5VXRdn5yInlyWtTvRuvf6yZPsSS7dCiei733tNQAc142DkOBghur162RaLTKtFl6+QPfECfjyLycN1MI6kVa4FMsB7OXLWGNo//k/jx8OOoyOGNWKdEZGKN68ie95dNpt7k5NPfQdioiIPGkKQETkqWWBkbExRsNlR+VKJVhWtaFgPHl/c9heFx4ePrixs9WjApLo8dSLL8YBhbUfvn+0/Xq4dGvj8y6wZft2ABzHwXEcjOMwsn8/zbFxmmPjjD1YIP3WW/i/+7uUsllK2WyQ0QlnfDiAnZoGwP+1X8O5erUfGFn7UHcuA3TbbdqtFiIiIsOmAEREnmrrKytx9qC6tgbAzPHB+o8oCGjVasy9+WYceEyHxenAIzth/X4kX7Mx6xH5sGnrN8+cwQLX3n+fldVVjAl+JTdnZwGYnpygU8jHxymlUlTbbaph5qPTapHK5eDNN3H/0FfTtRbG+/UdQXBk43NK12oYgl/8zZ07aTab3J6c/Dw+tYiIyOdPAYiIPLUq4+OMjI2xfPYskAwG7IbHg92vou3JpVlJWz72MTKJxxuXVw0EHceOc+NUsD3ZqtfwcG2IBfYe6wcpO197LagJefFFxsfGcBwHcnnI5XFcF8d12Vku0+z1aPZ6rHseuUwm/gzpsCtW6n/56/T+3S/geB4A3tjDAxotkMrn43Mr37oF1ioLIiIiQ6cARESeWuvLy7hbt8bteCPziezDdKIb1syJ/vKrmddfZyYcQpgtFpl5/Y34ufthMfruE69z4623KBYKAzUgyfkfUfABwayPXeHwwWjZVeRR2ZWbZ84Exzh/ntX1ddKOgVaT2dEKq5cuxbec65JzXWw6TbPTGThWNwwgzLd8M7TakMngVtcfei8D2Hq9/7psFsf3abVa3FBXLBERGSIFICLy1BqZmGDl3DnWlpcfWuaUZIB2rcbcW/2Mx9ybbzIXtuCNdoqOsfmNj2GBW2+9yZ4TJ8CYwaAjkQnZc/x4HJhcP3WKG6dOUcr3l01BEJgYoFQsYBNntzvMgGAMlXKZ1fV1nGKRrdUqIy+8AEDl+edpOg5Nx6Hi+2TTaSrZbNAG2BgyxRLcn4Wf/4X4uJ0f+/H4cxtgtFz+nN9jq9H4nM+LiIg8TgpAROSptba0xEg4hNACL8FDBddYSza8AN+cqPlIatXrzH72s0Fhd7HI7Gc/gwF2vv461996i3q9PjDTY2Otx6OmoSdFQwj98EWGcEp6mAGBoBVvpVzGhhPQqx98wMgLL2AdJxiWGC63anW7A8fu1Ws0PvgA50/+CUyxiJvP4/7kTwLQKRTIjo7SDZdmQX8JmtPpBj99H9/3uaEBhSIiMiQKQETkqbWxxuH98H4yCzKfyFbMvvnmI2eDbA6XYhmCYvTouRuJgvWkqNbDQJAhSbwvQK3ZZE9iKdaeMGCZOXSIa6dO4QPXTp1iz9GjpIA9hw4xe+cOtUYDt1zGcV1yMzNUP/iA9tmztM+exc/lMMbEE9MtQRveiP/P/nlwDsbghkFMJsxs+L0eflion5wYnzxnN+yoJSIi8qQpABGRp5ZPfwp6ZWwMC4y9+urgkD+gGQ4nnHnEdPRWrcbsZz8bBxrRa6NfjpZgEvpG0b433nor3rY7DDo2impBrp86xb5jwTyQfceOgQ2GEib11tfBGFpzc2S6HTJHjlCrVCitBx2+ap0O9TDwyIdBw0D74MUlWj/4g/3Pt7qKtRbHDoZRhn57XuN51D5kQKOIiMjjpgBERJ5ah3w/DgTWwkDEbFhklRxXOP/WW3E3rJlwOZYFNr/xRrz8CgYDEQPcSszwSA4jhEcHJ5Go5W4yMLFhFcjVU6e4fuY0106f5vp77wXHNAbjOEGmY8sWOukMnbPvUlpfo9vuUOt0sI5DIZPBB5qtVr+t7+ws2PDT5vPxZ8iPjlLI57GOg+/0f+UnAxI3/Ny3JiY+9LOIiIg8LgpAROSpZgja8UYBwdLb/bqK6ePHyZfLA4MIW+Ff+pMteGfDYvRWvR4vxyLxml2JzMn1R7TijYcNhrUeSXuOHY9rQAj3iZZBRee15+WXwXHADAZP+S1b4oOnMxmyG84tHw4kTCW2uSMjmMnJgXkjzWYTEpPjNy4p69Xr2G6XTmJJl4iIyJOiAEREnmoWWFteBmD85SPA4JKkaPnV5oF2vCfioCEZnFj6wUiuWGTXiRPB/I+33qIUtuJN1n1ErXbjQCLMhuw5diwONK6fOjmQASkWSw99hmtnz+KmUhigA7ipFHMGGvfuxfs4r71G4+RJfGOodTpUslkayRqQWzfAOOD0az06hQKt1dV4UCME2Y5H1YCIiIgMiwIQEXmqVcbHqYyPY4Hls+8yMjoaLD0aGRksQE8sv5p7662BwGPm9WA+iIF4NkirXmf2rbfiJVxTL74Yv+Z6ou6jFC532nP8+ECtRxTQ7A6DkehxN5y5sefYsfjYe19+GddxKBYKZI3BGMPIvftkut34dV7YMavsOJQ3BB8O4K6sgmPorVfxXTf4bOEyq2wuF0xAT2RBoqJ0C/ipVPA+dmNuRERE5PFTACIiT7W15WVWwwwIwPrq6iP3mzlxIl5+NXPiRByMQLAcKx/WQcwmZoNsSbTtTQYdexJ1ILWw49T1kyfjbldRxiPIgJyK7xugffdOfBxDUKNy9b2zwfKrMChor6wwsnMnnUx/HnvGWshkqb/+Omth8OGFr8/kctTfew87N0+qMoLZtw8fyIbn1mo28Yx5aOlVVPvh9HrB+Tn6J0FERJ48/WsjIk+9jUMIH7XEaC4RQEC/FiS6KG/W6w+99l6iDe+eEycoFYtY4Fpi7seeRBH6tXA5VlTzsfF4e48fj48XBSYpYN9LL9MMp5d3wyDAGkN51y6yBw5gjKHrOHRTLqXwc0STPQzQa7Xi9/F7Pfjpnybzkz9JOxyIaK0NCtwBL5qGbgx+eN8Adu9e2s0m92dmEBEReZIUgIjIU21jMbgBiiMjjDz3XLx8yQL5xDTwubfeeuTrNh5va9gda8/x41x/6y38cIlSXOtx4kRcAxLdNtaWbGzNG28P2+/uPno0aMv70sssLSwAQRDiOA7rN27QuXIlfu1Eu41vLT5QzGYpZ7MApMJ2vE6Y8TCOGVxOFS692pgBccKAygLpuTmstbRaLURERJ4kBSAi8lT7sILq+UTnqeQsEMvgPJAtr79OvlQaaL0buRsux4oGD9YbDXYfPx5PPr+WyKpEr01mOTY+Z62N7187fTrIppw+DcDV995jcmoqGCToeaxdv87o3r3knnuO9ZER1kdG4gDIh3gWCEC31cIBvB3bMZ6H96u/CkB6fPwRZxF+JxvqQXpRBqjXQ0RE5ElSACIiT7Vk4FAeHaU8Okp9ff2R+0EQjMwmAofZN9+kWas9NCF88xtvUAhrJHaHXbNKxSI3EjNBokxIMVrqxODyrHKhMHAO1zYERf0HwaPVlRVSvo9Np0mXy6xdv07z0qXgWOFnanS7jGezFMLshwXS0UDCf/Nvg+Pt2IH3V//qQ99BxDMmCFjCJViuDYYSqghdRESGQQGIiDz1RsMuWGurq1RXVx/KQCRngUyHQcPGjEc0kDBy/7OfpR1mBaIC9Fq9Hg8ijFrwJm1sx1ttNAa2R68D2HP02GDQExaJN8IlUN1qlZH9+1nbvBm/WGRt82YACul0cOx2G4whl8vRCTMg9u4dbC6Ps30H7o/9TTrhcEasxfH7k88zYUvhyKMK1EVERJ4UBSAi8lR7wfdZXV5mdHycStjiNnkxnSuVaFSrccAxFwYN0cX45kQL3khUw5ENZ2bsSSzZupGo+dgbbq83m3EHrA+bq7Hn2LGHnovO8+q772LCug8LYAzZSoX1K1eYHhujMjdHZW4ueK9ej2q7Hdd/dDbUbNhGbeDxo86nG9aKbHzeBTq+/9D+IiIij5MCEBF56hlgdXmZtZWVfr1F9JzjDHTJSrbfNQRLsCCoqyBcgmQIsiGtep00gy14owyIT3/JUnJ5Fxu2R92urm2Ykn799KmBTI0xhsrYGI7j4LourbU11rZtA8chd+gQFkvHdfDDOSC1djvOlkAQPJg7d8GC8Ty6P/DX+59zw3l+LmrFKyIiT5r+pRGRp17ywtps+NlcXx94vlWrDQQpubDOY+vrb3A/DEaSE9FhMAMSPW8IlmBtLDBPBh2GoCj9URf+e8PuWHuPHiUF7D10KHiNMVwbGSE3NcXI3bs0z5+jef4cAO1uD7JZ1tttfCAfZkGyuTzpr/1a/L/zt+PjO4nvwAKFsB4lOhcvDDTcYhFHtR8iIjJECkBE5Jniw0BtxaO6UUXP5YpFmmEh9v03PxsPIzTAlo99LH5NMqOxcO5cfLw9iY5XC+fPx/vsOdafDXI1seRrT6Il77VwOnr0mqvvvhs/t/fBA66NjHBv3z4MhvyLL9F2XMhmKXe78Wvq7Xb/8zUaQaYj7GKVXEiVq1Sw4bBBws8T3ffq9Ud+VyIiIk+KAhAReaYkZ3FsvKDOl8sDz7WioXyhKBixwL3PfCY+1o1EsfnU4cPx/WTHq+nDh+OMx/VTJ+Pj7A1rPywPBx0fptXtcqDRYNu1a8Hj998n5/uUX3wRe+wYFqiE2Y/gWOHSsQsfBI/HRgHIhkXwncS+8WsSLYEjH1a/IiIi8jgpABGRp17UBQtg/OWXB56bCbMOFmhUq3F2JF8qkU/Ug0TLqizBAMJo28bno2Bkz/Hj7D1+Ir5/LVyOdf3kyYGC9CjoSGZf9iYyIdfDOSAAs7dvYxyHbDpNfXaWwubNpHbsoJ7JUM9k6Jw9G5+LDQcSRsetfepTwXO+B8sr8TENYBcWyIetgiFou+smsiB+uBwrUyzqHwUREXni9G+NiDz1VpeXGQ07YC2FF+nRL7e5U6cohG14k9kRgGat3zFqy4nX4+33EvUfuxKteXdvqOe4fvKtOOiILub3Hj8+0J5347IvgKsbCtItwZKprTt3YoCO51HasoX67Czd27cpdDoUOh2qlQrtz3yGjX2qos9qVpbjbfnf+Z3+e09N0Wg0cAoFDP2AIymumdEkdBERecIUgIjIU88SDPEDqIyOUq5U4gzETLhkyQCbNxSTJ1+/cv79h+aHADx4773f8/33JAKTa4maj+Ryq2TWY284A2RfeG6R+3fvMlKpkEunwRhKW7cOLBkrra3hfNnH4v2TgYgBnJ/6aQCcsVFaX/u1uD/8w1jAW1iIi9AjbljvApAOsyPdej0eiigiIvKkKAARkafeocTsirXVVdbX1uIAYO7UKZrhHJD7YTvdfKk0kP0wwNjhF7EEvxSjzljJAMIAtthfspUUZTxKf/H/EW9L1n8kWYIWvJZ+JiR6n607dnD/7l1a3W48pTwp43mkT57COk48uBCgHWYtvG/7v+GOjWN7PbK//ut4P/zDAKQ2baLZaOA3Gv0uWI84voiIyDAoABGRZ8L44UOMjI3FS7EsMHP0KBAUnwNsPt7vTpXMhuRKJe6/+WYctIy/+GL8XLteJ7XhvSzENR+PsnEg4cbMykA2JMyCHHjlFay1bN2xg3w6TWttDeM45PbsIbdnDxZouy4Nz8N82ZcBMJrLkstmyeRyQdvdf/JP8ZeWgnNIDZ51lEXZGBBFy7Gi5x1lQERE5AlTACIizwTv3n3WVlbipVgjo6PMnT5NvlyOMyCzjwgaHtWm91H3d/2JP8mN3/4tICwkD9v07kkUudf+4d8feBxd7iczKfuOHYvmHcadsVKJnRZmZ2n7PvlKhRvW0rx+neb16wDkfJ9iKkXqU5+i2m6DhUa7TbPVCqaYZzI4+Tym0xn8DJ4H3e4jl5gZ3x/Ihpiv/Epub9qEiIjIk6IARESeCWsr/c5PFuKp5nbDkL1CuPxqNlyOZegXo0dZgCgbki8W2fKHvgaAm//mX7Hrl38NgF1/9Nu49pnPAHDj1Cn2JDIrUQ3FxvqP5ET0a6f7RejJbEiy/qLt++xOpcjv3Ut+716MMbRdl/VUinI2SzlsrVvI5fqfLbzvez6t0dGBGpFkMbzj+/3z25Dx8H7jN+LvTkRE5ElQACIiz5So29X62hrTR4/GwUXUjrdZq7H5+PF4CVYubMUbva4QPg6CEcv93/h1LLD7136Tm9/wtcFckF/4eXZ+x5+JlzNFv0gfvmy3Dy152nvsWFx8HrXpBbj67jvcvHgR4zgYDBnHoXb7NjgOrTAD0jaGcrdL21rW2u04YIneo9PrwXoVWyjghDNAopa9JuUC4G94jRPOA4k+v/MH/sDv52sWERH5vCkAEZFnSpTFGBkdZSGcsWEBE15458tlZk+ejDMgrUT2A2Ds8OFHDui7/rVfNbDtwb//eXZ8x5+J60E2Bhr7jh3namLwYJTpuHrqFFdPnQqWcR09xt6jx/qtgcNzdA10fYtbKoMx5PbvJ7d/PzabZb1UotXpxIMIq61WHEA4a2t4nTZOo4Ff3lAw3/OC/RJT3aEfkMTn4Pv47faHfb0iIiJfMAUgIvJMiS6s11ZXB1vcnjxJvlymUa0O7LtxMvn9N98EguVXEy++NPDcxiLuW//y/8QCOz72sXifq2GdybVT/Vkg106dGpiCnlx2dfX0qfiYhiBQqjcaGMfBr1Wp37oFQPPKFSr1OpV6nUw6zWq7TbXVYiSXi8+rubyMe+1aHHz4BL/kfc/rz0F5xAwQgHSppEnoIiIyFApAROSZUQk7YBlgYsNE9M1hR6zkRXYh7I615fXXgaA975bE4MFIOTEzIwpa3G/5tvii/lZYDxIVmUf3I4ZgQGH03lH73agWJJ5obgwTU1OUi0Vc1wm6UnU6LD54QH10lKWJCfwwg+EBI7lc/Dh28yYAjg3a70bP5sLvZuO5AVjT/6cgc+YM3ocEKSIiIo+D/pURkWfC6Pj4wDDC3q1bA8HG+qVLcTcsCC7CG9Uqhn7Wo1GrfWgBdrKI2wJr/+r/jJ/rhj/3h8Xmj8okXE1MR/8wNsxUYAwmDAK8TIbi6mp8A2h0u4xnsqwkppYnszOOhUy9Tvp7vid80tJYWRkoPI+zLtYORGXdV1750PbCIiIij4MCEBF5JiwvL8f3V1dXWV9dZaRSAfrBRn86er9r1UzYwSq6Br/35pvki0WsDe5HF+O7PnuS7u98htpv/g7V//xfmPztTzH/n36Fhf/0K6z8p19h5Zf+M2+/8BJrf/rPDRwvev/oOPuO9TMhyeLvA6+8MviBej1yExOYToflzZvJvvACPuC//DKlTCbezSRqOFzAnj+P3+lgMxn83/7t/n6A/dqvBWxcB/Io3u/+bnxMERGRJ0EBiIg8E170/fjCfjRsQbu+tvbQUqioBDsfdruafURmolGv02rU2RouzQK4bqHT69LrdtkdFoAn9Xyf7quvxo+TGZN9iYnoV04NziKJ9wsv+u9cu0a91aLeatFeWYFcjtHZWZoXLsSvyWzIseTDOpDc2Bj+xUsPnZsJMz3jn/kMjm8hscTKEMwCie4DGM976BgiIiKPiwIQEXlmjI6PYwkyIMnC7qjWIzJ76lTcnvdRokDlXrg0q5UY1PdhNnW78X0f2Jeo+UjO99gfBiPJQvTksrBoeVQxl8Nay8LWrSzs3YtjDI4xNM6eZdH6/f0T2Yzuygruz/1b3F4X4xh6n/407l/+y/jlcjBJPexuZRJzQPxEMBJta/vJCSIiIiKPlwIQEXlmrCwvD+QGKqPBEqzKc8/Hy6A2J4rEN3bB2hrOBsknis6j+67j4GzIPERBx6Zul6W7d+Pt7VIZ7ODxI1cSAwn3HT3GRm4YEDRaLfKTk2y6e5eZcA4IQAmwmQyrR1976LUW6HzdHyYdZmgyXxMMUXTCzl8bhzJCP+vRDQMyc/QoGS3BEhGRJ0gBiIg8U5IX/WurwRKs2cTk8dlHFIkng5BCqUQzzHgkL9dHwiyK5/lca7W51mrzIJ0ayHzczGT5xUyW2VqVAYnZG9EQQoBHVatbY2iGAYPjujidTvyZ2sZQzWQodzpUzpwBoN5u02q14l/mzt/+W+F7Gbq//ut4P/VT/YP7Pr4xA583XSgMnkavpxoQERF5ohSAiMgzZWx8HAg6YVke/UtuY11I5P5bb9Go1bDAtkT9B8Da+jo+Ft/34wv0btfjPob7GNrbtsf7NgDre4mak8D+4/3idwvxoMJkUXrKdZnYNIVxHBoPHpDf3j9uxlrKnQ5Zx6HWbuMDxWyWQi4XPD86Smp0NJ6/7gHun+sXxUdT3h/12eNtFuqJ7loiIiKPmwIQEXlmWGA17IaVrAOJnkv+NMCW48cHAoQtJ07ExekAhWKRZr2OAUb+2veRzWRwXIfpqUmMMaTTKTLZDJlshtmFBRws5LI4wNUzZ/AJaj6uhIHGlZMn4xkg0J8Zsu/oUa68/TYHX32VzTt3srqyHC/FwhjyO3aQ37GD2tgYS1NTtK2l8+Vfzng2y3q7HQcMfruNv7QEQCvlxr/go++hXq0O1KNYoJOob0lvCFBERESeBAUgIvJM2TivY2PVw8btyezDyvnzwSwQgnqJZMlE65NBS9tDB59jdm4eiyXluljfx/o+e3b0MxVn/tL/xJ4jRwYyINH77EsUn18Jl4NdPX2a/a++ypW33wZgbGIieE0uR2Nhgcbt2zwIl2VNPHhABnA//Wl6ifPLhnUfzuIS3d/6LXKeh59K4ZZK/eLyV4/E5zIwByR83G424ey7OFqCJSIiT5ACEBF5ZoyHy68gWII1OjrKdNgat7ihE1Yy8IgeR52xDHDvrbcG9g86TgX3t2zejLUW47qkwtvN27eZmJjEDztIXX/3XSz9YvOor1SUAdl39Cj7w2Bk79GjXHv7bfa/+ipXz51jJZpp0m6zNj5OcdcupioVevk8rV6P9V6PSipNyvSDqXa7jQP4Fy6Q/qqvpOO4D30/uTPvALZfgB9mWaJzczxPQwhFROSJUwAiIs+MrYuLjI2PY4C1cGr4QphVgH4HrDj42NAVKrlMa9vrr9Ns1IPuWG+8Ee9vLdyfnY0OQLXeoFpvMDExGR8nm81yif4v2Kun+4Xv+4/1l31FHbGunj4NwOW332bf4cOYcBL67ObNjK6scL/T4X6nw+jsLDnXpZJKs+z16Je/QzasA3FWV+n+yq9gfA//5EnI5zEkggw/ePdUsRjP/4g/fxiQKAgREZEnSQGIiDxTVpaX4wvo1TAIKY6MPFQDYoHVcLifJaj/SBZpL73/fnz/3mc/u+HVYBwHHIeRcv81fqfNkSPBRHMH2HXk5Q2vgsungsGHV0+ffqhIHeDahQsYxyHjumxZXWV282a25PNsyecp7NmD+/zztLFY16XRbjMaBh4AzWYTgPTXfwNUBztxOQDWDg5BDAMOh/5MES2+EhGRJ00BiIg8c8bGxhj42761jD73XP8hQUeoRliAHV10x/UfG463JeqIZQxXr98AY4LsieeDDQIPvxMM+ctk0gCkgBvvnh3ocpWciB7Vguw/emxgOdi+F17AGMPa+joYw9a5ORqJOSDepUvUgAljKIZ1H9H55nI5umfO0P2VX8YdqWDSKWwYkD2qHgaCtr9uYu6JJcjg3J6cfMTeIiIiXzgFICLyzLHA2OgolUoFS9D9afb06XgGSCGcDJ7cP7kca+uJEyQr0O+/+WbQIjeVirMEBrCOwTqGtudRbbZoe17wvDGkw9fu39Bpi/C1cWes06cGAoSrFy9SX18Pzr3RxI8GGrou1nVxXngBm8kAUAsnm0fBVqfVImUt7jd8Y/A+6TQfxouCr8TndKzF7tlDo9HAdjqf8zsWERH5fCkAEZFnytj4OCsrK6ysrrK6tgYMLruK7jdrtX4nKOD+yZPxMVbOnaPZaMTPZQuFOKAgDDC2bdmMC7gEwUsmk8Zai5Ooq4jey4GHAp59R4/Gj/eHmZHofHygWq2SCgvnTS5P48oVGleu4F24gJfLYa2lGAYifvhaB2jevYv3L/9lfOzWz/7sI5dVWQjO1XHoRYMXHScOxLQUS0REnhQFICLyTIk7SIUqlcpDAUCjWmVLoh1uJApQxg8fHshKtMJgBGvDQvTwaGEdyJYtWzCeh+P7mHQa6/ukCAOPjXUXBAFHVHievNB/7rXX2HfwII4TbO3VgiDEbzVp5fNkDxxgbWSE0bC+o9rtsvaIoYHmlVfA+jjGUPjh/3XwMzr9d/QdB+P78fwPH3Bu3KBYLKL8h4iIPCkKQETkmTI6NjZwUb8eZkGibdGgwfun+kufcmENRLTP8rlz8eNkfYbjOBzYvy8eEhi13J2fn8ek05h0mkY1qCNJh6+JOl3tP9oPeK6eOhVnQDYuz0q2BXZdF2PAyefJNpu0Ll9mtFrFP3yYardLKbHEqtFq9TM9v/mbwZ2eR+2H/8ZAPYzBxMXvxvexQDeRDcqUioiIiDxJCkBE5JmysrLy0DBCGLzQ33LsWPy4UCrRTBSjFxOPLUE9SPK1hiDwMMaQchx832fTpk10ez0a1RrpfI5927bxm+MTA8GLMSaeAbL36FGSuY/LienoAMY4lEdGSBcKAKTLZbJTU9TGx2mmXJxz5zDHjrHeDRrxZoF8LoclXBKWy8bHSm3aNHDsfCrV/27CQCo6k/SXfRndWvDZH54iIiIi8ngoABGRZ0r0135LfxihBTa/9hqFcplmrfbQ/I8tx47Hr0k+Zwja8UYX6Ls/8xmu3byFby23bt+h63ukHCeeC5LOBy1xH9RqFDMZth8+HB/ryqmT7D16NJ58fu30qfg9D4TLwa6cOYMxBsdxqNVqdBoNrDH4jQbthXlKy0vkex6dl1+md+YM5XQaSxB81MOlWA7gNIJ2vNb36IUZj0gzUVyezufjc/AB+6lPBfvUagNF+CIiIo+TAhAReaYcCZdFjY+Nsbq6yurqKgaYPXMGCC62Z8MZHIVSkUatxv1wNocFmvX6QNak2WjEj2//z/8TxgSX89YGAUrP99iyeYYtm2dwHQfXcUil05iFeS6cO8f+cKnVvrDuIzpWvw3v0bgjVly07jjUazU6vo/jOHRrNZa3bgMMzVSK9NmzxCcBcfARsctLdD0Pb3GR8t/7SaCf5Shks/H7tJrN+H6mVBrI9LS9wSGFIiIij4sCEBF5Jq2srAw8jtrxbj16lJnXjpLs9RQtySoUi2w5fjx+zbZw+VV08b7zn/+reBo6wPatW+N95+cXBt4v/6M/zsFDh7geFptfPXWK/YnZH9GyqyunT7MvUR8Svdf0zAxpY7hWLJLbvJnxe/cAyPV6tF59FZM4TwgzGARLp7xTp0m5KUylAr6lW+jXdfieN/A+G7tdpYqqARERkSdLAYiIPJM21n6Uwpa290+fZvbM6fjCe8vRo9xP1GBEGQ6ApXPn4joSC9jbt8iErW937tjGzVt3iErVp6enSaVSpMIaC4AL588PnE9UkB69uSXMgCSWY11+7z1wDMZx6BnDjtlZHMelsHUbha3bqFkbLL8KAxs/vI2ENSAGaN2+HSwlC4vU0416/zzC6MkCmf/lh+LtvXAIY7deD9r6OhtDExERkcdDAYiIPHOSS4nGRkepjI5SD1vXRhfplmDy+f3EsqhGvc6dt96KX5tcjpUvFLj/Q389bsN789Yddu7YRjadJptOs7S0tOEkLAdfeAGAA8ePP3KuhiHIgESee+01HGDH7j3xtp4xcTuu1fv3KBqDn8mAMcGNfoCUz+Xj9465/V/zya5eBvB/5G/Er3fD7mBmw34iIiKPmwIQEXnmjI+NxfejOpCNszgKpRJbjh5lc1gYHt22JQvSw/0NMPHii/3XW8uunTu4eesOzXabVqfD+Pg4juPgOE4cAFy7cCHIapw8Gdd8QND16sM6dEGQBXmwsIAxhozjUL97F4DRrVvBWsqJQnIfKGWDrlfNVpN0LiiEp9sl/SF1HKmw1W7yfbthBkRERORJUwAiIs+c5bD+wzIYOABsee01oJ/9SGZAthw/zt2wIL1QLLLtxIn4dfcSmZGXDj4HBBPRc5kM1lpWV1cH3icXLona2MI32fUqKlBPZhssgDFs2rQpKEC3FlMug+OwtLTE6sgIqyMjdMOp5RPZLNV2G2st+VyOTqsV/2L3shmoVAYDHGsxmIfOK/n+uVIxHoYoIiLyuCkAEZFnlgUWwza60TT0+2E3rOj56Gc0oDB6HM0CiR7HN9/n2u07XL9xK3jSGHzfp1wuUy6Xg6AkzELsOnAgDjouh52uDP25H1dPn+ZAYibJtfDcjDEsLy+Tz+VIAbZWY75ep1coxLdUWEwOUA4zIJ1Wi3QuR+mrvgocgxvOCQFoFwpBoLGhvW5qwxBGB+jU6hua94qIiDw+CkBE5Jk1PjbGaCIDsPW119gcZkCSDFBPzL6Il0eFjwuFAttOnMAAlcoI+3ftZN/e3VhrSbkuhXyeWq1GLbGMqdFs0u31iBrk7j96dKCjVsRaG29LzjAZn5hgeXkZXBcDTCeWlU2PjdF1HNa7PQBW220cE2Q1ki15/UyWtW/8Jhwg22gMvm94Lr3E0EV1wBIRkWFQACIiz5wo4FhZWWF1bS3etnb5cpwBSeYBCqUSBrgXZiaix3dPngyCk0ZjYEDh5Rs3uXL1elDvATRbrTgD4vs+jWYz3jf6JRsVmwedr449tDwLwsLw6H44kND4PqlKBQgCjygQyVhLJZNmtd0eOEYpl8M7sB/fWmi34Hf+Kx7gzczEQVW3VutPP09kfpLfS2vDcUVERB4XBSAi8sw54vtseuGFR9Y5JDMQW14LajDqtRpbjx1nazhbo1GrxfeTWQsLNBrNgWVMtXqDbrfL2toaa2GwA2FHqrBLVYqg7qP/3g9PGT9w7Fg/+AjrO8bGxzGZDMZx6C4v04X41jp4EAuM5oLlV9VWCwu0Wi3cS5cBcJpNyBcAcOfmBgrfI91aLd7mJZad5cNlXSIiIo+bAhAReSY9uHABA4yOjgLBhffIgQNx5sEQxwdh9uNknPGwwL2T/WJ0CLIhAHzseHCMsB1vqVig1+uRyWTiW9QO99euXcMFdofF5o8qSL8SFsFfOnWK58L9IsvLy8G+jkNnw2DF7AcfALDaagedsMKi91w+T/3UqSD4ANxCEIC0E8urkueRDrM9ZsNzVXXFEhGRJ0QBiIg8s8ZGR1lJtuBNZC4scC+xLCqSLxYHW+RaO/D83u/+CxzYuQOA3bt2UK3VmZqcjJ/3ouJw0y98v376NJdO9YcNEtZrPHfsWNwJ68DRo0FNCeD3emGQZLDdLu2lJbITE5BKQSpF89Il2mF3Lx8Yz+WoRrUf1lI8dAg/lcJL5FxS4SDGaEtU75FsvzvQFthsrFYRERF5PBSAiMgzyQIrq6sDS65m3347vr8lUYyeDDga9TpbjvVrNJqNBtsfMUiwHNZOlIoFqrU6vm/xfYsxDtu2bQXg/3jpFQyw59hgZuNKYvJ6VBtyOfxpgAMvvRzcD1vh5iYnaS8t4YaT1fOHDlG/epXayy/H571x4oeJBiOm3IfmjSSLzzdKfs7bExOP3EdEROQLoQBERJ5ZyUJvC8y88urA84UwiLDA1nAgIfSL0SN3ouVXIWMMvvVxHIdao0GpWGB60yS+7+H7Hnfv3SOdSvPcc8/zHnD91MOZluRjmziuBS69d/ah98tv2sRqpUL17l2qd+/iRwMHNxwDoPrmm/iVUWy3QxRSRDUgkWgYITxciB7tt/rq4PclIiLyOCgAEZFnUlTXMBbWgIxXKsy908+ArF66RD1RgH0vrMVIFqsXi0UssP3EiYEL/Cu372D9YMtIqYTjOMwtLJBxUxhj2L5tW7zvJ3buHHhtNIQw2rY/UR8SZUGefznIgIxUKjQ7HbywI1UlUeQ+sbIC4WyR5PEARl59FfMrvzzwfVjA2bwZgEIuR69Wj1+TXIaVDEZG3noTERGRx00BiIg8k3yCi+5oQvnK2lp8wV0M6yGgH3Bs3VAoboF6tEwpMR/k9j/+/7I/XGJ16cpVqrU61VqdLTMzdP2g/iOVCgKRRrPJmVu3BjIPlxNBw5VTp7h8+jQGeO7oUfa/9hoWuHj2LPP37wNQyGYxxoAxLMzM0M7naefzdMIWwNZxgm5Y2SAj0m61qEVLzTZNYXwvXp7lzc4G343vx8XnSckgplgswkN7iIiIfOEUgIjIMynZ1Wm0UmHTSy/FReEAo889N3B5vXrxYrz/1jBLEblz8iSFQiF+7fzaOr71gyxIeJCFxUVSqRSpVOqhc9n96qukwnM6cOwYDmHR+Yb9riSmtBvHwXFdWp1gmnnrwQMqYV3H5NwcGd/HOg6TmUz8Ggtkc7ngc87PY+bnodfD2bbtoffqhNmfR7UqhqAVsYiIyJOgAEREnklxq10gvX0HD957L36uXq1yb8NAwvrvccHdSEwSj1rwPv/cfirlEhjI54PWu+vrVTzPo1Iq4abTuInzgX4G5MqGDlzR8isAjKEZZl/y2QzGGOa3byc/Pc3E3BwWaDsOpTDYWWu1wARZn1arhQOYuTkYGx34DM7kRBB0+P4j56IMDGcsl2n7G0vbRUREvnAKQETkmRT9dX90bJQH596Pt5XK5YFlVoZg1sejppIDbA8HEkZ2/Pd/gkazibWWS5evMjExQaVcolar4XkexWIwd6PaCAIIh6CIPHq//Uf72ZUDibkfUS2IAZ5/6aVgydXsLK1ul1a3yy7Poz43F++f9X3WfZ+W71N5xNDAzltB4Xy314MXX8QC/uLSwGfLJOo9NtaD1KvVgbbFIiIij4sCEBF5Jr0a/vV+ZWWVsdFRRisVAGrVKlsT3Z0KpRKNDS1p7yaLuxPX4Ba483P/Jmjbay3PHdjHpctXWa/WKJfKrC4tx7eMm8Kxlgz9pVUHjh6Nx2skW+LCYBveiDGGbDoNQHN2lkyvFz/Xdhz8VIqcMSyHRerRMMIo62KqVQD87dtJnzgRHz+abRIFGxvPJXqccaMjiYiIPD4KQETkmTZx8CDLq6usrK31L+6N+dDy6m3HjsXdryLJWont3/bfYxyHXC4HmDi7Ua2uMzo+xuj4WPAax+GrvuZreHPzVva9+mrc5SpZhB458IgCeICpsGuVcRwoFukl6j3Se/fg5XI0ExHSejiM0AIFa7G1Gm42i/uzPztw3Ed9roHAJ7x1tARLRESeAAUgIvLMGn3hBRY/+CC+uI6yIBBepJdK1Gu1gaGEKx98QL1eT1yQ9y/bDXD3538ufuyEgwKNMYyMjDAyMsLa4hLG93HCbMW3GsvVt9+Oj7c/sezqctj6Nyl5yb84Pw/G4BiDrdfJb99Geu8e0nv3sHLvPuONBrkwAFpvtRgJMyAA6/PzOHfvgevg/Y2/ge95DwUZyZ+pxHKsTKmERRkQERF5MhSAiMgza+XCBcbHxuKL8pW1Nba88gp3E92mLHA/fJwvFrGJjEKhWOTuqVNxRiDKGOS+/A38KDtgYGy0wthohVq9ztj0FGPTU3RNkLnoWctK+LoDR4/GbXf3v3a0n/mw8NzRY/H7XD579qHAxC2V8I1D7/oNetdv4IVF7y1r8YGRDYMJAezlS8Hn+MZv3PDE4NEflQ0qlErUms1HPCMiIvKFUQAiIs8sAyyvrDA+OhoPJLz/zjvxBXejVmNbIvsB0Kj3B/SNHzrEtmPH4sBj+/HBIYKR5ZVVlldWKRYKuI6D6zjBsqmEva+8Etd5RK+/FD6+fGZwuwFc12VyeppqtQrG4NdqeNeu4ezdy+roKJVwvkm902Eylws6YSVEuQvHGrpf9VWPDDKS23qJoYwAzVpNU0BEROSJUAAiIs+s6IJ6eXWVlfCCfcsrrwDBX/g37meMYduxY3G2Y/n8ee6cOhXvt3zufP810XBCY4JOUwQtcAfe37f8SrWGA1x5552B566cOc1zieVYNjyL5zbMBymXy7iuS3p0lAebN2Ndl7GpKZwDBwAohnUhNjgZSolMiL1zF6wl86lPxttMcPIPf1kJ3Sj4MApBRETk8VMAIiLPrInx8YHHFph9551gynmtxtZw8jgEy63qtRp3w4DD0G+fGxk/dCg+TtCG9wrWt0xPTtLpdHAcJ75ZPzjy6p/8TtLA3iNH4knn0F+OlQxCIs8dOYINg5p6rYYJA4apXg/v8uX4BlDr9eKuVtG5dYDMt387/OAPArC+vo6/IfuS/E42FtynE8GZiIjI46YARESeWYvLy4yPjg4sbRoZGaFUKgUF5WfOxAMJjTHxxbgF8oUCowcPAokL9DAgKW3ewmil0s+COIaZqamH3j+TybDpH/0MDnDt3Xe5mqg9iZZfxcuwNjxOBhT1Wo275TJ3y2Xu79mDPXgQe/AgrcOH8cOlXj7EmQ0XyPzH/wjtNrTblEtl3A3T3eNWuwo2RERkyBSAiMgz61XfZ2l1lYkNE8FrYb1Dch5IPawHiQrBN2Y/AG6fPIkFmrP38bygCD3ab3FlmVQ6RSqdwnEcMuHSqPb3/vV+B6wN9SZxNuS1fhbkQHgOzx85wp2bN+P9Zu7dY+bePbbcuIG5eBFz8SKd997DeeXIQAajEbXi9TzcahW3WqXu+/SiYvpyGayNl5ltPJekR30HIiIiX6jUR30CIiJP2vLKKhC04Y3mgVjgXtgeN9loN7rfqNephzM7DFAoFGg0GgDkpqapdjqk0xm63Q7zC4u4roPneQDMLzwAwPd91tbW+DTwlTz6Ij9829jlM2fwCDIabjaLMYZiqUR3fZ10WEhff/AA94WDOEDx7Htg+uddzOUGalHS4+OkgVb4/rZaHTiPaBghBNmQTq1GJ9zW63Y/x7cqIiLy+VEGRESeeWPhMqxk8GEIMiAWKJZKbE1kJ4LHR9keLlsqFIuMv/DCwDGTReibp6fiQnTXdZme2tRv00vwi3ZjtuG5ow8viUru4wMp16UUzipJj4zQXV2lOz9Pxvdxz52nePY9csYw/8orTIbF5/VWCy865oUL8bHiY29YcvVhQZEFisXihzwrIiLy+VMAIiLPtPHRUZZXVxkLhxBGwUdSvVYDC3fDdriNWg1j4HaiA1ZUI1IoFJjcvYsDxTzWWp5/7gAWy5aZaXxr8TwP31o2b57BdV3yhWBex+4XX8QJlzRtHAIY1W4YGChKN8CDxUUcx6G7vk52YgJjDK1cjlYux2qxSNtapsMOWxtb8WY+/nEemmUedrjKb5gbsvE7MUC9XufWhkJ+ERGRL5QCEBF5pi2H7XdX1tbibVG2YfXyZQrFIha4+/bgcMI7YTE4BBfiwEN1EwAXPrjI/IMlABzHCSaXOw4L4TIsCNa6GmPiQvNgGrodOFY86ND2H2/duTPYbu1AS9x8u02+3WasXqfZ6bDabgOGSi6PJfjFbjIZ2idPBi9w3YcCEet5bNRJLMfKlkqUSiXaWoYlIiKPmQIQEXmmjY+NMXnweQxBNgT6f+2v12o06nUMxAMJi+ESpW1hYXixWOwHARDUgaRSwVGs5dDB5wGYf7CE7/vxbXJyAmstI6USKeDye+/FReiXT5+Ou10deO0olxPdsSD4xXzwyBFMGMyUomVTxmCMYb1SYb1SCaayZzL4YXCy0moOLuW6fh1cd+DYthAsq7KPmAWS7IgVzQtxVIguIiKPmQIQEXmmNXbtws7NM1qpxNkQSzCQcOASPL4gD37Gy7HCyeh3Tp8OlmDl89z+9Ke5/XowMPDchYsYY5iZ2oSbmH7+4MFifN8F9h46xJUzZ+Lg50Bcc2I31H8Ejy+9+268pdlqYTMZ5oH05s1U1tfZtBRkXYwxWMdhpdVkLDmEsNuFK8GskK7v44yMBNmRRn3g+7EEgYelnwFJBmife2ShiIjIfzsFICLyTPMtLK2sADAWZg2SkrM/AGq1evzYEBSgbw/rMkrFIo1mM27VOzJSxlpLp91m/sEiruvS63bpdbuMjVZwXYeu55MFrp8/P/A+V8Ksx+UzZ3guDEaSuYbnwgwIxpDNZrHtNiOLi+C6pLdtw+7eHbfJnUinP7Slbtf3SbsOdmTkc35PGwvg27Xaw/UjIiIij4ECEBF5prXfDSafL6+tsbK2xnhYjH7vnXfiQGKjaHuhWKRer8f1IMmL9NKB57Hhcqud27cxM7UJCIrUC4UC69VqvO/tH/ihgWMfSExEB7i0YQmWAS6++y5XLlzAhMuu7m/bxv1t2/Adh86dO/iOQ2/PHtatxVpLOZuNz9EC7WYT78ZN0q6DH9Z7PCr4MgSZj+T34BBkRQzQC7t7iYiIPC4KQETkmbZpfBwDTIT1H1ErXhjMfKxeDpYrmQ3bSewbFaMDtC5fxLeWFw+/wI1bt5mdn8day+raGqtra+RyOcyGsvVHLWcKWvIGGZYDrx3lYiIY2XvwII4xrKyssG1piW3379O5dYvUzp0ANK5do5w8mDFx1iJXLOE0GrSjYvgDBwDoFTfUefDwNHQLqv0QEZEnRgGIiDzTdiwuDrTijYKA5OX11ldfHQg8todLoqKAY/vRo5QSMzG2fexjFHbuHnwjY/CtpTIyQmVkhHarDYBjHBzjsPPg8/0AJGzpGz2OCtIvnTnN80ePxs9dv3SJqa1bGRsbwzEGJ6rxcF1wXQoHDrCWTj/0mYv5PK16v6MVjoP9qb8fzBaJtida/z4q2OqfqgIRERF5vBSAiMgzbylRfA4PX3SvXrpENVyGFF1uf64hfHc/8xn8bDbY3xiMY9gyPUXKdVlaXmZpeRk35eKm3Idea+kHHEBc/xHfDwMDC+w/eJDrly6xtrY2cL6d69fpXL9O6soVRsMlUmvtNtaGrX2txQHq587hLgbF8MY4OIBX7HfBijIfyWno0ffTqlbxAf8R3bJERES+EApAROSZNzE6yvjoaDwL5KGC7cRf+aPnouyHBW6fPh1f3G8PMxTNyxfpdntxwHJ3do5Or8emycn4WI61HHr+OQqFAr7nx4FPtORqY27BEtSDGOBQ2KVr/8GDjFYq+K1WULMR1oQ08nkWS6U4QKiENSCjiU5YDuAcfB5jDP7/9X8FE9k3BBSfaxK6BfKp1IfsISIi8vlRACIiz75wyVMk2XC3WCxSC7Mf0fY7iTqMeDlWoxFvKxQKGCCVDi/OrcV1HLLpdDC7w1qc8EL/xu07A6cSZTk2dt9KnlswkNBy6dw5rl68yOraWhBEJCadF1stxqtVctEMkE4nfq6W2M/8zD8AwP1j3xY8jrYzOHgw+d4R/QMhIiJPgv59EZFn3tLKCsurq4xXKmw6dIjxSoWRclC+HQ0ijC68t736avy6aFsxDDggyIY0Go348YUPLmGBmalN9DyPnucxOTWFZ6Hb7bJt8wyO6wbzOhjseGVhYAjhxm5YBw4fxhpDpVIhUyqRKhRwx8Zwx8ZYHxujeegQbYLgYzSTYa3VwhhDOZ+Pz72TcvF9n+4HFweOba0lvaH4PFqCFi3NijIuIiIij5MCEBF55kUX48trazw4fz5eimU2PA+wEnbDip6/c+YM9UZjIGNRKBTwCS7ijTFht6vwoj6V4sGDRfxeF4BGWIx+5tIlDAzM/PhT9AcSPhdOXo/f2xgunztHynGoVqu0azUcx8FrNumtrFBeWaFw4QIZwA+XdEWfY60ZTER3AHduHgB/0yby/+gfDSz76iYGDQ5kYsJgqVwuP3JiuoiIyBdCAYiIPPOSF90bL7g3Ls2qh8uSou3bE0XiO44eZefRo9QTGZBcPsdLh1/AWsiEHakcx6HRasfBx1S5zKnxCSDIckRZj/8fQQYkyIyc5vnEe116553w5A2lcpnr27bRqdexieVVzVSKtrXw9tvce+UVfILgYySfJ5/L4QLNT386/izV7/keIBg06IUZkA+bhQKwWq3SCGeIiIiIPC4KQETkmTc5NjZQ32CBWjgoMHnxXSqV2Pbqqx8apNw5fZqlDz7oF5PfvoPneVy4eBljoOv1h/aNjo4yOjpKJpFBmNm3F4D9YaDx/IYJ6Mn3O/DKK9jE8qctd+5wfds23ESRe67bZd118TIZtrz9NhO5HCP5fNxJy9u+neInPhG8R7FI8Ud/BC+RzYkyINFAwui9O9UqHkGgcigx+0RERORxUAAiIs+8hZUVJkZHMcB4pTIQdGw5ciS+H2U/ks8vf/DBwLFq4QX5jmPHAEin01jfj5/vej0qYxUaKys0VlYAWGo0qOdyvHf1GtCv9bh05kzcESvZIvjga6/xwTvvcOjIEXbs2YO1lpFymR23b9NeWKDn+/R8n3U3aPM76XlkHQcLrDSbVFst6q0WxU98IsyYhJ+oHWRk+mf7cEtik3hei69ERORJUAAiIs+8Y74ft9FdXltjdGQECC6w77/7bnwf4M7bbw8sv4qWW21cqnX71CkW/9k/iR/fun0XA2TTGbLpDMXxcYrj4yw1Gvi+R3nxAYf37OFAOPQQgrqPi6dPD2QgAC6eOcPBI0f44J134hqMeqOBTaWCDltbt+Js3YpXLOIVi6x1OnTC/XxjKOdyFPN5ar/4S9gf+RFcx+AkBhZ+2PDBTFiYbwEPmCyXERERedwUgIjIl4SVtbU4+7Gyvo4Btr78ctyKN8kApWKRlYuDnaO2Hx0sFCeVptsNis1379rJ5ukZOt0OnW6/Je6ObdsA6HW7XLl+HegXs188czquwYg6ZCWzE1GQsLSyQrPVwnY69LJZuHsX7t5lbH2dsfV1RrNZljsdVtptJrJZ1lotqs0mveo65if/bngwy8qP/ChOvhB/xuR7RPzEz+Vm88O/UBERkc+TAhAR+ZLgE2Q/ogvuysgI98+eHWg1u/WVV4CwRqReZ+z55wcu0JcvXIjv7zh2lOZv/hrpRGbh1u07QSYhnYm33bx9i0KhSCqcTp7MdEQ1IJagO9Zzr70Wd8ryw2VdV69cIe26jI2O4ubzuPk8yzMzLM/McHfLluBA1jKeTjMeBh+VcBihYy3O9/7PgMF7+20q3/ZtuOEJGGfw138yECqUSoyVSnQ/tDxdRETk86cARES+JGzs9rS6vs6Wl49QLpWobRjIB0FW5HZiLocBxg++ED9ePH+hXzRuLXfu3mPnju34vs/i4lI8sXz3zl0AfPbjX4HLYK3HxbADVrTtYtwRK3hfH9i3fz/FUolatYqTyUCrydjcHGNzc2y7f5913+eB7+OEAUUll4s/aPovfA/ePw6WiXnTUwB0w4GKvp/MtQTn0KxW6QHLtRp3ajU+1mn/3l+siIjIfyMFICLyJSO65B6vVAC4d/ZdSHSauhe2vi0Wi9TrdbYn6jUscPvM6XjfiRcO4kBco7Fzx3bu3L0HForlxJIuA6lUij/27X9yIAA68Gq/5a5DEHQMtAv2LcZ1uXH7Nj3Po1gq0V1ZwRmp4ExNYYCG49A4coTpVIqVdpsH7TYrYZveUi4HV65iN03SWF/DTm7CLj4AoGsMqTDbE55i0Jo3fNwFNhUKv78vVURE5L+RAhAR+ZIQFXqPVSosh4MIIWjHa4Htr7zyUKH53bAgvVD48LoJg+HlwwcxJghCioVCEISUigMpF8d12LJrF1fCY156+wzPhVPXfQYzIz5w4fw5nHSaLVNTLK+v0/M82qkUN8fGWC0WWdu9m1Y+T+baNWqex0g6zWQ2i+84eL5lPQxE3G/9FvK5fHweXWPwrMWvjMTvGQVmpXI5CD5KJV58RFZIRETkcVAAIiJfMsYrFVbW1hirVJg6fBhgYBlVpJaYfWGARqPBjtdei5dLlfJ57pzuL8+6ePka167f4Obt2zSazXj5ValUwjEOjhv8qvX9/lC/5159bSD78nxi/shzR47w/MGD9MK2uSOFAsvr63i5LOOXLlG4epXC1atUajUqtRp5Y1jxfTxrGU2nWfI8vFSK5gcXqP/qfwZg7K99H6uffYt8JoM1hvroGD7Etx6wUK3SBjoblmeJiIg8TgpARORLhjEmbsU7f+7cwHN333036H5VKgFBRgSgUCw+NCeD8DiGYOr5wQP72LtnD47jUCoWKBWDjEmj3ohfl3Jdqp0u+155BUOQAYlqPQxw8e23B87n8oULPH/wIN1ej5bnMVIoYJeW8X2flT17WNmzhzt79gD97M6S57HkebhAKZMh9d3fDbt2sdpps3D6DF67RbXbxbOW1H/4D/GSqybQAsaLRcYLBWU/RETkiVIAIiJfEo75Pg9WV5kI6z+Str78MtuOHKFYKlGNLr7DIANr2f7qq3FBeqlYZOLgQSDMnhi4cPkq165dDwq7LTSaTRzHUCoXcV2XVDgwEOD8O+/Ev3ifS9SBJDtinXv3XazjcPHiRZZWVqgUi1jPw/g+rX37sK6LdV1GZmdZy+cxxjDquoy7LmOuS8VNsRS2B3amp+gtr1DodilkshTTaRwgVyrhhz8hqP+4Ua8r+BARkSdOAYiIfMkwwFJY/5HsPgVBBiTqhrX9lVe4E2YkjBlsRVut1we6Y22anABrwUA6lWKtWqWQy9NstGg2WgOv/dTcXPy+UR1ILByU6APPh8vD/HSacrnM3VqNZruNMzNN/vJlZsJbpdlgvNmk4/ssWhuXnPjWZ3TrVtJf93Xx4VudDs1OG5vN4roui7UaxWKR+VqNSrFIA2ilUp/P1yoiIvLfRAGIiHzJmBgdBYgHEkZzL+6cPRsvvUoqFYvU6vU4GIkGFiaDl7WXDmGxGAw7tm9nrFJhvVbDcUx8i3xi82YcYP+RI3HNR3Tzfb9/Tr6Pn06ze+s22r1e/Ho7N48B1gl+effCk8g6DpuM4YHnsez7rHkeaz0Pt1AMbiMjlNIpSuk0tlCg5/vxL/+RfIGa7+OlUvyRTn+AooiIyJOiAEREvmQ8WF0N5lyEAwmj0KBcLLJeq2GBbUeOcOedd/rF6clb1HI3HBhIeAxrg6wDBBmT0ZGR+D0Xl5eZmtxEIZ/n9OwsBrjy7ruPPD8LHHj5ZTrdLgf37uXmvbvU9u6lkkqx3unQtZaVw4dZOXyYG4cP4wFOmKFZ8jwmXZdxx6GcSlF543UAHMfQ+cqvpN4NAhl/dJQlaykWCjR8n5r1eXtqim9Q8CEiIkOiAEREvmT4YdTgGcP4SNCGtlQqDgQjd8PgwBAst0oGGhsV8nl2/4//Tw7t3T2w3RhDKqz9mNm0iVo9WNp1aGYGeHj513OvvornefjG8P777wPwwZUrmEyG9MUPaHc7eL6P+7f+NpXv+M7g9v77tKyl7fvUPI9Rx2HRWjrW8sBa2ocP4ziG9cUlsvk8bWPoOIblS5ewmQyrnsea73Oq0+Ev3LjxhX2xIiIi/w204FdEvmR0HRdrLRlreVCrMVEus1itsu3wYarnz8f7lQqFuBWvAba/coTlS5eph1PEb4dDAxvNJhNhBsJai+MYUmEdhW+jsMYyPjpGvdmIjxd0wQqWdVngg7ffxjcGz3E4+PzzXLh8GT+TYVOhwNLaGk46zeTXfR2L3/e9jIbnmAVsucw6UKhVaVlLxRi61uJ8zR+i+4lP0F1cInv7NtVOB2stq50uNzZvxjoO1nH4zps3+con93WLiIg8kjIgIvIl4xPdLqP5PKVikUqhgGctxhhufvBBnOHY/uKLjIbtbQF8Y7j9zrv9YYHGxLMz4uGBxpDJZHj/3AXWqtXEOwZ7RMFHvdfjPIPZDwPsO3wYx1pc3+fs5cuMjI+zbWKCB7UavV6PkUyGtd/8TVLW4oY3x1rc9XWK9TrGBL/K1xwHCziLS/jW0nVTPPiBHyDfapIdH6d46BC3d+7kO27f5jtv3nys362IiMjvlwIQEfmS0goH9s2323StpRe2yO25Lp7r0ut2ufXBB8HjVIrNBw/ihTUYPddl20svxQMEe65L7/49rty5i7WWFw+/QKVcDoIQY+JbOp0mlU5z4a98X1CE/tJL+Bh6xtBxgl/DPcdh38GDbJ2eZrJc5ubiIk2gPDLC4toao8UiOWNoG4MDpB2HdPhaYy1YS9bz8AHzYz+Gl0pTXl0hvbBAzbfUFxd5+exZ/vqnPz38L11ERCRBAYiIfEk5Ua8z227TAeZ7PSpbt5LLZGi7Lpv37KHV6dBNpeim06RTKRauXweCTMXOgwe5ce4cuVyOXioVzAopFkmn0sGQwzC1USmXyWdz8c0C2UyGmS1bMMbQ7fbY88JBnHD/Cxcv0nFd3rl+nfnZWWqtFplMhsVWi8V2m9GREdorKzhR5sMYOtbiEAQf1X37wRjWcln87/9+3EwarE/1j/5RcsaQN4bcrl3D/7JFREQeQQGIiHzJ+cOdDi2gYy335uephkuxmp0O9+/dI0cQcNTDWzeVopdKcePaNSZ372adYEaHn04z+3P/Gmst1louXblCNawdcVMurXaTVruJk1h05TkOZy9fAqDrGPYdeI7pzZtJWUva8yhPTHB/dZX1Toed5TKLrRbXlpepWkvVWrLG4BEMDjRAdd9+Rq5ewQCdQonm0deIJoK09uzBWkvV8zgWBlIiIiIfNQUgIvIlaWpkhEXPw/c8Or5P03VpdDr0fJ9lx8H6Po71cayl47ps2rKF8elp2mG72ozvs2XHDjommiYCYEinXFrtFoV8nmKxRLFYIp3Jks/nGR8fY8e//08AnLtyhVYqRa3Z4PbcHI1Uik2bNrHUbuO5LgXHYb3Twfd9Com6kwXfp2EtDWtp+j4jV69Q9X26QOWHfojcxCQA1W/8RjpXr7KO5ROeN+yvV0RE5EMpABGRL0lvPHjAn+52Oe+4PPA8TDbLg7U1OqkU45UKzVSKXnmEZiqF1+lw584dGp0O88vLtFyXWibDzXv3sJ4Xhx+OY5jaNAVAu93BdVy69Tr5bC5+38rICMXRUcYnJ3Gt5cbsLLu3bGF8ZIT1TodWp0PJWm7W63RbLUaMwQXSiZtvLb61tDCs+D49YG58nNvNOp3lJTrLS9hGg246zcQf/xPD/WJFRER+D8b3fft77yYi8mz7fzkOBx0nqOuwlrQxpIzBhMuzHCBbLLJaq3Fgaoqu59H2PHrr62R+9Teo1mo8t38fl65cZaxSwRgH3/ephDNAWhMTtNttAN76uq9mi7WkHAfXcdg+OsrNlRUWrWU2zLBsCgtKpq2lYAx7JoPMxtzSEg5BD3VjDMZCx0Dv3/5bAIrVKtXv/vNksHjpNF8ftg4WERH5YqE5ICIiwN/1g0nmfyWdpgu0rCXjeRwpFml7Pstej/b6OkdHRjDdLvdaLZrWsn1kBNdxyGWycRF6Pp+n1WrjOA7VcjAVPR2+T7lUojqzhftz95l0XQqex53VVaYyGd6v1ej4Pl85MsLJ9fXgWMAIcHtxEYBcGAzZsAjdAr3JTbTm5yj+zR+jMzdPHkurUOAbw2OIiIh8MdESLBGRhL/X7fLTvR4rvs93zczwcqHAiXKJrxsd5Q+PjzOdSvFrS0vszuVYaTTIWculr/6KeFS6MSbs0hvMOzcGpmtVMpk0W1stAL7yn/0LqjNbyABTuRx3PI/faTToWotxHH57fR0PaAIr9Ivh6wTLr8b+9b+jh2HFcej+u58n9Q//AaUtW2jNz3PX9/jqXk/Bh4iIfNFSBkRE5BF+IcyIAHyZ41Ai+IuNC4wD/2BxkRzwwfIyI7v3ssP2V7M2my3y+RytVrDkqjYzHT+Xy+VYq9b45K0bvA8UgO8aHeWfr66yK51mudulCGTCmwFuWEuBoPPVCrD0x/8Ii8Dk//5TNGbnmNq6jfe+5ZvJVyr8pZWVJ/itiIiIfOFUAyIi8nnav3cvvufx0u3b/Llf+XV279rJ5SvXmBit4BszsG8hnyeXC4rRu57HhffOAfCvvvOPkyUINqKfm8LXFMOfOYIlXMd+4ic4/df+Gp0f+sH+gX/kRzHA9yYCJhERkS9mCkBERB6DX/rP/4VWq42bSrFlZpp2sxkHIYV8HhPez+VydHo90imXhYUH/J2v/ARZgswKMHB/LPy5DbgJlN0UI9//ffF7/uCP/OgT/1wiIiKPm5ZgiYg8Bgc2b+a9GzfpJz4sjgnK7FqtFvl8Hj/MUkTBB8DSwYM4qeBXceX991kAVrdvp+MGYcjkpk2cATLpFN/+jd/EG//dt/LiC88N8ZOJiIg8XgpAREQeg+sLD4gGEgaF6AasjzUOxvpx8AGwfuceMzu2s7S0zKnz5/m1//I7wST2VpOZmWlcJwhcPN+n1QwK12u1OpXKyNA/l4iIyOOmLlgiIo/BzvFRfGvZt3cPANl8ASAIPsIWWckVr8YYCpmgOa/Fkk6ngoyJDQKPKPiI6kZERESeFQpAREQeAwvkstn4cafVwhgHYxxcY/iwcrvf/O1PMTE+ju9bJibGsdZGHXwB4tqRUqkEQL2uwYIiIvJ0UwAiIvIYdDwPgAsfXGRuYYEU4CduAA8eLIIFWx6JA4t0Jsvy8jKWfoDiui6u61IsFnEcB99aut1gQrqzobuWiIjI00YBiIjIY2KtDTIYGNx8Pp7lkSEMPqL9wnoQk8oAMDExAQRLtFbX1gaOWa3VMMaQDbMrxWIRERGRp5kCEBGRx+DI8dcAOPzCQWamNjE7v4C1ljbgpVJMTI7jeT0s4Hke1oK1PvlcHrD4vo+1flyAHokyJdVaDTDUG1qCJSIiTzcFICIij9H7585jDMxMbaJtYXlpmYX5BRbmF5iennr4BQYWFhaxfj97spKYZm7CG0Cn0x7GRxAREXmiFICIiDwm1lqiQSDGwP3ZWaZHR5geHaHZamGBpcUlpqanWFtbJwotfOuHwQdhq91g+8rKKrlcjlwuR6lYJJVOUywWPoJPJiIi8vgoABEReUyiLljzYb3H1i2buTm3wM25BXbu3AGELXY9j9HRChAssbLWYoyJZ4VUKiP4vh8vvwp3xAANLcESEZGnnAIQEZHHxFowGPbu3sX7758H4MD0FAemp8i2goGCPa+H9X1WV4NicycReFhr6fV68fFGR0dwXYdmsxUvw2q3O8P7QCIiIk+AAhARkcfo8OEXeO/982zesplr164PPFdoNuP71vfxrcX3Ld/8DV8LgB9mQqrVKuvr6wDhLBEGJqmLiIg8zRSAiIg8JlEdh7WWqU2T7Nu3F9fa+FbP5YJWvQRLsQgDDthYB1LBGIMxTrwNTLzt0pXrj3h3ERGRp4MCEBGRx2R8fDRYKmVgaXklCC6CfrvMdXtUqzW63e7Aa4wTLq6yQeASZDosjuOGwUfQGQuIH2fn5ob3oURERB6z1Ed9AiIiz6pmqwW5HKV2m5mUSz2Xp1QqAcGSKt/ah17j+T6+bymXi4ClWq1hTPS3Ik1BFxGRp58yICIij4kNsxgGg+M4ZDIZPN8n1fNI9TwqtVq8bzB40NLr9jj9zvuMj4/Fs0CazSa+H9SHREFH1BDLGMNiqfwRfDoREZHHQwGIiMhjsra+zsVLlzEGRiuVuKPVSiEf/3Tv3gFgamoSgFQ6FbfitdZifZ9MJkOz2aTZbOI4hmw2E75DUAdSCI8nIiLyNFIAIiLyGPnW4rguAOlUirnZecbW16HXZWx9HW/b9nBP81DbXdd1w6xHv6A9k8ngOMGv6igL0mj0u2mJiIg8bRSAiIg8Jl/31V9BPpfj4PPP4ZggWzExOcb5WoPztQaO55O+dSvRLSuo9wgGqAcBSTabGeiA1W63abXacRveXq+naegiIvJUUwAiIvIYRUupjOPQ6XbJZrJs2TLDi/kcAJ0dO8hfv94vJ7cW3/PjAMMPJ6UXCvlwBogT3+/1vI/mQ4mIiDxGCkBERB4jay0XLlwEginnvV4Pa8Ht9XB7PfLXr3O7PBLuG7zGcR0eLC7Fs0B836der1Mo5DfUewRzQ1ZXVof7oURERB4jteEVEXmcwqDC94Nsheu6gGV+Mig6L5fLdOfmSJ0/jz+zGYzB8zzAxl2wstlsXPcBUG80HvUWIiIiTyVlQEREHiMbTje/fvMWWIvneeGtR61eZ3Zujs0zMwBMToz3u19ZElPPBxkMmUx6mB9DRETkiVEAIiLymPnWZ8+unSytroK1uKkUrpuiVCziez5Yy+z0DA8Wl4AgSxItvdp4azSacfer/h0REZGnlwIQEZHHaHS0gu/73Lx1hz27dpLJZvG6Xaz1sdYPJ5wHJibGw6Jzn2/5xq8F+gMKfd+n3W5jDKRSKVKp/opZo0BERESeYqoBERF5jGr1OgBuysVxHLrtFgZYXFqO9ymXy/i+PzCAEPodsICB7d1ul063G3fOymQyiIiIPK2UAREReYyKhWBGx87t27h15y6OcXDTGSYnxpkMMx7w6HqPIPMRZD/S6VTcBatQyGMSrzEGLl65PrTPJCIi8jgpABEReYzqjQYvHjoUZzdMKoXt9TC+z8KDRaanNiX27gchb797Pq7x8MNCdjbsaUz/V7YNAxkREZGnjQIQEZHHyDEOvu9z8dIVXMfBcRzuzz8A1w2DD4O1UKkEs0BGwpoQi2VsbBSLjTMhJpymHgUj1gb1IgCtVvsj+XwiIiJfKAUgIiKP0R/+mj/IlavXghqOcNv27VsBE976ooyG64a/ii1YP5iMDuD7llq9Qa3eSLzS0mg0yYeT1UVERJ42CkBERB6zA/v3Juo1TFDT4XsY83AnXccJWvASzgHxfA/f9+I2vMmwJZkNEREReVopABERecwuX7kGBHUa1lrSvR491x3YZ+HBg/h+qRgsw1peWSEKN5JdsCLJ4GNlde1JnLqIiMgTpwBEROQx27d3NxaL4wS/Yo3vh5POg9vCgwdMbZoMnjOGRrMZv9b3fbLZLNZaUimXXC4X36IOWlGBu4iIyNNIAYiIyBOybetWAFqpFNluBwgKyXvdXrxPvd4Iaj6Mwfo++VwWzwuWYHW7PRzHxLeNc0NERESeRgpAREQeM2st2UwWCLIVqVSKViqFtf3Wub5vWVxc6gcUQZ9dPM/HtxbP80ilUnHWpNFoDrxHoZAf5kcSERF5bDQJXUTkMXuwuERyxocxJtw2aHJygup6lfJIiVazHRShh5PQo9cBNBoNIAhsut0u+Xwex+jvRyIi8nTSv2AiIo9ZMMfDx3UdVteCYvGpTZvYO1Jm70iZnTt2gLU8eLAYvsJgsWzfFizZWl5eJp1Jx52wtOxKRESeJQpAREQes1arBcC5CxcxxuA4DgsLC1xbW+fa2jqZ1RUANm2aHAgsjr36EtZaKpUKWPB8D8/3Bo6dzWaDXr7qxisiIk8pLcESEXnMHMfBWjh08Dnq9QYrq6s8Xy71d/B9LHD//izFYoFwCAgAXpjxAMK6EMhkMvFLe71esExLCREREXlKKQMiIvIkhBkKx3GojIywmBucXF5aCmpCKpUKEMQTZ945NxCIRE+4rhPcUm4Uk1Ct1YbwIURERB4/BSAiIo+ZwYCF8x9cIp/P4TgOBljK5eJbdXwM3/fA2v6AQWMYGRnBWsva6hqe7+OmXKIR6o16A+v7cTveS1euf6SfU0RE5POhAERE5DH7hq/7KkbKZVKuy6XLV1lfX6fdbsfP53I51tbW4zkhNvx/UbG51/Moj5RZW13DJP5vIxWmi4jI00gBiIjIE/L8gf0AjFYq5HI5jAmGCbbbbXZ0woAkzH7YsKjDcZx4+dXk5AQLCw+AYEK6MSaehg6wtl4d1kcRERF5bBSAiIg8Ab1eDwz41rK+vj7wXKPRxO10wBiWFpfiug+A5eUVfN+P54FMTk7EQUfwM1h+FS3DEhERedooABEReQKiTlVB+Yahk1iCtbdRZ3nrVjLnzzE+MQb0u+pG9SDWtywtL8evCYKN/jKsZCZERETkaaIARETkCTBOECxEAUU6k4lrPO5PTMT7LS2tBNkMIGst1iYGGTpO/Jq1tTWy2Uwc0AAUS8Whfy4REZEvlAIQEZEnwPf9uL4DglVWUT1HLpfD9y3tF15gIsyAhHsFAUc4Ab08MoJvLb61lMtlXNcNj2X7BxUREXnKKAAREXkCtm/axAcXLwJQHinj9bps2rQJa6HZbMX7zc8/gLBtb8S3Fs/3sL4l5bq4joPruom6D6MlWCIi8tTSJHQRkScgkwp+vTom+DuPm05z985dALZt34YxQfAxPb2JlZVVUqkUuC7WWkYroxjH4HkeqZTbrwvZkPEw5uHWvCIiIl/sFICIiDwBtx48wFobTC+3YHyPbdu3AZDLZgEoFHLMzc2Tz+UB4lkfzWaTXD4HDqxXq4yUy4kjG3q93kBg8sVi7tZNTLeL325Ty2bZvy9oQzw7O8vmzZu5d+8eAPVGg0Ih+MxRTNVrtymEhfqNXA7HdckAzbAbWCbl0vPCbmDhi1KOodvp0up2KYaT5jPtILvUyWbJpVKstIJjjo+UWVpbZ3xkhKW1VQ4dfGHg3O+fP4/J5SCVZvPOHU/i6xERkZACEBGRJ8BaSy6bY8/uXbTDi2DjBxfT7U6HbCZDvd5gZmaa1dW1gXoO3/fjQvRk8NFoNIg6YRljWFlZfeznPb+wQK/dptFsMlIsQjpNbXERG9afFPJ52vU6AF4qRXZ5iczpMzS+4iso/MiPBJ/9u/4cue/+88z9+3+P83/8YzJvv8Ps930vTr1O+mf+AeaPfRv8f/53sjMztJ9/HvNrv0Zhxw5a5TLm/DnKO3bSXF3Frq1R3rGT1soyznqV4o4dNFdXSFerWN/nP3a7fHMmQ2pqCmd+ntyOHTQyGZxr18jv2EnrhYOUfvVXyWzfQef2LfKuS3dyksLCArf/6T/FmRin983fQvfAAQo//dM0vvu7qP/F/zsr//Sf0vrhH2Zm21aqvR4A9bl5piYnAai6QVbLcYN/QkvWUvN9KpUR1mo1AJ7bf+Cx/7cREXlWGN/3VcUoIvKYXXzzNOfn59m3dw/tVpvG+trA8+lC0MGqUqmwurrG+PgYvU6Hnu9z5+49isUChXyeVqs18LpMJkOn0yWdTmGM4eNvHPuc57G4sEC3XmOl0WB8pEIqk6a2vIx1U5QqFRaXlym2WmR+4AfoHXmZ7Cc/Redrv4bcf/41sNCcn8NttUjv2kV7dhan3cJmsmAM2ekZWvNzALjtNl422J6bmqK9sEBm0yZ6d+7g5/NYa8lObqKztIhpNgDw8gWcRnDfLxbJjo3RXlkhOzZG5+5d/GLwHeXGxmiurJAfG6N95w5+uQzWkhsdpbW+jllbI7NtG61qFbO6Sm77dhrVKs7qKtlt22jV69ilJXLbt9O6GyyDMxMT+IuLmMnJoLZmcREmJyH6aQwsLARf4tQUdmEBMz0NC/MA2OkZzPw8dt8+zK5dmN/8L5i/+/fofN/3AdD6jV8n9R3fSeNv/y1mdu+hFQaYmUYTM1qhF9XwhEmsnTt3/b7/tyUi8rRTACIi8gScPP0ud+7eo9PtkMlkmRmt0PWCv6abTJZUKkWlUsFay8rKKplMhkIuS9fzWF1do9frUSwV4+xJJJvN0G632TRWZuu2bfH29YUFeoBvDJs2baJ+6xap2fvYf/7P6b17FqfVwoQXwblt22jdu4fpdLDZLFiLATJbttCZnYWNQw7DpV7ZMLAAcNpt/HDZU3bTpoHtNh8ur4r+v+0fxzSb2Hw+aDs8Pk57eTnYXqthS6XgfcOJ8dZaNlS9gIFsuUyrGk6BX1uD0dHgPIpF2vV6kExaWcaOj2OAXKFAq9lMnEY/4BgY6GgMPHgAm6aIh7gAdn4+CD6iz5D4TgDs3BxmZibxdZlw2+YgwAhf49+/j9myOfgcs7PYLVuwhQLOH/gDOH/wD2IOBcvCHB9IOeGxnHjJnV1dY8vBg4iIPO20BEtE5Ak4fvQId+4GNQ9uyiVdKkG4PAfPw6TTrK+vUy6XsdYyMlLG73WhRzwFfe/OrWQSx6ytBVkU361Q/Ev/I+0/82fI/tRPYa0lvbBAeXqa7s0btDDkd+2ic+MGAIWdO+ncuk1m104AWvfux8FHdmaGzq3bgAXfkpmeoT0/Rza84I4yGd27d7DWBlmNu3dJb9uGtZbevXtY3yczOUnv3j1SW7aCgd69e6S3bKGzvExmfByAzsoKWEtmbIzOvXvY0VEyo6N079/HAplKhU74OoD2vXtBYLR168D21t275LZtAwut1VWyxSLW2mD71q20wlqTXKEQ7N9sks3l4u1RIGIBGwZOZmoKFhYIeozZIOiYmcHOBxmPsGsAZno6eN3sbLjZxM/b2VnM5s3YMK1hDdj794Ont2wJAp37s/F/T8cY/CtXMI0m3j/5J2Atzvbt9O7exdm6lU/dvMnH02n4o3+E7i/8exrGwZx9B9vpBv+7yuXodbsYrxe/59adO39f//sUEfkoKQMiIvKE/MJ//GX279tLq9Xi/tw8mwoFuqkUmUwG22gwt77Ogf37WV5eYdOmSfxel3anx7aRPA/qdUbv3Cbz4z+B2+3SuHUL4ziYT3wlmeuX6dy7z8Bf6a3F8TxsOk1mZjOd2fvBc7a/T3LfjX/Fz4TZDRMcFbfTIbV1G2Dp3r2LzeWC14VDE6P9MuPjdMMsxqNYY8iOjtJeXe1vi84pzAzEj6tVbLkcZEOsJbNlC+1qFbO+jq1UwFqsMeRKJVpRMEcQBPiJcwPI5fO0ms2Bzw0MZEH8hYUg8Aj3sfPzONPT2IWF4PtMZDXYGGhseC4ZiPj37uFs3Zr4Fkz4n2Lwv4UJ2w5YLH4YHBnAbNsW75f87xS8hyHKC5novy9BPU7qT/8ZOsU82a/6avxWEzedIRMuY5sM61dERL4YaA6IiMgTdn92ni0z0/TSadK93kDwYa0fz/SoN1pYLN4nPsH0d38XfPd3Y9odOrdv4/3Df0x261b41G8HWYQtmzE9L34Px/NIb98O1tK7eye+0M5MT+OEhdTpTZviC9bM1BRYS3pykvTkJN27d8mGF6lut0tqyxbaDxbo3rtHOryYdrrdgc9ljBnIcFhrodUKLtKB9OgohMX0ptEIMgcEmQ6ATKmErdWCbeVyvBzK931suUynWiVbKgWfxVpsmAFqVatxdsMCdmUlfs/wxGi1WmRzOWy43CqbyQbPLy4OfgaCLEgUfHjz8zA9jZmexpvtZyv82VnAYKzFbN4cBBqzswOdyCzg378XjHWx/aCCRPDhRzUojoN39w7WgH/3Ls727Tjbt8eBlH/nTvCZAe/27eAcrKV36ybWWrxbt+Ilar1bt3B9n97/+v8m/dM/g/+t3wJ//E/Q+VN/itXDh2n94i9y8+y78e3erVvcu3WL+1evfsj/YkVEniwFICIiT0gmneHc+Q+w4YTzTK+HYwyOMWypVKiFf8X3fR9jDIV8UFNhbFA3kd22ne7dO6S2biX1l/9iEDDMzNCenQ2WQW3fhiUIPmwqhfV9TLh8Kzs9TWZqiu79+7ibNwfLpe7fJ7NpEwDd8H538QHe7Cw2k6G9uEh6YgIvlaKztER2YgIA6/ukx8awmWBBmNNuB0HD6ChOp0N3bo5UpYLTbkM+T3pkBNNq0VlbIz0yQm9ujtTMTBBkNBp0qlUy5TKduTnS09NkSiXa9++TirIKxpApFLBA+/59MjMz2PX1fgZnbY1Wo0Emn4eVlaDAPZvFLi8Hr7cWu7gYBCHhObc67Tj4MMbgzc9jpqbwgV6lQq9SiQMdA/jz80FwYQz+3BzO5s2ADYISa/Hv34+DHn92NggwrMX6FmfzluD5kHf3LnG1efT+t24F+4eT7q3v492+jbt9+/+fvf8Otyy76rPRd6648z451KkcOlU3CgjJYBuLaJA/2xcuYLAvxjLJfMZcPkT4ZAQIjI1JvnANNtGAjY0QNtiA4THQIAmJqNTqru7qrhxPDjvvFef3x5xrnX2qqyUBous81nj72X3WXnmtveuc+Vtj/MYor+FAhAjIb97EnUyxUor8xg28kyfLfQGk166TXr+OG0V4WQY/9mPwWZ8Nn/nZqM/6bNJP+iR48ncZffVXcfUP/4D19XXuvPACG5sbrE6ctyAIwl8W4gERBEH4GHLjuedIsowwSUrhcWRpibtraxyp17m6tQ3AyRPHyfOczc1tjhxZRuu8TNNxjxwxA9K7d/GWzXSwsEBy5w654xAsLhKvr+PmOW6W4S4v40L5xN5dWiLe2EClKbnnGR/F/DzJ9jbx1hbB7Czp+roRFjOzJNvbeNPTZOvrxNvbB5Z7i4uk1gfhLyyQbW7iWn9IurGBt7BA3Omg18100u2SrK/jLywQd7skxTrdLmo4NPP7/VJ8xIMB9Pv4i4tE/T6qmB4OUd0ugZ1Ga3S7XQ7jC3ESLi8TRRFjKwgA9PY2zM4SBgHjO3eoFN4Rrcvpkd2HXl/HUwp3fp5kbc2IDzuYd5aXyeyAvBAahTDQgLu8bKI2NoKV2/tfRGKclZUJg7uJdExGaZyjR8lu3dqXJrq07Zs0N6VIC6HCvhDJCtFhz9UBUuv3KfBOnya9erVcB63Lee7pM+Q//mO4V6/ivelNDC9dwQX09/xLeNWrub26imuFqgoClibTzQRBED4GiAARBEH4C3Dn1i0AdK+Hdl0GaUL9p34K5/feAd/zA3zC448xGI44srREFEWcnjNRhaIM69zcLFqb6eEoMoPoPAelyBwHF01qB7be8jLZ2ppJwVpYKCMLsTVS+wsLJPYpvzc7S7q9jT8zQ7K2ZoTL3BzZxgbZxgbuwgLpxga56+LPzJBbYaF3d/eFxe4ubprizc+TdLtkm5s4c3Mke3t4rRbO7Czx3h5ukoCjSLpdEwVRygiOooSw1vj1OulwSNTv44xG4DhmwN3vmwG41gTVKkm/TzwYEFSrxMVTfRv9CG0537ioerW0ZKIcYUikFMzMEPg+emmJOEkY3b1LdXmZKEnQm5tGrKQp+cYGleVl4jwnBypLS4xWV3GXlvC0JrL32JyWEYRFhME7coT09u0y9Sq9cwd3ZcWIkjzHPXqUzJrnAbI7d/BstTINuEePkt66ua9SAPf48QMpZOmNG+Wx0Rr3xAkjOk6cMGlXWpNev87kThTgnjpNcvUq3qlT5Xr+mTMHhIiZn5MVgkUbV4lz9izx//1mgoceQmlN/+pVwvPnCX/yJ1i/ctlUS7MsHT320f8DEQRBuA+SgiUIgvBn5Nbt29y8eJHbly6ZFJ4PfhD91rfC6z+N5ue+AeeX/it6e7scpF6+crXM179w6xYXbt0itP0v1q142N7eLc3F8flXlE/Vs7V1vKUlcschW1vDmZ8n3thA55pcKeKNDfzZWVytSba28GdM9AKt8QphYZ9mpxsbOHNzZK5rIhnW85FtbpJ7HunuLv7UFLnnEe/u4tu0pLjTwSsaImqN12qR9nokthSuBhzrA0EpnBmbulWtklcqJP0+6dYW7uxcOZB3Z2aIBwN0vY5uNIiHI+LhEN/24Eg2N40I2dzEn5/Hn58nWlsjiSKCIIC9PaL1dRPlWF0lWFgg8DzGa2vESULgmedrUZriO/ZPXZ6Tra/jLCwQ2WmAKM+p2Kf8if3MTMoVuEeM/yW7e/dAmpNjIymu/ZlZb0eBa6uEeXawnt68WX6mWu+LjmK95Pp1vOPH9+/xiRPG23HiRFkWWWOiH0op3BMn0Bq8U6fN8U6dohAkk9GQIgDjnT6NArwzZ8qojX/mTHlNZWECIL50CS/LcMZjhn/lk0m/9B/Sf80nEX/tPyNPUtYuX2J1dZX127dYv30LQRCEPytSBUsQBOGj5OaVKwD41SqDzh7u3/m7uAsLqGvXUErh2KJExksAH/jpn2U4GJJkGa1mg6mpKTMoLbqKj0asJSnLR5YIfJ9ut2f8IV/4+ag4MmVaza7w5+bItrbIi5Mp/AH2rW8FQL69jTM7S7Kzc6AqlFIKJ8/JlcJtt9G7u2TFwLzobQHoXKNdx5itlcJrNkl6PZwkwZ2ZIe31DqQRTXZwV0mCDgKTvhTHZeUsr1YjGQ7xazUUEI9G5nijEXm1ul8Zqt+Heh2/UiGObP+TXg+aTbRSBL5PkiTkWhMEAUmSGC+K7xMnCfn2Nu7c3MHzw0QSAtdFAeP1ddT8/AHzuP24CIDY3gtfa0Zra3hHjrwo2jH53rPRj+TWLXO/7PvyviqFzjWZHah7x4+bwb6z//xPKUVy44aJYliPR1n9aqKSWXrtGihVpl9NVt4CSK5eRSmFf/o08ZUrRmBMLJ/cJrl8Gf/cOSYWlMvvVyXt4DQoDfn//S2kDz1MZosTnH38cQRBED4aJAIiCILwUfD8c88ximPCahW0pvZDP0wQRYT9PoF9Qu/OzeM4Dv7CAq7rMD83x/lHHwbAsQPOVhxTG42ojUYMKhWWjyyBhi3rDdGA32qh7eDTnZkpzdHu7KyJdiiFC3jT0/jT07jFk/mJtCEAleemEhWgsgxnaspWjdpDTU/jt9t4rRZulpmUqjzHRRM0mnjNJipNjYBoNMqn8G6jgZOm+I0GThwbYVKrlSLGq9VK87ZrGxVmu7v41SqZNYx7lUrpaQgqFSM8+n28mRkYDEi2t/GDwIgPDZ7vo/f2zLaeh+p0SDY38T0PbG8R33VN9aidHQLXJd/axlcK31bBwgoKrTWBNaFn6+t4WuNpTb62Dtr4aNLVVWPot59HcucOThzjrqyQ3rljyhLb+53cvl0a172jR0lv395/3bpFcvNmWQXLPXaM9NYt0lu3QJuoSHrjBvH16xMVra6T3rhhjnv9ujnG9esk166V9yy5do3k2jXiq1dNhOrKFZKrV/FPnybPc2IrlJMrV1AoksuXUUB6+TLxpUvl9yx+4QXiF14guXTJHOeFF8qf8QsvED//PPHzzwMQX7xYvo+fMz/H//jLyf/e36Omc8hzVi9fZlUqawmC8FEgAkQQBOHDcOPqVa5eu0bLdWlVq/CHf0j6mtfAO96BOz1NsrlpBoY7O6Sbm6iZGfT2Ns7M7L5pOEnQWtPtdlFZVr4agwE3b5on4/Pzc+X6d37u540pXGvSnR08pUh3dkz1pZ0d1NQUamrKDMr39nCmp0l3d41xXSnS3V0cIHccM2hvt42hudPB1drWntXke3ukvR5qasr4N9ptnHabpNdFdzo47TZZv28a5LXbpP0+utMx6VqDAcpxyIOAbDTCtZGMZDjErVbJg4B0NMKJY/IwLNN8kvGYLIrwwtCU8R2PTfSmXt8XUI3GfmSl1TTN9pQisU/a/bk50/3crpOkKfHWFmpmBjUzw2h9nXB+jkTr/UaKNooQLiyQAJWFBSoLC6RKMV5fJ1yYZ7S+BkBlcZHxxgbO8jJ+moLWZEGAlyQmPcoKEX9uDu/oUZJbt3BtY0QwQqTwfXhHj5LevIlvU6nyPMc7dhzQ+MeP4504YXp/AH6RVnX8uEnJsu+11vinTuGfOgVAcOq0mXfapF8V08mVKwRnzpSpVcHZs8SXL02Y2zXB2XNEL7xgChvYCIh/7pwRIXZfWmv8hx560b+F8OGHzX4feZjgkUdw85xKs8no0z+D7LM+i15nj15nj0vvex93P/TUX+SfnSAI/5sjKViCIAgvwe3bt/H6ffbsAK753vfi/PAPmYUbm6jpacD0oXDsdG5LwRbL3vXWf0kcx0xNtdFa02w0mLLpRb1areyEvre3R7VaxXEcPNdl+W9/rvFWKAXtNrrTQdmfAKrVIrciATBlau38Yl2AvFgfoNky597rmvW0hl4P1WrtX7TW6F4f0KhmC93rouw5als2WDUadh1Qzf0O76rZJO92odEw0YjinJpN8m4Pt22Ok9pzAlPi152aIk0SEwWZniYroh1TUyR7ewfSvMBEfpIsI9/bI5iZId420aNgdpZEa/LtbcK5OWKtybe2COfnUUC0uUlgU7TizU1C640Zb2xQWVhgbP044fw80eYmWmsqCwsoFKMN4xepLiww3twErQltE8Noc7PsoTLe3DyQGqeKNCyt8a2vo6hwtX/LzdrhqVNENp2vSLvyT54kuX79wD7Nfs0M/7QxnhcRKnVPal6BESOXD6RWmfXLb8cB1MT+ip+T51p57DGi557b30Br+PRPM5/vN38LWRwDMHX8GMvHTyAIgjCJREAEQRDuw92LF/E8D6amaP7W/6L9bW9Bf/M3k925C5tbpElCtmlSe4pB2nhrC+U4Rozo/cZ5SinmZmdpt1o4jsP10ZjrozHb2zsTg8B9sjwny3MTdchzsr29fWHRbJJpjbYRi3Rvz4gPOz/tdFCtlhnka00OxjfSbEK/R9brkllxkPX7xl/R7YLWpL2eiXI06qRAOuhDo0EyGJAOh6h6g9x1yUYjVKNO7nvlQDkr+pA0GuRRRGarYekwJItiE4GJItPzBNCVCo5tPpjGsUmtstPaNhlM0xSvEFjNJt70tImiZBmevc9pnuNMT5tttUZb70tixYc7ZyIh481NnIUFUsch3tw0+3ccxlaIpDaFK5ybM13Fl5epLiyQej6p75ViJfF9vJUVYwgPArIwJJybI69UGG9uUpmfx7dm8mJaaxPtSKz48G01K//4cfzjxwlOniQ4eZLImsf9kydNL5STJuJRREAAgtOnCU6fRuea4MwZIz6gjIYEZ87gnz1LYF9gxEchIPxz54wB/exZwoceQmvKSEjw0EMENvJR+EO01gQPP0ye5/gPP2zu0aOPmvmPPELw6KOgIXjsMfTvvgP9u++g8aY3Ef78z+NMtYm05vqN61y/cf0v9O9REIT/vRABIgiCcA9Xr1xBuy7jaMxgMMD7vM+HvQ7u+fO4YYhqNo1heHbGDNzj2DwRn5mBVgud5+huF9VsEQQ+vu/j+WaA3e31iKKIuflZoijCvW26Zee5Ljuiu45jBu+9Hm67jdNqoXu90lTutVr7ZV9bLfPUu6guZcvbakxpYNf6NxgMUI0GbqOBW6/vP4G3AkJrjVuv42BLutbruHa5V63amu0at1LBzXOwVbyKn06WoW2/DidNcdIUZYWEF/ioRh3goLlZa5xWCzeKyvNwRiM8z8O1wkNhOqorm1rmT09Dp0O6t2fOqdsl39sz8+2+/ZkZY7p3HDz2oxBulhUNNghmZw+Y71PrDwFIVldJVleNyFi9S3r3LkopKvPzxogeRYS2e3xy61bp3yivqbg3WuMMBma/NkpU+EW01sQ3bpiSxdevE9sox2RPkOja1QPfS6010ZUrFF3Vo8uXy5Sp4l5Fly+bbS+9ANpEmKJLl0rPSvTCC+aYly6VR4teeMGcj/V7TEY+jCHd3Kf44kWzv+eeQylF9OyzNtqi7bRGoRlduIC+fh3/l/4r7jgi16bZ4s2bN17qn5wgCB9niAARBEG4hyRJcLRGKccYoIOAvN0iv3KFLIpId3ZwZ6ah10PnmuSxJ6xhWpelVlWzie6bMrXnHz5HnuUMBgPaNt3pzu27HDmyTH7MNKs7cmQJrTX1eo00y8xgtEjF0Zosy8z8IhWqXifr9WAwKM3JXrNJluekvd4B4zhApq3A0ZrTzz9Phk3TGQ6hViMdDMgGAzN/MDDHVIpsNCIbjcAeIxuPyRyHzHFwfN9EP1yX3L4YjaBaNe+TBMfz0MNh2esjTxKceh3P89CDIXmakoch+WCA4zg4jQZZlpFlGa7jmKpb9h4oK+4KT0tm5xWDZVdrnKkpMsDL8wOdzd25OZKdHbJNk2aVufvRm0IQuEtLZL6PAipzc0bgLS/jHTnCeHOzjHDkYUheqZRpV9HWlhFKx44x3tpCa004O0tWq5HVaoSzs8Tb2/jHjpXRD6AUTf6JEwQnT+43G7QRj+DUKeJ7GgxORtyCM2cIbKWr+MoVcq0JbdQDjREhSpl594ik8Nw5s5LeL8MbPPxwuXx88SKgje8DfSClq2IjICjF+NlnTaraY48RPvYYZRfF7R2CJ5+EJEFluTHdZzmCIAggAkQQBOFFZGlKqjWOo3AcxWAwIMNBnT1TGrjVYEiUJESf838Qrt7ez8EfDIwo0BpsBOCZ58yT5VqtxrVr11laXmJpeYlca7yr1w8cuxjoOc0mSZKQdTqknU45SNTDYVmatYwm1GomnWo0wqmbSIO2aVy5FRMAuT2vq8eOGcFSrZbHVUrhKgevWiVXClVEJewxMiAfj1EonCAw+0sSsKV20Ro3z8lsiWG36GOSJGSeZ6JE9vqyNCVL0/Jxv1tUsApDE6AoyvTa88ry3Hhh7k0ps/jtNrlSpsSw3SbpdAimpoxYsh4RZ3YWd34ed37eeig0wcwMqeuaaIk1uRefZW6N8k4UEc7O4q+skNlzBMjttfvHjhlfyc2bBMeOEW1vo+t1FJDcvImu1wltxKUgPHkSWi3ia9dMtSusiLSiJLapVVrrMhUrPH2a0AqOYk+RNZ4XQqQQFOG5c0ZkFMJDKcJz56ice6g8/yJyU7Hm8uKlMYbz8OFHMG0Kofroo1QeeQQNjJ59tty+8uij7KMIz5+n8vjjVCshudZsv+1tRr7kGVprrt0T1REE4eMTESCCIAj3EAaBKVs6jkjihHqthvPQObJnLqCWlokcB12tErRaBL/xP/YHeXlu+lrYadg37RZjz7m5WW5c309F2Z2fI7xyrUy/KimedAOu9Up4zSZUKqS2PK5re1sUg85iOwA1HuNYAeTW6wdK5Rb9KSh8GnmOE4amXCyY8rl2P24Y4gJOGOKEIUrvn6eT5xQ9I9yJi1RFDw+l8PIc1zYF9PK8LEcMoOxx8ixDVatlxEc5jnmQPnFP9GCAY++n7vdtSphJMyuf4ne65f0ASK23RQFumhqRYxtEOklCvrVF7nk4SWLSkvb2cK1QyoMAJ4pIV1fJg4Boe5vENiNMJpoOKqWM6Czuv01Di2/cMPMxwgQgskLD6fUYX7tmrl1r/Pn5cvCf7O4e6IoOEF27eiD9ajLlazJlC2B86RLx5cv7aVeYxoIKGD//vBEDEylbk/aj8fPPH0iPiy5eJLr4HAoYPfdcGVEqxW/5nSumNaNnnkFrTf/aNcY3bjDze79H/85dRlHMeDwmvfd7LgjCxyUiQARBEO4hzTIS1yXVmiBNyXZ34Uu+BPXHf4x63euohhXUeFw2BZwcyDnjcbkfnZvUk2K4p7Wm0Whw6tRJHKVwlGJ2fYNbrSbq2YtkWX6g2pBTr+MFwf6AnglBA+RhWIoRz/NIs8x4NjzvYOO4iafbRBHaRjCUUia9bDwuBU8+Gu0Lk4l7UlxjIRIc3zfXEMcmFatYz3XLBnqO65ZNGV3X24/uOA5OmpbTbpqWfTeKY3tKwXhsxILer8JURDiywcCkXFlB42lj5td5jpNlZh/Nppm2qVyFCCmutRRM9rzchQXi3d3yWPHOjvH1WMEWWm8JcECEADhDIzao1Qjn59FAXqvtC4ZGAzAiJC+iN3Zfka2+pTGVsEpBOfmyn31shUvxyrU2vg+7PDx3jlzn5BNCMTx3rvR1jF94AbBiA8jLdCvue7zi+6bzg+lahTgcXrgAhe9Da1AwuvAM6tWvRr361Wx+53fSnpqiDjQ9n9CRYYcgCCJABEEQXsRgcxOV51x47jn+5Nln2RoN2U1Nek725jeTveP30J/zOWjHwYsi3CgiDwPyPCcPwzKFx7FP08un0+OxSe2ZeG0uzDM/N3vPGej9AT+ggwCnXi+FiFuvk/X7OLYTOFqjbdQGIPf9shyr5/sQxxORmIlyqveU38onhIv2fXPecUzueaaqVRyb+eVZmjM1g1G1H1kplttBr0oTs6ZSpfAozq8oGVs8UZ8sW6scp3yvHAcmhFKxDkA+HJbr54UgaTRI+33jzWg298WGUqYLvOvit1ooFLnvE7TbqOKeFOemFLFtdAigZ+egVi+vs0yD2tkh2tm1qXGmFG95jcU9sfsIT5ww1a60RpUZbvtCaGxTr7wf/ndEdto5doIkTkuPiNrZ2U+rmp7av38AW1tUzj1krmtj0wiMF14gWVszxQusgFCFCLLvu2F44HMbX7xI9dFH0cDw2WdBwfi556g+9lhx0mUApHq+6ICuSJVDphy83V2S7/1eqisr0KijfY9OEqM03LSRIEEQPn4RASIIgnAPr/7UTwXg2Mw0Z44dJahUqNTrRKMR6XiMjmPG3/zNuN/2FlLXJQ4CNAo3TY0oCALzdNr3WVgw5VuVUlRsZ/By5AY0G3VW19bR5x+1qTXWNF5UTZowok9OezaK4dZqZlBvU2Dy4RAn3R+swv7g3vW8/a7q1r+gbRqVk2YHPB9gohOTA22UQqUpeZKg0tQO1k0FrCLOo/PcmNELc7dNv9Jam2l7DdrzjGDLc7DnVUQlcmsEnzyXMmJhhUaxf6daNUKlmLbpUApw2u3y2p32FLnn4TUapmxvcY//6qeSb2+T9nrlcUpxZMVMcez0ymUY9FFK4a+smGWOQ3j06L74UhPnOvEZFPvRf//LCP75dwCQx6axYZF+N2kST7/uawimp41n5tYNvL5JLwumpsiBcHqa8aVLRDu7hHa9IiKy75+BcGoKAH9piaTToWqN5nm3S7a6apa128zYZpGj554zlcSK3jAaM10IF6UIin4yaLxGg/jGdTLAQeO9+Vvw3vwtdP7tj1D3fRqVCo7j4voBvucx7nUZRPtRQkEQPj4RASIIgnAfnrdpKY4y5Vxdx8FRCtdxUGlKMBigz5+HX/5vqNe9DvXqVwMmiqC1xrVP+nd2d9HA5StXqVuD+IGn/xqWFhfZ2txmfr6IhCjGVhjknseo1y8FSGY9BihlIhYTOJUqno3A5K6776GwHdGLSILW2nRjVwodx7hhiMYOMCdEgpqIiDg2qpJPpNBo1yXTGhzH9AfRphJVeY2ZMR6nQG6n8yJyMeljKEzfWhuzOcZo7jgOOgj2xUmlYgMUynhGbIRGFf6VKIJv+VbwPGOYHwzQnocej8tgT15U9Op0jMB49zvKqAcYQaEmrtFfXNxPPZsQJsnqKmiN/2mfVa4bTk8bAWTFiNPvl2IJK3CcX/iPOD/+I2adwDN9Y+xnApQpX5P7LO8REO/tmfPXmoqteBXt7JDbqEu8u0u2sWHu2fw80e7uftqU1qRra1TKLuc21czuk4m5SbdLeucOoEkmiyBoTdztkNy8SfX8eZJeD60UfrPJwPNwXv9pDD7nc1Cu+fz3hoP9a3PNfX304UcQBOHjGxEggiAI9yH4vM8j6fW5cv06eZ7z3Pvej6Ng7epV1nd22BqPGNcb7GhN9B3fAW/5VtJf+zX01BR63pRnzbrdctCmlOLylauMI9MXYa/TYa/T4c7duwDMz8+ysbFJv9tHa83eb/yW6a2R59RrVZw8J3cc/MlUGStSUIr00z+9HNgnNlXLA1MO13HQcUzuOEYAxDHaMR0/yrSeiUHvZA+IMpJip4sBuFKKPE2N5wMgz0vPR55lZMW+MFWuPMdBaSjiKQfShrQuvR0aZUSMva74u/+12Y/jkHznv0Q7bikQtGunXbec7/zoD5uIjuOg6nUjpGy6kZo4pzI1ygpMxwrMYn4eVFC2gpYajVBK4dnO50opk7KlFOk7n0QNhyZdyw7klVIER4+W0Yjg6FHTO0Ypohs30M2mERr2Hhd9TsCICW19KJPRGNpts36e48zMmPWsCNFonPl5gqkpKufO4VhT+/iFF6g+/DDB1FR57fHeHtn6uhHJS4v4tt+Kt7SEttGO6iOPkBcFBpSi9uijBDZdbTKqlt68Sea6JEmK+rVfw/s3/z+SVpuZ9hQ6y8s0vj9+73v50FNPEWU5rX/0xo/yX6AgCP87o/I81x95NUEQhI8v3uU4TDcabLVa9L/tW3Ha02S1GsutFkGjThBWyHROPB6TJylL09No1w7w7T6CRpP3fvAZTh9dYZzlXLl6jenpKWMWtkKi2Wigtabf77OwME+3axoOOo7D8S/6fFK7LxfIoDRl5ygctOl5gRnQZ3a9saPwsxwXyvK3cHDQX3gmyhShe1KtypSvYpbr4ipFmqY4noeDMes7rovSmizPUY6LizbdyW1aVG73U5x/cS0pEylixXEmvBCl+fkeDwUT91cBKknIrS9FRRHaprmp8diUyf1n34D6vn+JrlbJ0xQ3SUyn9b7p8g6YJo825Sjf2zOd7Ce4N1LDPedbkK6t4S4t4QyHxJ0O/pEj5jjNphEPvR4UQuTmTYLpaSOOlEJ3OsR7e4QnT6L39oh2d6mePn2wEEDhjZn02UwsG1szeuXcOcaXLlG1kY7RCy9QOXeOkTWg1x55hGx9HXdh0ZjGn3+e6sOPMH7+ItVHHiFdXSXudKg98ijZ2iru8pHycvM7d1ArK6SOw/q/+TccWV4y35ssR2cZ2PRDx3XI85w0Tkg6e+hKldl/8A+488wzvFIqYQnCxz0SAREEQbgPi60WGo179y5HvuXNLH7f9zHzNV9zYJ00tsb0NOW5O3e4fulS2YctB8b9Hg+fXOGFazcOjFV9z2dra5utrW06nS5A6RXJ83x/XTvhTTwNd4qBuc7NgF5rUq1NKpT9Wcn3B+vFU3gvCMo0HhUE+JUKyvdxggDfGtg1xrReRDU8zzNpWFqjs4zMPrHP09Q0AXQc289D4bkuOs9I8xzPlgfO8hzXcYxw0RoHcCdSmYrrAlvG116PthERFxtBybIytSt7xWvwiopZ2EF5mpXpZcoWC9CVCk6SoH7we6FaxRmP8TSoeh1nOEQp6++w+3Bs1Eg5Dkz0IWE0wlGKfGcHNRqR7eyYbYZD1GBg0sC0Rg2HaMwf1bjb3Rd0jQbKdrFXrZZpXtntEh4/bu5513z+qt0mnJ4munEDZSMio6tXS89PdO1amVKX7+wwKrqgb28zvnzZNE88e9Z4RDY3qZ47R7q+wfD556meO4dSinB6mvojj5go2V6H8Qsv7BcuWF+j+ojp+6GUsoMDc+z+xYskec7aj/4oW297G9nbfpHg7W9n5ciR/UpnrkOWJGj7fbh+y1QJS7SGXp/RK14BwNHSsC4IwsczEgERBEG4D78/4QOYqtfZHgyYq9dZH41pv+ud1JtNoigijSKyNKUbxzx04ji/9qu/xhv+zt8GIIpjcq3R2mWc5Vy+cpWZ6Sl2dnaZmZ1hZ3sHgNNnTtHr9lhaWqTT6ZqUJdfl6Bd9PqkdeHtKlQLAdRy7X41nzzO1g/LCQ2EG/y5KmWWuHXBnOjciwK6DUkYg2O1dxyH6mq/D+eEfwPd94n/8VTg//u/wgv3qV2mSmOpaQJqmZSNBuI/p+t4ox8TyyT8+yYnTAAQ3rpJlJlbi2OvEnldmB+COUgem93d5sD/G5HN2lec27UxDloMVWTpNTQpX0YQQUL5PbiuHOTZSldvyyk61anw4gFutktppz3aTB1MYACAdDPCs7yfp9w9ce2E8D9ttkm7XVKgC4k6nXO9yvc7ZwcCY3m2qVLy7SzA9jTMzw+jKldJkPt7dpTIzYypp7ewYMbO7W/4EDkwXaVnx3p4p/1ssU4pwqo2jYeB5RL/yy8w0jQk9S2LTvFI5ZYGCsn+Nzkm6PXZGI7TWRFlGvLvL/Ld9G9mlS6jhkJUnnuD2009LBEQQBImACIIg3I+FVou2TdEJlpfLxndBnjH8a3+Nu5/3eWz+wA/wJ08+CcD1J5/k2vs/wCc8etBgu2G7cL/wwiVc1+XW7TvMzEwfEB8viU098srBPfjFwLkwcVvx4FkfQ5HyBJDV6yYioxSD7/7XoCD67u8toyme65LbFC3PcUxnc6UIf+zf2uM7BD/zkxPDekiKkr42kjGZEpSmKfE/fytKKbIsY+wZ43qW5+S2R0lq07XACKA8z0139etXcK5eNudbPFUHtE0Ty7W2AsLOd8uYCbnrkBdVuO6puqUw4iO3QkKnRtxobCd3TLSkiAzRbJJHkZnW2vhl7P5yvd//YtKUXXS9L6JfNBr73ppm00SWinmYssClB8Wul3Q6AATtNpWTJ6mcOMljvk944qQxfu/t4UxNmQLNWpuGioA7O2ciFkrhzM5a8TGDMzdX3p9aaTqf/Gop0/RQQ/2RRxju7RG/61347/598l//dZJ3vIPm77+LuZkZHN/D9X02en3bDyTfr2BmiTe3AFiYalMbDln80IdY+O3fRj/1FK4VacV9FwRBkAiIIAjCfSg8ILWlJbSCu5cu067X6Q4GZYrVwqOPcvvECbh5i+rXfDXDsMKlvT1mnnuWpS/8QpaPHmVta4udvSHjKKJSqbC3t8eZ06cPHKtWr7K3u8fKyhF2d/fwfR/XdTliVU9WeBI+4zMACPKc5ORp/BvXADvQ5eDgbtKdUMxPRiOCapV4NDro75j4/6TYQCn4wi/B/9VfJolitOfiK4ckiXEcB8/ziOMYx3VxHYckTVFFylVRZavc1cTT8nv9JpinYYVHxNOazIoNJ8vKsr5umpG5jp1OyYryvcWu4hhdmPTH49IPwmiErlZNieQ0RdXr6ChCx7HxYESRER2tFiqKyMZj3Kkp9HhMPhrhzswcLJG7vY03Zwb+6eYmnm08mG1u4i0smGpTGxt4jQbU6+baez2cwu/R65XG+LzTMULERkB0t4tjox1gq3XZKEduRQhAvruLOzPD6No1qqdPk23vEO/tUj1zhnxnh3h3l+rZs2ityba3ceYXzPfWcwl+5VfM98qmneWjEe5EX5AsinBdF1wX5TqQ5ygNcb+PE/go10PZqNfWtWuoaoWm47Kb5xz5xjfR/9w3EL/lLaSYNDoNHHniCQCuPP00r5MIiCB83CMCRBAE4T48PzVFnOfUlpYYrK3R6fcPDPAXH3mEuxcvUiTuLH/iJ7J78yaDnV0cz8X/lV/m2tNPcyQIGZw4w3gcUa1WWVpcMJECG3kIgoDIVsY6dnSlFCB1z2U07LF0/DgA4UTJ3V6R9uPuRwS2d/dY+vzPB0zqEkqRxDGu6+K4Lok9nuO6RMdP4l+7Qnr2YZxrl3DSbD9yEMfg+2gUTmIN7EFgStza7XPXRcdGhGjPQ0cRjuuC55GNx+b4vk8eRWa62N76UPLxGBWGZbrYZNqW1hqSBFVsoxTKdmtXjmPSo+x8JwiMiLDHozDc+z4kiRFmQVDuDyijGzqOjXcjDM00oMLQHMdOg0m9ckIjZLKxKeHrVqtko4np4RC3Wj3w/ciGQ7x6nbTfNx6ZWs2kYWGiIQBpv49rBUrS65mGiZa42yUo0rK63VJkhSdOEF2/jtdqkVj/iAbjRSnuYRBQqVbJf+u3ANjodDhydAWd5eRxbDSfjU4B6CzbLz3sOCbUZstI45o0vkkBstXtmZTA0RgnTaj9o38EVni1KiG77/kDXCj/bWjgyOOPc/eZZxiBCBBBEPA+8iqCIAgff2ity7SePdtRe6rRYK/fp1Wv4xXeDMwAqzEY0pyb57kdk2Mf/eMvZ2VtjaUnnkD/zH/kwgumQhEKojgiDPbL6U5PT7O9Y1Ky8okUH4CNq1cAuHHhWeZWjrDy+BP8tx/6Ic7G1jT9t/4uD8+2ydKMOz/7s/SsV2F6YYH6cEDeaFBpT8HzzxN/9Veb3P4//kP86RmCq5fJgNHWFrXFRUAx2NmhvmiqIw27XSqzs6aka69HdW6OTGvSNMUPApNOlabkoxHB1BRZlpFHEV6rZVJ0ogi/1TIpV3GMG5hu8djBfWrTyAp/C1hPR9HLJM9NtAJTcljVaqUnRFWrJnoSRVCtmntmhU0hRpwwNMLKpo1p3zfrA6rRQPf7Rjy12+TdLkSR6YmSJGZ+GBqRFUcHBJOqVlH2PlOr4QHpaIQ7O4saDqFWx6k3SLc28ReXSDc3yEYj/EaDdDg04qRWM2JsOMRbWibAeEb85WV0t0v16DGi1bt4tRqVo8dI7t4x17i7g3JdssGASquF9yd/Yu6lFaWjNKVaqbCz12G6WkUBbaVM00PHwQkCkt1d4rBCrVopRUg2HJbelbEVVxXfZzgccufGTU4tzEMYluKj8ewFnK/7/zK0qWOtmRk6H/wge5iox8zjj7P+zDOlKLvzzDOAiA9BEAwiQARBEO7DRq9H25bIbdfrdAYDtDaSpHHkCHeef/5gPrtS5GiCLIUsRa2toYFWltOxg+aTJ44zjsaTXmTAih1rvJ6bn6Pb6TLK9zta37jwbLnupPj43UuXef1P/wT/7RWfwOd8xmfSG4/pDoecOHmSC+97H6/5pNeggpBoNGI0PUXrd34HgCYQVkLyOMEJfKpgKj/V6lSB6FWvpPLUh6h39hj+9U/Frdepzcygh0PcSgXleejhEKdWM93VwxBGI2NQDgIYj3EqFdMRfjzGr1Sg0SAfj3GrVeOtKNYB9GiEY5sM6tG4LMPrVavo8dj0vqjVYDw2/UYqFXJrdnYqFUhTKxhMpEIPBmUEg6IxoJ02A26F7vdN348whCgywsc2kSx6nZiPdd+rUfY8GY1MJ/k4NoID0+uE3V0TRdnbQQWhiYr0e7hWCAAEi4uktmmga/eneiaS4bgu+cYG7h/8IX6jjg/EwyFBrUY+tA0UAT8ekwWhafDY66E9H5SDchRVYDQeMzPVZmevw0y7RZJmVE0AyPShuee7Pk5TguK79o53sPja1xJkGU+/972cefWrmW826Ny6RfVf/2tqheCp1UiHQ4rSBN0PfhCA2cceY/fZZ8tqbQWVSoXxWDqgC4JgEAEiCIJwHxaaTSKtuXPlCm1byWhvMEQBdy9d4shDD3HD9lUohlrXnnvuQBUmgPVrVwlzTaUS2vmKShgaT0gYMhgMGAwGzE2YhsvmhR/hHD/j699E9tM/wcYf/iF8xmfyC9/5Xfytb/rGA+IDYGQHuLsXL1I7eRIA33FYu3YVNzfCx21PMe2bYWj8znfSuWCeWDfe8x5yoFZUc0oSQlsRK09SlOfi/PVPZfdXfxUwqWLh3/ybJlJRqeC7LnGamjKw1SqprbzlV6ukmNQht1otB8VOpUKOLdWrc3RYMTczy8D3UZ4PaYITBPud4NMUp1a304lpQGhO9sC0U2+AMl6RPAhQQYiKxqbrer0O0RitHFSjYTwkRRPD4RAKo7rW6EoVRkMcz4NqlXw4xPU8aDSh18XxA5iawvuFX2A7TZlbmEf3TYUsp9k0osheazQclsJGxwkqDMmAeGcXp1oBpej3+zi2ipmjFBEKdzw2/U88j9Smb+lcE+/uQrOJjmNmptpE9lj5eGxE3D2MoohgOGScpGy9971MnzjBnT/6QxYXlni4WiX45E+GWg3nzBkyKz4cYPrUKfYuXKBSrZYREwXsPmvE8tqFC+UxKpUKw/GYlcelBK8gCAYRIIIgCPdhrddj9uxZuHyZzmCw38DP/hzcucNsrcZ2WeHngH2bk488wtWLFxmNRmxsbAC2qBUa398vaVuv16lWq2it2draYX7BCJFG4HPxp/8L59/xJMcdh5tf+7Xc+ImfhNOn+aknf5ev+IxP58kf+kFeb30D//G7/8WB8//Td72LmUqFs3/tr7/o2p770z/l2PFjzJw4QefaVRLHJen1YGGR0WjI6I5J92kcP2GudXuLWr3Oheee5fxjj9HZ2qLZnkJ5LsP+gFs/9ZOcbbXKXiHx7/0eANevXeXc6dPcuHmLc+fOodF4GBGmsxQPcFzzZ6ioabW+vs784iKb6+vMzc/jeS572zu0p4wxu7O7x5T1UADkvo/zqZ/K6Nd/nao1byvHQdun7frTPx3nXe8qP6FMw6jfpzU7a+YNrRio1cnGJrK0sbPN7NycqTLleYzHY8I8x7Wm9tT6I3IbGQmDgDu3Td+LVsN8HpVKSA7MBQGjXo84y2hPtRns7JooENDvdGi120TDIa7rkpFDFJE5pg9HPhobEQLkOi9FSBCExHF0QKBGnT3C9pS5l70etNsHvDVOpUL6W79F/trX4gPR+97L8MwZKtUq8Vu+FecVr+TUj/4oXa1ZPn4cfeECMZDNzxP2ezgf/CBD9k3ljo3YVU+eZPzccy/6jmHXmxTkd555hvn7rikIwscbIkAEQRBegnxtFaCsflVw5Nw5Vi9dIp5Y995KVI5SnHn0ETauXadvlxcLNSbCkaQp/X4fdnc5d/YM9XqtHFQOkoRqZGy87TTj+I/8CEEc43/gA3x+FPFTT/4u4doa37uwQHbrFn/19X+D9+1sceJtb+PkZ33Wx+weXH3qKRaPrpTvO1tbPH/xIq953V8x4uPObc6ePcfFZ5/l4YcfNvdt1/hZzp0+zbWbtzh65AhXLl8u702epoDmxNISAH6jQZ6YQf384iIAc/PzuJ7LsxcucPboMS5fvozneZw4dpyrN29y6sxprly6xJlz5xj+yq+ALakbW48HgB+N4Tf+J4PRaN8joTVL8/Ns2M82KjwhapupdpukPyAEfDt4H1ohEzkO2cR3YDwe4+Wasc7QuRGVSZLQ7fdoNZqMxxHJ9jbNlSOlbyWxAicbjUoR0u10CCcEaUbORFtGc7+ytBRqAONux6SeAWmvv7+tbcKY1Krk//N/oj77s3GHQ5zbt0k3NuDMGbyv/3pqH3g/FT9gZ2eH6MRx9I2b5L/xm/QaDZx+Hy5cwAE+APyNwYBEazSKaq1mIjb2eJPmdw1UqhWwZYL79r5VKxVGknolCMI9SB8QQRCE+7BsKxABxv9RzD971kYyDpa6vXLx4oty6y8/d9Gawveb5Tm2X0cURfieR61aJYoiBoP9Xgmu66A1zP6fX4MLZI6ibftXHFUOQZ7z+bu7nE5TvvIbvhknTXnPO95Jfuky7756lT/42q/l/f/1v7EzHnP53b/P03/6p/z6z/9nfuNHf4Tta9fK4+zcuMFv/vhPlu+ffs+7AaiuGMGxefVquWzz5o2XvFcXn933qBTiY5K7q6v7y+8RH5du3LzvPl3PZXB3lbNHj3HDioUTx45z/eZN8jzjyqVL5LlmZPtPgKkqNUliPSHVLMWr1RgmCVWlWNvcZH7WRJrCcL8YwJ41VAPsbpn+Lf5E9bHuzsFrSx3zDVi00ZTJyFZB785dAALXLcXM/RjZilbuPX+WkzjCcT3SrW2imzdK8aFcl/xpkyaX5xlevc7wscdIvviLUW/5NpJv+AbGjz9O9TM/k9bXfA21b/omgi/4AnOdvT5OFDFXr4O9/y4wPZH216zXeRXQGQ4ZjUYox4iNqk3j2rl4sTzHidaTtjcNLD3+OJVKpfxHsizpV4IgTCACRBAE4T5oYK8/OJBGojGm5L4dVBYVsDRw5pFHaNmn2k1bkvXMI4/sb6tzLjx3kU07YA6CgLX1dXb39jh18iT1eo31jU0TGbHRgJ3/8B9Aa1ytQZlBYobmdK1OYKsJ/dI/+xqOArNpSiPP8d/7Xo7lOdH73k//n78F/Q1vYmpjg1c//SH++p/8KUlnj8qTT3L1730xO1/493jNww/h/f1/wOBb3wLAb7ztbfzG297GKHrxYHmhXmfNppO994//iN/7jf/5onWc6Zm/yG0vydLsI6/0F2DNGsE/EnvW5/PRkEx0UweIJ+5hnGX4ulgvIrYlfVlfJ7LpWwDRH7yH8bVrDG/fIo3GeD/1Hxh94RegR0NaX/IlxF/0RUTf9300XvMa+l/4BSTf8s3o97+P4WOPmR1cvYr+7/+dHPCWl9FZhm+FWZBlJO96l/E0KUVnMKBdr5eiY1JAFxG/e/vLVI4fRwPTj5iGmzsXL6KAmUcfZTwalb1f9i6bqm/jke0grz6So0kQhI8npA+IIAjCfXiH4xwYfClMKtbehB8E9nsdwH5UpFmtsnDiJJcv7ufG7/zSr5AkKe12y1TWarXKdKGmjbY0GnU6nS7T01P0uj1G4zErX/nGch9RlrE9GnFlMMBTiqcGAy4nCQoYACEwBTwRBOwmCec9j5PVGp5SDLIULwgIUFTsk/vNLMdPE9rVKp1Tp5i7cYP1NINPez0A/gc+wOpoxHya4c7PUdnYJP6Ob+fuvzB+k943fxO7F58H4DO/+Iu5u7NNb32D177utQC89zd+k2w4wO10OfrFX3zfFKwiAvLYeTOAzpOUP32H8ZC84lWvNudRr3NjbRXP88pIUp5n5Lnm6My+4AlsWlJuIxH+hABYtybwmu8z0hrX2f8UoyhCKYf6RJrT9Nws159/nrrjMApDXM+jNTPDoNczjRA9jzRLWZie4fp/+k/oZhN3zkRCqNaoTE8ThBX82Rny7/9+kk/6JPS5c3izM+innsZ/6oPU/8t/AYynRD/0EJ3z58n/+39nfjxm67WvJXnySZYbDbb6fRYajfL7uN7vkyrFSr3Ouu1P4zgOXp4zPdEsE6Bl+4ygNVopelaMtOz+Ovb95ECg3ahTRDOK9Su1Kko5aJ0zGo7Kc7k3EljsJ52YXnr8cVZtSd5XShleQRAQASIIgnBf3mE7oe/aHiAFR86dY3D3bpmWVa1WmT9xgiv2STCYgdfZRx7l0sXnynnbb/8V4jjmoXNn2NzaptlomMpQYcjOzg6zszPs7nU4fuwoSimyKGJjZ5djX/3l5U6jPCtN71eGQ94/GHArTY1jQCk8rQkwAqQTJzweBqwEAYHjMk4TGmGIUsqamTX94QgHaDVNf5OpZhOlYW9gGuTFzSZqfZ3ZRoNut4eq1wkV+Mph7eQJ1NWrNJTCB3pTU6xFESe++quJ/9W/onb2LNGly+RJgqtg/sknef/P/zzOaIha3yDo9XDTFK/XA8AbDMj7ffIf+zGyJCEa9Elt6dm838eLY7Itm261uUllNMIdjmh96z+HLCPLc1Ir6Co2baoxMwN2wKs8D+U45D/0QwRf+ZUMfvM3YXqarGgKGIboMKQ2PU1umxY6vk/1C74Q/e//Pfz/f5h8aQltxWLq++j5eZIgQDebtJaWqXzFV5jz8z28uTn2ZqZZuvAsObA5PQ1/9VNY/LX/ye1Bn/Cv/TXmLl9mdX2dI7bXyVq/jzM/z+JoZEQGvKQAWZww4m/b72jxKoRy4V1q23U10LWCojDy792TtobdR6tRB82LCjCE1SrRaPSiyAgT61SqVXKtGdiUs6XHH0cpxd2nn+YVIkAEQUBM6IIgCPdlqdVifaIDddlQ7dIlWhPlTLujUVnZp1mr0bUCQaNx7HZnnniCQaVCHMcHeoBorRmPx8zOzrC9tY3jeezs7jEzPUV/XJijlSnLq0yTwlRrPKVMOVtMHu1n/esf5Mk3f6OpVstBC7NSil4c4TsOudY4StEdDmnVaigFjUbDdD23+f/dfg+lNdlgQDgYQK5N+S6g5TpsDAYsNBosXb9BfzCg2WqhNcR37nC+0aD3/d/PNIroLd9O+N3fRXTpMs1v+SY2P+MzePWTT7LzGZ8BucZ77FGq3/iNpL/z26Rv+0UAwm//Nu7+k39CRSnqUYSTpKDNdba/6IsYvP3tKA2t73orAMPveCutvV3i/pCN7/teHMDZ2SG0A9/KuXOM3vAGpr7ne9j74i+m9Qu/gFKK3Vu3qXztP6X6D/8hKgjo/1//F7V/82/Is4zB3/k7tH/nSZxajbjfpzbos/oVX079TW+i+T3fAyi6/+jLmP7Zn6Pynndx56v+CdNFFSjlGPExHrM3M03+x38CjQZKA7duwdt+kduYSFX27ndDo4FnIxMK+wd5c5N1+7kG7IsK460wkQwH2Oz3mbfipFhnutk0kY5iu6K7udb7vVAse/0+7UaddqNOp79vri/FBwfFR/uTPomxjWJUqlXjC+H+RKMR6T3fQbQm/ORPfoktBEH4eEMiIIIgCPfh4lSb9a55Ol8M6JbPnmX18uUDQqNWq9Gx08VAsVWt0rW9EQDOPPooT/3rH+T4saOMx2N2d/doNOoMJ6oqzczMsL2zS7PZYG5ulk6nSxRFHP2qfwxArjXjJGHT7vfKYMCHRiPWbElYrFAJgLpSLAGP+T5HKxV8x2EYxzRsZ+/CDO2AicSg6PW6tFutUmx0Oh2UUky12yYVp9NBo2i3muU63U6HZqsNWtPtdmm3W4wGA2LPo6kUOopMk8Vck/zjNxL8zM+QzM7ib2+jKhWS48epfuM3MvqKr0Shcb/5m9Df/wNGSJ04jnv9BvyV1xF+4zcRvfGNqM/9XACGv/h2XKVQ7Jum3U/8RHjf+wg1uG/8R+V9dX/u50xJW62N+HjdX2HqT/4YDWy1Whx72y8AEH/OG+wWZr1isL8aBCzFRb0zBQrWRyO8T/xE5myvi7VKyLIVjNFP/xThl38FvuOwPhiw3GiA1XAb/T5zNpIBVkTYMsoKQGs2rKCYazTYnJje6vdZaDbRE+vMN5ts9nqmXLDdx1SjUYrlTpluVaeQH5MpV5NRkEkx0Wo0KJRybyKdC4z4QCnGthrW5LLi38nM+fOsX7iABo488QRaw/alFxhFEa+SCIggCIgJXRAE4b6sTogPgOUzZxiurpaDrCL/fe7Y8XKbYt68bfY3iQIcR3Ht+o2ys3atXkfbYfT2zi4njh8z5XyVolmtlOsV24MZSOdaM8pzRjY68Ffe/O3A/hPuVwQBDgdD3GZMrcqBrvlhu36r/XPvdLp0Ox3atqdGUUI21xj/ijUZdzodisdXk+cJUE9Tem/5LlQY4lQqOJ5L/PZfIn7jG/G3t8v1/EuXSL7qq/AdB89xUT/4b8iaTdxqlWBjE8d14Y/+mOgLvhDV78Mv/RLqv/5X6q6D02oSui6B4xA4Dt7zz5vO4q5D9jM/y87b387O299OPDXN3fGYNZueNfOGz8XRGjfXLHY63HzD3yL+nM+d+AQV6nu+hw0rKpfiuIwwZJ/2etZHI5YqlVJ8oCHY3WN7NEKjCL78K+l89meRa5M+tdnvG9FiB/4KIzyKCMZmr2fSxKywAGMGL+7oXKOBUjDf3E+5mrzbhYCZLJRQ0LaRjO5EhGNyH51+vxQkYPwi5fb2M733CWU0GjEeDqnYQgv37hNg+8KFF0VHoonyyIIgCCJABEEQ7kP31KlygDVdN4O/YqBdRDyOPfSQ6emBSb8q0LmZ17Dds8GkZBUBZzVhgM6zlDxL0WhemKi41LX+h8lRntaQWUEQ2Z8Z0N3cRFsx4gMXouiA+BjYJ/hFY7p6tVqKkOKaijMqxEi307HiRNHZ2y9Pi9ZghYtTBArQKEfR6XTRdn/173gzOo7RcQzWFB7+x/8IlSrKcYiSBJRj0oQcBY5iMDWFPxiQTwxWHdfF9Vwc17wGc3OoSpUwzYygspXH9HC/jDGuQ3s8ph1WCPZ2Wa5UWLYGdf3t3854Zoat8QgNLGlN+tmfXVy9+Uze/GYW7AC7EJvpp30ae7/xGyxWKmyPRmaJUvTn55it1Zi1n3/3sz+Tmd9+kq3hoEyH2uj3WWyayEQhPCim63U2BwNQivmJ6EjxsW9agbDZ6xsxeG81Ka0PRFUOejrUxGqm98wBkcGLBcbkVt17Ci58OPTEC4zvY/nxx83XTN17NoIgfLwjAkQQBOE+/N0rV8qypLuDPnevXCkH8FP1erne1eeff9GgsWByfsOKmMx2kNZaE4YhynVRrnFtnHvoHDPT0+XA33EccnJyndvIhzmje0WIP9HLIlQKrxAVSqGUoh6GxodgcRznvgNPgGazSbs9ZVLJrOF6amoKpWBvUojcM5xsNpso28E7/oEfsquYaIlKU1rReN8orRRhaYbZ30+90zFeBeUYIeM4MCHiVFihsbODjsZoW+FKj8cox0HVavupU0oxjCLoGhG1U/gV7DHDnR1mq1UrJGD3V3+VaG62NFwkr3pVWXK5GPC7trs7wGy1xvZoSH92lsb2Flul+NEk/+NXyXTOvP2OzDcaLFjBsTCRHjXfaJgIyOBgdEJD6fEo2JxoNqitqNH2ejZsNGUy9WoyBWtSFBSldycpDOote76TlbEA/B/8QVN291WvOrDv8Whk0rEm5s0WpYCB1WeeYfWZZ7j7zNPcffrpA+sJgiCIABEEQXgJ9mwU5MAgzlL88jxtu393JzpE3/uoV2mN46jy4bXrGMGxurpKHEXMzswQRxFXn3+Bza0ttNbU6uaJ+tV//E8O7Kswn0d5zr0OvuCelC0Hc+KDaN/Q3p/wpoAxtk9eXK/XQylKEaInhM/UVPvAthqTotW1TfSazSZBWCH4xq83y10PPL8UbgAqsX6KIKDUC/Z84yxDB4HZcxSBrUZVNJHX0ZhxnpuNrBch1RodhmB9LVmR3lapEOa5iU4tLbE1GpXiJG9Pgd7/XOerVUKbGqa1pvMHf8DWaESe5+R5jlIQ22aD26MRKJitVWlsb4GGuVoNrTU7p0+jzp9nZzSyhQMUW4XnQhtRsdBooLUuBUYRDSnu0bwVEguNBgvN5v7ygx81ChNZKda/t1qbZl9cwMG+Hvfd38R3p1g2KUp2P/CBA+trYGS/S7OPPmbFiKJSqTB7/jxL5x/nyONPcOTxx/dL80409xQE4eMbESCCIAgfhvH8PAvnzh2Yt2eNuVprrj7/vIkW1GqlGLladImeGNT1+30uPn8J13Vpt5vEccL09DRghMjKygqnH3qIuTnToduxXpBzP/MTpbsj05qlWo00z0kmhpCDne3yWFWlcDH+j9AO4AGqtgQv2NSaiShJp99DKUW32y1TdbrdDr1u11TR6nZNtSsw64BNPDuotbrdLlE0Jv3hf2dmpAmkCbHW4PtmiyAonBZo30f7fnnuoeeh4rhcjygiHY1QlRDCsCwDSxiirKjyqzXSCVHlsR/52bEGfb/TYbZ4Wq81am+XrfGIOZuWtTUaG1Fit52rVpm1yxxHoXNN7/ZtppaXma1W2RwOjbF6OCqLAiilmLl2lZmrV5mv1dicMGmv9/uliNrs98tmfZv9F5fALecpxUavx9aEUb2gECbFvZ9vNJhu7gsV85n27ytaJkUJmLK87YmIXrFe124fv+lNAEw/+mi5fDJ2FVarDG9cL6u7lcuU4s4zT6PRHHniCTLXQ7uT9dkEQfh4RgSIIAjCS/D5V64wWFzkbqOB9n12BoMyLevedJeiKtaZhx+5b8QEQOf5vgG9VuXO3bsMRyOGoxHaPq1f39goB+TKUeiJqkHFU/KkNIZrcmCwtVmsYJ7w2+VpHL/IMgBmEDrpWWk3myb1qtViqr0f5SifhLfbLzKaw36KVqvVotvtEvyH/0QYhuiv/6f7HpMgIAgCoigyQqQwwCcxJAmq6B4ehqRphmPFA7bUsOc4ZpuiElUUoaLYRkpMVMR3XVAKp1pFa00/iuhHEXW7ztaEQCmuY65SKUvTzlZCdtZWy/W2io7e09PWw6CYrVZx9/ZMVapq1UQ57PRmmYKl2LYlaOfq+/d3YWLQ/6IUrAmhoEtZBxu2P0o+Mb1ZRlN0WVELMFEWvb/vvV7PVLjS+t5g3AGPyOT39N7vq8ZUwCoY37ixfw8n1otstMdRMLh6pex4fvcZk3a1+swF7j79NO4nvprXThQgEATh4xsRIIIgCB+GL/jQh+gkCe6xYzRsxOLF7gVrVtawcXN/oNYdjYxg0bp8QvzoIw9bH7dmbs50EDl7+rSplLSxwUIRAbE9HC78f95ojjlRuQpAaQ72WtCafEIkOEoRhOF9jb+51gcGlx2bQqWBPTtdiIsiIjJJacbvmHW73S6tVovK1/9TtNb4Ojc3xPeNCT1NCYKAUCkjOnwf5fuk1g+D7xMP7b0KAnPOcWzEh51WQFKIMVvRK0lTFBDZSEc+HjOIE+pBQD0IGMSTfer32RmPye75LKeWl8vlc9aAXki/wiuStdukVqAVpnMFzNdqaGBrOEQDO8MhxbejSKEqPpqFRqOsdgW8OLrRaLBgoxnzjQaLdvm9qVpAWaZXAzv9Pu37mNgnP7l7mw4WkY/uxHfhXoN6rVajWqsxmjT526ubeeRRNLYy1miEg4nsDK5eRQErTzxBMjvH3pmzvOKP/ghBEIQCESCCIAgfgS/40If4G5cvc/3oUXonTzKemmHq/Hn0fUb3C8ePvWjexs2bVP/uG6hUTVqPAkbjMbVqhbNnTpdKZmFujvWNjVKgoOH8f/lZimFhqjWp1sR5zsAORB1AZ6YiVK41FUwDu+Lp92SqVW80olGr0ZusbjQhWrrdbrldp9MptytSs/bzbMzPVrtVipBie4Uxi5sTTsr1i7QjggCShHg0wrdpTiQJgecSeO5+pMP3ia1AUdZkr7VGhaE5lyjCsyk9oeuap/BhSD30S1PJtGeWF+lUxblMLS+zu7q6P08p3L29UoRs3+OTma1W2RqN8LpdvG7Xtggx92BrNCJpt8p7MletMl+vs2XT9N5pTeIFhW9js983QsRuZ3p7mMjPeq9/QHAs3CNSYD+qUuxvptGgM+ED6dwjNu4XkSsM6YWh3fhGDqZjDa2oqtRqVKzQmnnkEbOdOliSepIUuHN3jfDYUV5/6QUEQRAmEQEiCILwUfJFTz2FMzsHM+bp+e1LV9BHjpoyrZix/JXn9wdbxusACydO7M+wVIuysDbCoLVmfWODzJqewQz+b/7YT4N9slwY0OMiBQvTgC62JVo9WxfXUw7zk4NuS7NapW+fZDfqddNwDkwDQkzUo20bDxbnVix/qRKqrXaLZrNZRkHAVKYqR6W+T9Rs7T+5twPdwPPQSWLSjrQmtlEM7fsmESlJCDzPVNKKojI5ScexSZ0KAuLMRlrCEMcKnEGclK/YccjabbasQd3eVJzdXeasJ6SMbkxNsbe6CoqyM7m7t1emZRXrJ7bz+/ZoVM7bW107cE+yPCd69asBeP19qmAVZvSF5n40pLi/G7axYCFaNvr9sjcM7EfGirK9k0wKgalm44C4LKYKY/m9vo+ComdIURigfs96DrBTeJzY/44rYDgekbsuI6WYevxxukcWeeL977/vcQRB+PhGBIggCMKfgb/9p3/C516+xDNKkSu4tDSPetUnEX7Jl5Ip575Vs9Zu3gTMgP7Z5y6Wg/HxeEyv1yfPTY+QLM85srwEQG9gu6sr82u69HVYETKyP3MgSxJcpdAatmzUYCeKyl/wRQnans3XL6MgdqBdpGDd6/Not9tl2VcwUZHJ98U23V6P5kRDvMx1yVzX9P9IEoLefpREW89HITiMGgnwbRQDiv7mE0dRoIKQwPYvUVqTRxGB6xClOcRRGRWp+375CvIMr9Nh3kYwtkbGNK5t+lXWbjNro1Lu3m55PnO29G9mvS9btvIVwN6aERuztgrXbLXK1JEjbI1GzNu0rO3RiCMXLx6IbhSXqpjwhGibcjUhJBYajQNpWQsTPhGNFSiTBvWJbacnttubKN17oFDAYEC7XkcpRatev28aVmtin4OJaJnWmrBaZcYa0nefew6AqfPnyZdW0O0polwTf8tbuNLp8Nef+hCCIAj3QwSIIAjCn4Mv/dCH+Iw05VVpxnw6ZuGp9/FCWGF4bD8F6+zDD3P24YfpTeTPa53juOZXb6VSOfCE+cjykjEYb24B0GoefMJdiJAozxlMmNMLEq1Zcl1yzCDdVYrt8dgM5ZUqn6T3JlNvJtizaVf30u12yn1QmMSLZbZhIdgSvoBnGw8qKzKMP+bg0XzPQxUVsOK4LLlLEpt4jx9MGNlDdBSRjMcTVbQMoevsX0gYglIMksRer7lnWuvS1zFfreLs7bE1HuF2OhTG8e3R+IBvQgGd9XWmFheZq1XZso0hZ5aX983qwyHb4xHu7i7tI0dKM/p8rVbepwNibWK6vJ/3QWE8H4VwKX0kE+vMT0RTNvt9dmw6172+pPZEf5AXHWeiCWVxza16ne6EYAIYDYeMh0Oqp04xGo3Yfu45k651/ry5DzduoEdDekuLxD/8ozR+6T/zmROmdUEQhHsRASIIgvAX4K9+8IO86qmneCZN6Y8GkKb0T51i87FHufTCC7xw5Qqe7SGhMWPqGzdulYO7wWBYlo29ffuuWc+KC9OM0Hg7dK5Jc20rX90zpIwjIq3xlGIty1DAon0aP1eplIPSdr1O0zbsa93H1Nxut8rjTtKeqIzVnjCng0nbarZa9Hq9cl5qoxxaayMyLNrzwN/v0a6TZF9kmAPbrunKpFoFRoToOCbOMnzHMWJF7ftC4jyH0IiSUbdLXqlYA3pM4nkmgjEe22jG/jXNVUz61NZoxGy1wmy1wrwVKYXA0Fqzu7ZmoiK2wpazt8f00hLboxGz1SqzFdPQ0N/bQ1P0CXmR1DjwrijFi50u1ijTrno9NPvRD3syL9pjUUlrvtlkptlk757Su3v9fukFOXAWVpwVEaeCru3Ifr8iCwDj69ep1oxgHpw8yerWFkl7itz3GVRDRoMBr/zyf8jZDz2NIAjCh0MEiCAIwseAL754kS++eJHPu3OHuakpHgtCVh9/nJ1XvpK41yOrVMpB5PHjxwiDgHEUgYL+YABopqfNQH9hYb5MdSoGqpnOWazVSPP94aEG/v4v/BKDjTVCTO8QBwiKfgsTnbwVxnSslKJZq9ErvAc2MmLWMeveG63o7HXMbmyZXz0hGoohbPMeYeIUHd+ThMiej8pS0nFkREghRGxEIxmPDwyylTIipJgTVKulUMMPyKOIZEKUKKUIgwDH+j3qQUBgxdh8tWqjHZQCI7Oias420FPsD7znrbejWL5lS+5it3Un+ooUWiOZnma+Wt2ff5/7WNyruUaDzV4PnecHGg0W04VJvVAA9/YLKYoLlPfD3Piyx8dL+XUKOhP7Rh2smKW1Ln0ik/PzMGRYqdBp1NmzJvTK9DQ7K0f4hO1tXnv3Lq+3qYaCIAgfCREggiAIH2P+xvvexye+//288amniKOI7bPncM6fpzFRYSiOY8IwpFGv0bA9I2q2o/ba2vqB/RVjxcx2JB9k+YuiII5SpBhTOnbg7bBvsu7Zgblmv7+DUupA2lUxfW8qlsaIEIBc52Xn806nY3whE+eIUnieR+66ZZpRaKt0ocF1XUyEw1bIShLSLMOrVIzoSBITBfH9CcHhk4zHplO675e9Q3zXtQNwBYFPnCQM7as47yJRLWu3i3JPzFYrOJ298voKb0jWbpf3a/LuTi8tldNzE+IEYGtozOjezk7Zbb0QHxuDQXlnJve32e8zV68fiDYU8wtFs9BosGmrYd1rNi/6gmz0emz2eqC1ScGa+Lzupd1o0K7XS5HSvadzekF3MKA7GKCt2T2ZniK33pLE89hdWKSK4jaKx559ltc/88x99iIIgvDh8T7yKoIgCMKflzc+9VQ5/Su/9ptlxasgCIjjmKH1FlRtig8c7L1hBu4T6TcKBkV52mJmlpFoTdFn2vW8sofGjK2G5TkOruOUUYtmUQGr3S4FxWQTwntpTbXpWhHSarXodjqmQaHd316nUzahyzPTUDCqVAjTFJVlYEVBmqamW7ktxwvGD4I26WVFNat0PDZlepMEkuTAtNbaVMEajUwTwiBAxaY3fK3ZRI3H+EWPEYzAmGq1mFpchG7XpE9VKuXT/1JUdDplxKOIZGTtNnvr68xUQrZG43LdLVsFq/CWpHNz6Fu32B4OSzP6h0UptmzK1GQUpKgSxj3zlVIsNJul+CiWq5eISBW06w2TsjaxTGGN5o6D0tqIujQFrcmmpnFGQ+489BDTvT5hZ5dnl5ZY8H204/L6D5nv8ys/8hUKgiC8JCJABEEQXkY+4fxjxGlKbruip1lGp9MpfRa1WpU0zcjvMZmnWY7nOmVvjEGe03Ac8jhh2OlQs0/eFVArSrYqRWc8pm3N2b3h0FQ+ajTo9nql4CjK5xYUT/AnB7edPWM2d5QzkVqkTcUqrWm32/RthSbH89BRRFiU1gWU50GWGrHhe1DUuvJ90tHowB8jlSR4joO2qVUAiY1M+J4HQUAyHpkMsyA4kKqFTZeKHYcgz9kpxEZR6Yt9v0nWbpepWWDFxtpaKT7malXodJiphBQJatujEbO16r5osfd979Yt05CwEJHFcfSL4xEK0718biKyUQiEybK8k53O5yfM5AvNJrk1nE8er9iuQAN7gz5TjQbaCtm9fh/tunT6fdqtFqN6HcZj1h95hFavR2VzsxQffpayPTvHFz7//IuuQRAE4S+CpGAJgiC8TCwtLpYD0rurq1y+fJl6rcbRlRWajQa1WpU8e3F1qzfW6zTDgDQrSu8qUt9nkOeMbbO/TCkzsLTbeMVQVGsc5dAdjrC9DQ+UXO10OyYColTZfBCMeCn7gNwTGel0OqAU3aIJoVJ0Ox0ajca+cCl8KBSrKHSuSdIUkhQmUrA8zwNrGNdgUrAK/4pvUqt8zzPio9jGNdPadkkvfBEAaiJNasZ6RwAyK7QKgVGIj53RiJ3R6IAYAdgeFl4RVW43W6uChtTua2s4ZDw7S9NWP1NKldWwcntv5ifM5EUvkLlGo1QNCrNOUf2qMJZv2eaE842DjQg3ej0cpQ54Q2YnBIr2fSM4LFkQ0llcJK1UaNt0qt5DD3H36FH+0dmzbJ47B8B6u82dhx4C4DVXr/CKGzd4/QvSRFAQhI89EgERBEF4mdjY2OTEyrJpqqfh7NmzDAaTJXo11UoFrTXT01PlYP6ffNmX88af+2mo1/mqW33eoXOaQGorTIUnTpDevgWtFs72NrlSJGEAWWarSkG7VjUpWEVKl03Rmmq1Dxz/XgtzIUoKEaJttMNusR8NUYp+r0e9ViMbj6EQIJ4HaUpu0628ot9HUR0rTUnSFN/3yn1lo5Hxiihl+ohYTwhJbHzwQQBxjF+pksdxGQUJbSqXnuhk7gCb9r2yqVU79ufWaMTM0hIzE9dbiJOd0Ygc2F1bY8b6U4q0q7TVYm99nblqlZlqFWd7G4DN4dB0pv8w3wFdLJ+41WWTRYpoR/OAQd2soQ8Y5cGImfV+n/mmETNrzSa+UjSmp/E7HYZTUySrq7xwdIUjwyE7SuEsLTG24uQbZsyV/w3xcQiC8DIjERBBEISXiWKguV+9SOO6Tvka2YZ3R48eObDdl3791/KeD3yA93zgA3zZ1hadM2foWQHxy7/y30jOP07v7Fn0zAz57Cz/67WvBWCjEAqOIndd9oYDIyCaTdrNJrmCxNn/M2CenJvzyxzHCACtaben6HQ6dK0Y6ZaRgolKTLmm1miaUrVhaMQPoNN0opqSiWqowDe7ThKwkQ2dpOV5OK5LlmUozzPpVEliu6bfv75THsekE8cpSBsNtsfj0qtRiItZ69tQSrG7tsb2aGRKHWNSrNJWi5lqldlKpRQfJsJirtnr9Zir1SjSsjRGfMxVq8xM+D8mz+deabc5OFjZqlzqOGjPZbOMUmluVavosAKuy3hlBR2GjJpNkiBg3kZivux1r8Xv9/kG+9mv28/+5uNPAPB/rqzgTE/zCc8/z2svXuS1Fy/yrne9i3e96133vaeCIAh/mag8zz/cwxpBEAThY8gHP/Ahnnr2IlPtNjMz04BmPI6oVqtUqxW0hkolZHNzi/n5Ofb2Ouztdfg/PvczP+K+P/P8eabSlMVcc+HIMp9z9y6ns4yoUmGm12Vndpaz2zsMk4TOzDQA7bV1pmo1xoFPtrMLQNRsMgeMHIdGmtLd2wPHIQ0CZisV9jodptptep0OTTvQ7e6ZaW1TwnSaQpYxaLVoWP9FnGV4jmt1TSEn7P99F1Jrrvc8s71nEsl0mpbRIGyUJs1T/LBSGtmLP2Su1rhWBLg2Rclh39OyMxoxbUXFznhMe2EBp9PBcUxDw+3RcKLE7n4aWtpq4XW7RnJY1bE9NpGVWWv0L05vZzQyx1QKT2vTVHAwYL7dRmUZG8MhC/YY2vNw8hyda9byDG88Zq7VQuU564MBU4uLbCQJYafDeH4egAWt8cZjNuOYwanTtKMRbzp2DFD881XTS+bTnrnwEb8vgiAIDwpJwRIEQXgZee7ylXv6Qygq1QoazXA0olox1bDm5mbLNYoGgffj//1FX1JOP1pr8os3rwFQjSP+PRDHCYzGfN/0FD/eaPDVwHKnh8pytOvQWVqkAyyOxwwWFthwXY5MeAu2sow3P/44P3HnDtpxGCpFPD8PcUyz3eau6zKb5+TuREA9SehZYdKwlZ4UENgUKcA0KExTIqUI0aZSloKhH1CN43JXOk1N9MGuDwp8Dz8F7ThmfpIQZ1nZ/ySzHgyXffGxMx4zVaRbmS585FrjdbvEc3MEOzuAiY6k09N07t5lrl5ny0Y2vG6XnfGY2WqlVDuF8ICD4mM8P091a4uleh0FZJUK20ePkmxs4Cws0BqNuJUkHB2PcfKc9ZUVmqMR88MhV+16ydGjtMZjGI9haZmx7RTfqla5lWfcXlnh2DiiHY34hIvP89sv+Q0RBEE4fEgERBAE4WXkV371N+l0u5x/7BHG4+hFyyuVkIod2DpK0en28FyXJI75q59i0mt+8b/+D+6urvLu33/ngW3f8653AKZXB8D0tIlydDtd0jQlsINY1w7Ui1//rmfEw3gc87OtBht2eRiGHN/dZeA49O0T++9ttfj2rS2+c3aWb97aYn57m1GrxWye83XHj/OWu3dZGQ5JHAd3PEYrhXJddJYxrtXwxyNSa6oe+T7t4RBvMChLxRYNFvF9xo0mcZ7R7HbQygocR+HGKaDRYYiK7D0MQ3QU4QG5baRX7fXYyjJmHWffm2EF0NZ4TPvoUXN/7t5ltlYDrdmMIhbsfTLGeXMvR4uL7EQRwfp6eV/3+n1majWcPGcjz1ksmjACVxYXAZhaX2ehUuGFuTlaGxs4c3O0RiPevbLCShSxMB7THI348uPH+c61NXrNBnOjMV2l+OynpaO4IAj/eyICRBAE4WXkF97+K4xGI84//hiDvulM7tnqTv1+n9nZWapVI0C63R6+75tKVp5HnqbcuHWb3PorJkXI53/+FwDwpq//WnKd85rXfjIAVy5dBKDTMf0jXMf26ijEhxUbrucQx0k5XylwHOPF0DonrNi+GGlKmibUG00W5mb45q0tAL5vfg6A7yiaKDaNgfo7a3Xeak3gjSiitrlJriBtNMnHY8hzYnv9ke+TOQ7tWo3bccKPLC3yg3fuHhQhjjJ2bNdld36e5vY2meOQuS6q6Lg+EZkIx2OitTWa09PoWo3+5gYzQYjKMtY9j6U4RuU5aM0LR00lqyNohlrj5znx1haNep1OnjMDuGmKY9ffPXKENaX4IStIvvu55xgsLVNJU9I44vh4zE1bdcqphLSGIz7x4sU/z9dGEAThfytEgAiCILyMvP2Xf5U0zThyZJmtrS1mpqfLMrEA9XqdPM+p12sopRgORwS+X5qxb968xYId7K+trXN3dZVXvfIVANy5Y/L/b966BcDv24jIUx94PwCZFS6uo2wWkiasVknj2PTFyFLyXFO10Y44jksB0my1zfs0pd5okqYJy0dWGI1GxOMxURwxM2vOazwaMTM7RxLHRNGY+YVF4jhiOBgyNz9PHMc0Gg0S2wU9DAJc1+XLX3gWZQXFyPVIleJHlkwk4au3t4kcl9hR/Jd2m2/f2uI7Zqb5l93efUUIQAXwbSPEi3Nz/Nvp6VJwfVmvx8O2T8k3N5v835tGSNUV+HmOn+d80ocpQfvfX/EK/l8TTSYFQRCEjx4RIIIgCC8jv/XkO7l7d5Usyzh27CjdXo92u836+jrNRoPFxUXq9RpZlhEEAcPhiDRNqYQhSWYaFPqeR892xG7aJ+xFN/M7d+4yNT3Fhz5k0nd+/13vQCmHD77/vczMzrG5sU4QBKS2o3hoxUaaJKUAaU9NE0dj4jhmanqaKIo4euw44/GY4WDAeDzm7NmzdLpdRqMRc3PzRFHEeDxifmGRaDxmanqaQa8LykEpCMMKSRIzNT1DkiQ06g2iKKJSrfBTP/YjADz0yGMH7lWWZWRZChpy69souPc9gHKUNYmrg535bGf5fKK7/O2b1z9mn6kgCILwZ0MEiCAIwsvMf37bf6PT7TBvqxrVJhrnDa2B+ty5s3S6PSphCJhohet5VMKA/nBE6Pv0ej1mZ2aIbSWobrdLo1FnfWOTLMu4cOFZgiDgd5/8nVKAAHT2dksBMjUzw2g0Ik0SZmbnGI/HnDh5isGgz2g4IoqMqADY2d7m+IlTjMcjAt+j1mgyHo9pNVtEUUQUR7TbJlLSbLZMadw8J6yEROMxP/9zP/1h78srXv1J+2+sWEiSmDzPbcTGNmK0VaNynR8w9JeVsiYo32sOrH/z+tWP8tMSBEEQPtaIABEEQXiZ+aVf/jVqtSp3764yNT1VCpDhcIhnG/QdXVmhWqsy6A9otZpkWYbjOGRZVgqQMAzQucZxnbKD+jgalwIE4NKly/zuk79Du93m6Q+ZlKH21BT9Xo8oGnP8xCniOGI0HDEcDlhcWi7Fx7ETJ4iiMePRiOnpWZIksSlUEXEcU683SOKYIAgIwoDxaEytXifwff7tD33/n+vevO6T/xpgREaSJKRpSpqm5HlOzZbX3dvbJc9yZufm2dxcL7dVwOLSMhsbE/OK8lRKlfu9dePan+vcBEEQhI8NIkAEQRAeAD/8oz9OGFZwHYdGs8HC/EK5rNVq0umYCEkQ+KytrTM/P3dAgLQbDXpPPUX9iSdwbAncPMsZR2P+4A//iJMnTwIwGAy5fPkyzz17gVOnz/D8xedYW1ul3+uxuLRcig+TYjUiiiJmZmcZjUYs2eXj8ZhWq22WzcyQxDGVSoUojqlWq3zfv/rOj/n9OfvQowwHfZTjkOeZ6QKuddlFvujRoZSamAdlLS2lUDb96/atGx/z8xMEQRD+/EgfEEEQhAfAI602l4dD8jRlMBgwrA/LZZVKyPz8POPxmJ2dHeqNOltb2ywszLO+vsGyNWbHaUbDVrVKkgSlFI6zb8IOfJ+in/ak+Dh67ASj4YCZmVmiOCaOIhaXloiiiFarRRzHxHHM7OwsruuS5zmO4/Ddb/3Wl+3+jIamQpjruug8K+crjOA4kG6l920fSlGKlUKQLB85yurd2y/buQuCIAgfHhEggiAID4C/+aVfzJ989/eiPI8gCKhU9n0g3Z4xlJ89c4btbSNAZmZnuHt3leWlRUbjCM9zadvqV5O8+z3v4YnHnyCKxoxGYy5efI52ewqlFIuLi3h+wMqRFUbjUVmJampqiiRJqIQV0izFdV2+7c3f+LLdi/txr5/jQPNGZXqkTC7ThfrQoNFGiFlR4jgTTRIFQRCEB46kYAmCIDxA/sV3fy9rG+ucOn0GgBMnTpTLFHD8xDEG/QGNep0gCEhs6VjPcxmPIzzPw/c9ut1eWWJ2e2eHNEkZDof0BwOGw6EplxvFuJ5LNI6oN+psb23zA9/7L172a/5oWDl6HIBqrcbQNipETwgRdc8GRbt1Gw1RjmuM+65HnmXcuS1pWIIgCIcFESCCIAgPmDd/+3fhOg4KxfLKkXL+0uIS01NtGvU6e50OtVqNMAzp9/t4nsdwOMT1PALfZ2dnF8/z2N7ZAYzZutfrEUcRudYM+gPe+m3f8qAu8c9MIUCmZ2bY2d4GDkZFtNb7ImQyOKIKFeKUKWm3bkjFK0EQhMOEpGAJgiA8YL7nu74dgH/29d9ItV5nqt0GYG1tDa01aZqysbnJVHuKer3G6E/+FPeVr6Db7aHRBH7A7u4ed+7codVu8c++5ise5OV8zFBKkWd5aTiHfRFyID3LKhDHcUq/SlH1qtVqvfwnLgiCIHxYJAIiCIJwyPie7/8hHMfhxnVTLvbRx87TtgPpOElwXZdut8vdO3f43r+EClSHgZVjJ0BDu92m09kDKKtd3Uvh8dBaoxwHz/NMs8NGk1Zrij/943e/jGcuCIIgfCREgAiCIAiHjpVjx0Er/MAjSVLQGseKiyiKDlT7AgjDEOU6jEcjzpx9iLXVuxxZOYbnevz2//q1B3QVgiAIwv2QFCxBEAThEKLKkrqOUji2HHCapoRhWIqQ0HaKn5qZJgjCsiHjkZVjLC0ts7W5+SAvQhAEQbgPIkAEQRCEQ4myqVUm2qGp1mq0Wm22tzaZmpou16vWawRByNLSEcJKiNbgKNPA8Oix4w/o7AVBEISXQgSIIAiCcCjxPA+s+bxWr9OemmZmZg6AeqNZrtdqtfA8H4CjK0eJopitrS2Wl4/Q7w9evGNBEAThgSICRBAEQTh0KCBNEqrVKhqo1xu0Wm3q9ToLi8vU6/Vy3UrVNHFs2+ph0zPTuK5Ls9XCD8IHcPaCIAjCh0MEiCAIgnA4UQo/CFDKIQj3hUS9XmcwGFCv10vxsby8TOD7ZbneZqtFq9UmDKIHcuqCIAjCSyMCRBAEQTiUOLaXR1Fmt1qr0Ww16XV7LC4uluvNLywQ+D7NZguUKcfrKPe++xQEQRAePCJABEEQhENH0WjQLcRHtUq1Yl4Atdp+ClatVjPLalUqYUiSJAwGI4LAP9CwUBAEQTgciAARBEEQDh9KoRzHdjV3qFSqVKtVatb7MekBqdk0rIKwUiHXUK/VieL4ZT1tQRAE4SPjPOgTEARBEIT7kec51Vodz/NMRSxLrV6n3+sBMDszQ7VWo1qrUatWqVQqgI2Y1KrMzsw8kHMXBEEQXhqJgAiCIAiHD61L0VGxaVeVSoVKWGEcjVmwHpDReGwESKVCEASEYYjreejcmNF9X/7MCYIgHDbkN7MgCIJw+FAKjREdSZLi+wF+EFCpmghHJQyZm5srV/d9nzAM8QMfT/uMhiMqYUh/MHxAFyAIgiC8FCJABEEQhEOIRqFwHYfUcQgrIUEQ4Pum4WClWsX3g3LtMNyfDoKAPMvxfJ/F+fmX/cwFQRCED494QARBEIRDh9amnG6z1cJ1XcKJPiC+7+P7Prt7u/a9R57n5XzAREI8ecYmCIJwGJHfzoIgCMKhxnVNT48gCPA8jzRNAViYiG4U6Ve+56G16aQORogIgiAIhwsRIIIgCMKhQ9n/FVEM1zWVsILApFoFQVBOw37Ew7MCRGsjXIo+IoIgCMLhQQSIIAiCcOjQ7DcjdBwHz/PwPQ/P9SCAYCLdCoxQcV0X1/PIsxwwTQwn1xEEQRAOByJABEEQhEOHER+KIAzxPP9AJMNzrdiwqVnAgWnPc9HaJwh8XFciIIIgCIcN+c0sCIIgHFpq1Wrp4/B9/4CnY29v78C6ruviTfpFJkSJIAiCcHiQCIggCIJw6DAREF2+d2zEw3VdCMD1PKam2uXywu/huS6545DbRoRKyXM2QRCEw4YIEEEQBOHQodj3gICNbvj7qVjePQZz13FwXRfHdVE6J88zlFJM7EIQBEE4JIgAEQRBEA4dWmvQEFYqpcG8wHUcXO/FHhDXcXAchzwHx8lBKRzxgAiCIBw6RIAIgiAIhxaFqYIF+1GOeqNOt9MFoN1q4fsHTeqOXS8MAvREGpcgCIJwOJBHQ4IgCMKh40D6leOWPT5c12XQH9Bqt5iemsZxXDJbdlc5TilEiuiI9AERBEE4fMhvZkEQBOHQoRwHlP0JOMpBOeZl0q1cPG//Vcw30Q8HpRT9fl9SsARBEA4hkoIlCIIgHDq+JEloJglPrW/gKCtGbFREWa/HJK7rYluHgLYVtIp26oIgCMKhQh4NCYIgCIcXpfi0qalScDhK0WzUUQq63Z5dxVS70hpA4RRCRSmRH4IgCIcQESCCIAjCoeMXfZ+fCUM+5fYtAM61WjagoRgMhgC0260yKvIpr3vNi/ahpAavIAjCoUQEiCAIgnDo0EqRo/hfrRY3Zme50u+XpXZRykY99l/v+aP34jgm+qGUKiMm66urD/hKBEEQhHsRASIIgiAcWtpTM2jg99/xuzgTla2Ucg4IEMdRZp6jUFaIJOMxcZY92AsQBEEQXoQIEEEQBOHQ4VijeRAEAHzpl70RAOUoms0Gjs7pdzrlSykHBUTvez+F80M7Dp7nP6hLEARBEF4CESCCIAjCoUMpBQryPMN1XG7eulVGO/qDAa3pKZRnCjnOzM8Tf+hp/MBnZ2XlwH6kEaEgCMLhQ8rwCoIgCIeOMKwwHo8AhUbjui5a69JY3usNaDYbAKRpQvgJT7C6ts7y0iJaa1AKDeR5/uAuQhAEQbgvEgERBEEQDiVhWCmnV1ZWTIuP3EQ0vOefx/T4sC8Fy0uL7Ac8NLVqtVxfEARBODyIABEEQRAOHUEQUKlUjLkcxe3bt9Fak2tNrVojeeghtNb0ej201qyurYOGu2traK3RuWY4HEoKliAIwiFEBIggCIJw6JibXwCgUqmiFLiOa5dotM5pNhv0+30A+v0+eZ5zd22N5cXFch9ai/gQBEE4jIgHRBAEQTh01Ko1RrV6WQVreXnJxjIU/f4AgFarBcDm1hbLS4sEfmCysbRJyQLphC4IgnAYkQiIIAiCcOjQCppWYHiej+u6pZiIkxiUIs9z+v0BszMzZoGC1dV1JlWHcuTPnCAIwmFDfjMLgiAIh45qtQpAvV7H8z1W19bwPM8Y0bVGAaPRGKVU+RNgedmkYClrTBcLiCAIwuFDBIggCIJwKGk0Gvi+aSS4Yvt7OI7D/NwcSinq9Sr1etWU67VCQ9n/UFCv1R7UqQuCIAgfBhEggiAIwqFjcXGJIAgJrQdE5zme5wGanZ1ddnZ2uXnzNko5zM3Nsba+gUKxtr5e7kMpJUZ0QRCEQ4iY0AVBEIRDh2e7nIeVCmma0ul0mJ2bxXEcKpWQWq1eNiLs9/sox6Rgaa3L5oODwUDK8AqCIBxCRIAIgiAIh45KpYJvox+zs7OEYUiapOS5xnEcJs0dWkOe5ayurRnxocx7CX4IgiAcTiQFSxAEQTh0dDodarUanueZl+uiAY0mz00aVp7n5HlOvV5jeXmRxYUFQB0wnjtK/swJgiAcNuQ3syAIgnDoWFxcJAgCAt+U4I3i2PQE0VCtVTl6dIV+v1++7t5dK8vvbm5tlVWxJAVLEATh8CECRBAEQTh0FB4QPwjY2d4mDEM8z0U5CqWUFRj7r6Wl/Q7oc3OzoKFer+F7kmksCIJw2JDfzIIgCMKhIwxDfM/j9q1bPPTwwyhMOpXv+QyHQwAajTpgxEoR8SjEiUQ+BEEQDi8SAREEQRAOHZ7n4Xoep06dwnNdcq1RjimrG8fxgXU7nc6B8rubm1topAyvIAjCYUUEiCAIgnDoKFKwHNdlc3MT13VKQ/n01LRpNmip1+ssLS6wtrZxQHAMBgMRIIIgCIcQESCCIAjCoSQMQ3zfZ2l5Cddxy/mj0ZDd3d171lYsLy1iSmAZeVKr1UjT7GU8Y0EQBOGjQTwggiAIwqHD81w8z8MpvB2OwnEdHNchiiKOHl1hMBiU64/GY44dXQFs5Su1vx9BEAThcCEREEEQBOHQ4bpGODiOg+d55FmOQpGmKVNTbYbDEfV6nXq9Tp7nRm8Y4wcA2zu7aK1Lc7ogCIJweBABIgiCIBw6HMfd94EoB8dxGA6HuK7LYDhEqf0ivHEcs7hoy/DuBz8Q6SEIgnA4EQEiCIIgHDpc18VxHFzP/AyCgFarheu4xHGMUg651uRaE4Yha2vrB0rvKgClykiKIAiCcHgQASIIgiAcWlzXZXVtjThJynkz09NUKoGJgijTD2RpceGeLU38I9f5y3i2giAIwkeDCBBBEATh0OE4Ju3q+vUbrBw5wh//4bvL+QB3V9eM50PD9vZkRSwTBynK7ypJxBIEQTh0iAARBEEQDh2O4+C5nhUiis/+m2/AdR2UUuzu7qFQdHs9ur0evu+VjQeXlhbLffT70gdEEAThMCJleAVBEIRDR1G96tTJE6ytrdNsNWk1W8RJbLwgrkOlUgFMmtb6xgbHVlZYXV3H89zSDyIeEEEQhMOHREAEQRCEQ4frOKDg1u07rKysoJRDt9fd7wuiFFprU2oXQHPQhG67pkdR9ADOXhAEQfhwqDzPJT4tCIIgPHC+7uu+DoBjx45x/NRDrG9scO7sGTzPQylFp9tjeqqN63qEYVBuNxgMUEoxMz3N6pqJgBgBYv68vfudTwLw1re+9eW+JEEQBOE+SAREEARBeOB861u+A8/zWF5eptfrlSlYynG4c+cuAO1WizhOXtTgo16v02w27tmjiYfsbG/TaJhlIkAEQRAOByJABEEQhAfKN3zDNzA91eTMmTOEYcjC4iI7OztlFayjR1ds9StNpRLet7LV/jwT9Si85/VGk9FoRJqm9Ho9fvl//PrLc1GCIAjCSyICRBAEQXignDzzMHfu3OHu3btsb2/T2dtje+MOCsjznFxrkiQpS/D2el22t7cBk341GAzKqMjy8lIpPtCa1ds30FqX3dLf867fe/kvUBAEQTiAVMESBEEQHijPPv0BZmdnSdOUwWDA6uoqJ0+eYnvjLp3OHndvXiGzdsXXf/pnobWm3W4DJv3K81zW1jZ475/8IUEYonSG53msHDtJrdEkCALaU202NzfJ0vRBXqogCIKACBBBEAThkDAYDBgOh2RZxpUrlzlx4gSPPfEqAD7w3j8iCEPe+Xu/xXg0BkyzQY0m8APiOKbZaLA36BEGAbnW7O19kGq1CsD6+jqO4xCG4QO7PkEQBMEgKViCIAjCA6XVatLv9w/MS9OME6cfAoz4OHn6HKPhkDCskWUZWZbhui6e65HnOQDbOzv0+32OnTzNY4+/gvF4zGg0IraleFutFktLSy/vxQmCIAgvQgSIIAiC8EA5d+4hHn/8cba2tl607L1/8h5Onj7HlUsXWVpeYWd7EwDf9w+sN7+wyNFjJ8r3f/ied/Hq17yOWq1Wztvb2+NVr3rVX9JVCIIgCB8tIkAEQRCEB87ykWU++ZM/meFwWKZJvfN3f4vzjxvBsLS8cmD9VnvqI+7zT//4D8rpqakpXvva1zIzM/OxO2lBEAThz4V4QARBEIQHStHz46GHTMrVhQsXOHpshTzLuX3zKp7v02w0GEcJ7alpOnu7B7Z/KTESRRGf8AmfwO3btzl27JiID0EQhEOCREAEQRCEB46jHFzXBeATP/ETefSRR5mbnQXgr37KpxCGIZXQpxIGtKemiaMxrfYUrfYUruuyvrbK9FSLV7/61YxHfV7zmtcAUK1WeeUrX8nU1BSdTueBXZ8gCIKwj0RABEEQhENDEASlEFk5epTXvu51ALziFa/gqaee4szp02xubzHoD6hUKgA4jsPM9BS+7/P444+TZRnb29u84Q1voN1uo7Umy7IHdk2CIAjCQUSACIIgCA8WrdFl90CD4zgoR/Hss8/y2GOP0ev1ePzxx3Ech1q9fsCEvre7y9z8PI7jcOvWLU6fPm324brs7O4yPTUFUJbkFQRBEB4skoIlCIIgPFCWlpdxHKcUIUopjh87BsD58+cBU0LXdV3iOMbzPBzHKV/VWpX19XW01gRB8KL9F/sdjUYv0xUJgiAIHw4RIIIgCMKDRWvyPOfatWv2rebmrVsHBEnxs1qt0O31TBNC+6pUqiwtLaGU4siRI+U+zH4nU68ORlkEQRCEB4MIEEEQBOHBYgVGkTpVsHJkhatXr967Mr7noZRiHI3LF3AgjasQLa7jltOLi0svSvUSBEEQXn5EgAiCIAgPlNXV1ReJB601q6urpSjp9XqASaOqVCpkWUa1UqVaqVIJK6ytrU3sUZVTaZqytbVV7v/GjRt/+RckCIIgfFhEgAiCIAgPHKUUeZ4D+5EMrfMyzarZbJYipN/vH0jB8jyPpaUluM921Vq13P/a2honTpy4z9EFQRCElxMRIIIgCMIDR2tdpkoVKBQ3btwo5zebTSqVCo1GoyzVC0aQoDWerYyllGJlZQWlFKPhqNz3/Y4hCIIgvPyIABEEQRAeKIWBfD/yoSkM4ydPngQ4IByUMu+LV6PRYG19HYC7d+8CcOfOnTIKUuyzXq+LB0QQBOEQIAJEEARBeODcz0CugZs3b6Jtlaxi/r1VsCa3XV5aOrDfQqR0Oh2Gw6EIEEEQhEOANCIUBEEQDg37AkGxvLxcCohut0uz2UQphe/5B7YZDAYsLS2RJAme6+6X773PviUFSxAE4cEjERBBEATh0LC8vAxQVsEqpgvG4zHVapVOpwMUvUGqrK6umjSuiX1NTiulqNfrf9mnLwiCIHwUiAARBEEQHiiTAuNe38aNmzcB0wm9Z1OvJqMhxXpLS0sHIhyTyyqVSrn/jY2Nl+WaBEEQhJdGUrAEQRCEQ8Pa2hq+X6RY6bK0LhgRAqYXCOwLl8mKWAeN7AbHMc/a+v0+aZr+pZ27IAiC8NEhERBBEAThUFEIBoDjx4+/aHm1Wj2wDsD6+nopRO41mg8GA7TWNr1LTOiCIAgPGhEggiAIwgOnEA0LCwtlQ8JJG/m9PpBJBoMBi4uLZgtrWp+MhFSr+80IX2xNFwRBEF5uRIAIgiAID5TCr3H16lUmBUIhJoDS/wEc8HTAvjgphIfWmpWjK/vzbbSkMLULgiAIDxYRIIIgCMIDpRANp06dAl5cKldrjbZ9QAr/x97eHnt7e2itaTTqrK2tlZWzlFLcuX2HhYUFk6plhcjy8rL0AREEQTgEiAldEARBeKAU1au01jiO8yKRoJSi1W7T2duj1W4zGo2YmpoC9g3pBUUZX4DNzU0AhsPhgX0JgiAIDxaJgAiCIAgPlPX19XI6SRJgPypSvLrdLq122wgIrcmyDKDs7aGUKufdWwmrVqu9bNciCIIgfGREgAiCIAgPlMXFxTIy0W63gf1IxfXr19nb2ytL8I7HY6q1Gv1+H22FSKPRKPdViI6VlRUWFhYADkRVJAVLEAThwSMpWIIgCMKh4KXSo6anp8s0rTAMgf2eIGBERVEFq9jPnTt3cF2X+fn5MhVrssmhIAiC8OCQCIggCILwQCkM5KYK1kFOnDiB1pp+r/eS2yul6PV6OI5TekmOHDmC1pqtra1yPREfgiAIhwMRIIIgCMKh4NSpk8DBSEUhKJr3RDyKEr3F8sFgcCCCcr9oymRZX0EQBOHBIQJEEARBeKAsLS192OWTjQXBVL6aNKj3+/1yWbHe7du3AZidnT2wTKIggiAIDx4RIIIgCMIDZb9BoHqRQDARC02v2y3nFZ3NCxqNBvV6/cC2KysrAGUKlggPQRCEw4MIEEEQBOGBUqRF5Xn+IqGgtWZnZxeUotvpMBqN6Pf7dDodOp0OYMr4FpWwVldXy0jH4uIiWusDhnVBEAThwSNVsARBEIQHSiEUbty4YbuhGwohMTMzU84ruqHX63WUUriuS61eY319neXl5TKd686dO3ie+RPX6XYObC8IgiA8WESACIIgCC/JhQsX0FpTrVYZjUZ4nkelUiGOYzzPI8sy8jzn4Ycf/nMfY21tjeXlZU6ePHlAIEx2MO92u2Uko2g+qLVGo2nUG2ADJ8X2KysrpYApyvDe6yURBEEQHgySgiUIgiDclwsXLpCmKevr69y4caNs/DcajQDTtdxxHDzPu28J3Y+WoqpViZ12nP0/Ua1Wi263i9aavb29cn6Wmu7n7aJLOgejHBsbG0xPT5fHEQRBEB48EgERBEEQDvCBD3yANE1xXZc0TWk2m4RhiOu65SA+CAKiKCJNU5RSOI7D5cuXyfOchx566M90vOXlZe7cuUOWZZw5cwYFZdQF9oVDu922no7mi/aR5zmu6x5Yf21tDcdx2N3d/fPeCkEQBOEvAYmACIIgCCW/93u/S5ZlJElClpnoglKKNE0BypSr4XCI53lorfF9H23/y/Ocixcv/pmOubq6ypEjRw7MK0RE8bNnGxGaNCrY29srU6wmIx6TUQ6lFHNzc8WSFy0XBEEQHgwiQARBEAQA3v/+91OpVMmyDK01URTR6/XI8xyA8XiM53llalQcx/i+T57n5FmO53p4nsd4POb555//Mx//5KmTaK3L48G+b0MpVVa96vf7TE1NlY0Fe30jTu4VFwsLCwBMTU39mc9FEARB+MtDBIggCIIAmIH92toao9GQPM9xHAff93Fdl06nQ7fbJYoioigyoiPPGY/HRFEEGEECpi+H7/v80R/90Ud13KWlJe7cuQMYEXH69OkDhnGlFI1Go5xXVLcqaNQbdG2fkEkRsrGxgVKK3d1dtJYKWIIgCIcFESCCIAgC73jHOxiPxzSbTW7duk0URYxGo1JkOI6DUookSYjjmDRNyfOMIAjI8xzf9wFKn0iWZSwsLHxU6Vhra2smBes+IiHPc3Z3d+n1ejSbTbTWVCoVOp1OmYK1vr5eLpvk3hQtSb8SBEE4HIgAEQRB+Djnne98J2makmUZN2/eZG5ujtgazJMkKSMcSiniOCbLMlzXJctykiQp06Zc1yWOY1zXRSlVzvtoPSGF9rjXx6G1LhsNFilXruvS6RoRUqvVyvXX1tbK6cXFRTY3N6UKliAIwiFDBIggCMLHOS+88DzD4ZAkSUiShBs3bgD7KUxKKTzPZTQaMhwOcV23TMPa29sjy7LSsJ7rnDRNcCZK6TqO8xFFyN27d7l69Rrw4sjFzMzMgchIu9WmXq/TarbwPI9ms0mn00EpxfLycik01tfXmZ+fZ2dnp9xW0rAEQRAePCJABEEQPo75yZ/8SdI04/bt2yRJApgBf5KmTE1NEUURq6ur3L59hyAMSxP63t4eSilqtRpKKbIsM5WyNHieT2IjKkAZEXkpEaK1LhsR3lvVqpguqmBNUoijtbX/p73/jpNsrwv8/9cJdSrHjtOTbk6oJNnla/gqa2LJuq6uiLgqSUGF7wqufl1dd3XdZdew3zUhILLAYgBEkiA/kgGBi0q6c+/M3DAzPTOdK1edfM7vj1OfT1fNDHLBO913pt9PHvOYnu7q6jpV1ZfzPu+0Tr1eB7JARllaWtLHo24vWRAhhNh/EoAIIcQBdsMNN7C4uIhhGLiuS7Vaxfd9xuMxFy9e5Pz589RqNWq1GlubW1iWSa/XI5fLMRwO9R4QVZZlWRae7xNP+kJUNuNKzeOKYRisra1d9nlV2pWm6UyPx2g0mrnN8vLyzI4S9XmAra2ty0b6CiGE2F8SgAghxAGmtpoXiwXCMGQ8HhPHMaPRiFKppJcRrq2tMR6P6XS6jMdjXNfFdV3SNCEIAjY3Nwkn/SFJkuDkcpNN6buTq0zT5J577rni40jTlAcfelD947KvDwYDncEoFos6qFHUiN5L73NhYWH2k1KBJYQQ+04CECGEOKDe//73c3FtjV6vh2lmDeTlchnXdYmiSI/VVZaXlxiNRtTqNUzTpFAooM7oW60Wnu8TBAFpkkz6RmyiKCJNE92UPh6P+dSnPjVzv0mScPjwYYyp6CBlN7jINplfvnQQmNx/1qS+trZ2WfmWClJUE3uaSBZECCH225Xz4UIIIa5b3/d938ett95KoVDg5ptvZjQaYZqmzi5sb29jWRaVSoVut8vm5ibz8/OcPXuOarXK2sU1TNPkhhtuYDQa6V4M1YdhWqYuzbLtnJ6wBdlSQNM0uffee7nzzjuBLFC4ePEiN9xwA5NPZH9NvtZsNhkOhwwGfarVGp7nUSwVLzuuQ4cO7U7BMrJgY3t7m1arxXA4pFqtXtXn9dHo7k/fTaVcmQRmKXfcced+PyQhhJAARAghDop//+//PYPBgNtuu417TpxgeWmJRqOB4zgMBwNac3Osra0RxzFhGLK2tkY+nwdgPOm7qFQq2LZNnCQMh0MKhQJRFFEqlRiPx1QqFdIkxcxlCXbf90nTVN+P2rCez+c5ffo0t956q/789N8GRhZETJVZVas1AIrF4ky2ZPr7kiThwoULHD58WAdOqo9EBUrXoxMnTuiJY7DbvN+oN0jJBgEAnDp1Su90MQyDm266ab8eshDiAJMARAghDoitrS16/T6VSoViocDS0hKbm5vcdtttDIdDtre3J30d2cl6FEXZZCuyE9pcLkcQ+GxtbZHL5cjZNq7rYts2QeBTrzf0pnS1DT2Xy2Ga2dX3OE4AcByHNE3p9Xp6MtbKygoA/X6fubm5mRKsbrerFx26rkupVKLf7+uMy8bmBstLy/r2qj9kcXGRZFIOpprYr5dG9BMn7sEwTFJScna2rd40zcl+lslI5Mk2+zRJSIA4jnU/jpp4dmlAEoYht99++z4emRDiIJAeECGEOABe9apXkcvluPmmm7h48SKO4/Cpu++m3+8zHo91mZRt27p3wrIsarUajuPguq6+ul6r1Zibm8MPfMrlEpZlYhgmg8EA0zQpl0sEQUAYhpy/cJ4oyk6I1Ymx0mw2sW2bNE0Zj8ekaUqtVpvKhuyWYCnFYhHDMPTt0jRlaXGJ9fV1/X2HDx+emYKV3Vc6sw/kWnTPPfdw8uRJTp48iW3nsG0by7R0+ZzKXCVJop9rtaMliiKiOCZNsyBO7XxRr7saHgBZUPJwl0cKIcRXQgIQIYQ4AO6//34uXLhAt9vBcRw2t7YoFgtsbW3x13/91zrroU5EC4UCpmli2zalUknv0hgOs1KsCxcuYBomm5tbpGk2hWowGEz+HuI4TtYXUqvrTEqapkRRpEuitre32dnZASBNE86ePbvbaJ5eXpaVpqkuy5r+A6ne+YGRPTZlYWGBNE1nRvdeS+69917uvfdeTp06pbNAAOYk05FlnwL9XCRJQhLHbG9v69cySRKiKMIdj4mikF6vRxzHXLhwgSiK8H0fz/NIkmyimXqtTpw4sY9HLoS4nkkJlhBCHACtVivr3YhjNre2WJifp9vtEoURjuPwV3/1V1y8uMb3f/9z8X2fMAyp1+ukaUoul8MwDCzL0hvHq9UqURQxHA5xXZdGo6GDlFKpxM7ODpVKhVKpNLkib+gyIVUaNDc3N9WTYXD8+HFgtu8jTVM6nY5uRK9Wq/QHfT1hq1arsbGxqQOQo0eOcv78ef39hpF1i1QqFV1O9mj2yU9+kko1m9iVs3M66FAZDR1oTCaU+b6vPw/o4K7RaBCGIZ7vkbNzWX+IZRLHMY7jkCQJrVaLzc1N6vU69qSczjRNfN/HsiySJOGzn/0sj33sY/f6aRBCXOckABFCiAPi3LlzHD58mFarSbfbBSCXyxGG2Yl5HEf8+m/8T37ged/PRz76Uf19x48dY3FxkXa7zXA44Bu/8f/WgcPi4gLdbo9qtcp4PMY0TYIgoFqtYts24/GYXC6nr9SrEq8oimaWB17am3H06FE2NjZI01SXYKkpViorox7/4uIi6+vrrKyscP78eY4cOaLLiTa3Npmfm7/iz3g0uffeey8rNwNmmuZVhkN9fvrfgO53UZkMy7KwzKz5PAzDSQ9PoP9Wm+yTJNGlW6ofBHaDns997nM4jsMd9qX/gAAAdvRJREFUd9xxVZ8DIcTBISVYQghxACRJwsrKCnEcYxjZf/pLpRKu61IsFTh8eIWnPOUpHD1ymM9//vNsrG8Au8HHcDgE4M677mJ7ext/svNjbS0be7uxsUGv16NQLFCtVvUCQ5U9AWY+ht2maMhKuM6cOXPFx56mKcPhUN+2WCzOfG16ulWapjoDsr6+juplV9/7xbax77VPfOITnDhxgvvuu49Tp07p7NC0JEmIwpBoqq8jnfzP933SSbZjurTN9339vHqeh2VZjMdjLMvSPR+q/0P1jfi+r/uA1EQzz/OyBZTra5w6dYrxeMy99967T8+WEOJ68+j4L7EQQoirSmcENjf1zg7Lsmg2m7jjMeuTJX6HDx/m5ptvxrIsCoUChUKBsevqK+6+57G1tc3m5iZf8zVfQ7lcplgsYlkWnufhjl12tncwTZPl5WVGoxGVSkVfcTdNU5cVTQcDhw4dwratmcesTq7ViflgMKBarTIaj6hWsmyIYRhsbGzo7ehHjhzRvSxTdzRzn/vlk5/8JMVSkWKhSKvVmhmZ+8XKw+KpDEeapniuR6FQyCZZTQI8z/N0WZXKLCVJguM4eJ6nf47v+xSLRVzXnfk+tXiy2WzQ7fbY3NzU/T+1ao3FmxcxDIPRaMTJkyeJ45i77rrr6j9hQojrlmRAhBDigJgu3+n3+wwGA6Ioot5osHzoEO12m1qtxoMPPMj8wgKVahU7l8OcZBhM0yROEirVCoPBgM997nPEccx4PGZjY4PRaMT6+jpO3sGyLPr9PqZp4rruZJs5XLx4Edcd65NutSdkbW2NM2fO6sd6aR9ItVqlWq1iGAblUnnma0tLS7iuC8D58+dnRviCToLsyw6QT3/609x3332cPHmSZrNJIV/QE8ZUyVSWlTJ0JkOVVk0HJWrCVS6X09kntVleTRHzfZ8oinQpnCqzG41GeJ5HHMdZ308UMej3sXNZiRxke0I2NjYJwxDTNHSmBLLXLE1T/Tr6vs/nPve5PX8uhRDXDwlAhBDiAFAntXEcU2/UieOYYrGor5IDuv+gVC6RJgmB72OqXoM0+972ThvHcZibn6Pb7bKzs0MwaYgGmJubo9vpYppmlj0ZZ8FGuVxmfX190gyf0yfMKiSo12v6ccJssNDpdBgMBvrr018zDIPBYMDy8rL++oXzFzAMg6WlJQzDYGdnh36/T5qm+qT6avr4xz+uS6tqtZpeEDg93nh6Kpgql1LHNh18XDbhavJHBRv5fJ4gCPA8D9u2CIKAQqEA7Jaqqb+zEcnl7LUpFul1e0CWGVH9NVlgs/sYVVP7xYsXabVaWWO758285kII8eWSAEQIIQ4A1RcwNzdHe6dNo9HQ9f6KOlG2LAvLssjlcpTL5exkeLLArlwu02l39GSls2fP4rqu3ogO6PtcW1vDNE1GoxGDwUBvQ1dX4//mb/6Gd/zpn04CCuOyhvTpBXlpmuogRF21V7cdjUb0+30ADCPbAwJZX0qS7pYwNZtNbrzxxqvx9HL3p+/mxIkTnDp1isXFRWzb1s+lCphUBko9T8lUD4fu8ZgaL6xG447HY5Ik1lPH1PeqjEYulyNJEgaDIcVikdFoRBAEDIdD/T0qM6IGAajsiHouVV8PZBmTOIkxTEMvlgS4ePECruvi+z6u6/KXf/mXV+W5FEJc/yQAEUKIA0Cd1O7s7GQnvuxmGur1OqZp6iZkNclKbRpvNBrUanXm5+fxfZ+5uTn6/T4LCwvEccyP/diP4fs++Xxel+sMBgMMw9A7J9RjGI/H/MVf/AV/8zd/w/b2tg5KLu3NmD4RbzabVCqVK/ZvqBKs0Wh0WdnWlRiGwatf/Wpe/epX/5Of0xMnTnDy1ElOnjpJrVrTE76mm+LDMCSKI6I4msliqJIxtSRQBRGGkX2PZVnk83kdpAwGQ/L5rM/D8zzy+fzkOXcAyOfz5HI54jie3C7LcPX7fUql7G/f9xkM+vrxx3FMqVQiDEOq1SqtVmtmIeG07PFmxzUaj/RrKo3pQoivhJEkyaN3LqEQQohHxL/5vn+DaZi02219glytVvXJ5tLSku7HKBQK1Os1hsOsd2BhYYEoimZOrre3t6lUKly8eJG3vvWtAPz+7/8+tm3rEbztdnvSXG7j+z5f+MIXZhrP1c/O5/PU63Xd45HLZdmVzc1NFhcX6fV65HI5/fXpEizV0L6xsT7JlGRBxsrKCmmazmxCV5mHkydPYllZw3u5XOYnfuInHvbzqMblqscw/VimxwpPbyKf7vlQ/R7q+A3D0CNw1W6TOI71Pg5VIlcul7Esk/HY1dmVfr9PuVwijrPnMYljmJRwWZZJp9PVj6daq9Lv9Wcebz6fx/M8SqWSLuVKgfFkaWO5UiZNdgNVVSIWBIFu+g+CgO/4ju942M+fEEKAZECEEOJASJPs6rvq86g36jNfV2U2hpGV3URhdgVdlWpdSp3I6g3kwA//8A/r+1JX8VWj+ac//Wksy6LdabO9vcX29vYVd4BMl1wtLy9fFnBcSvV0LC0ts7SU3V5Nwtrc3LzkQcMNN9xAPp/HzmVL/sbjMf/1v/5X/tf/+l9f9Gd84Qtf4L777uO+++7DtEwM88q7OVSjeBAEerztdN+Gymaoz0834avgI01Tcratb6t6OrJGcl/3fqi+jzCM2NnZIY5jhqMR3W6XTqfDzk5bP2+WZdLv9bBtO8uUTO4/jmP9Gg2Hw2wj+mRCVqFYII7iy0YeB0HAwsLCpBTL4/Dhw3zoQx/6os+dEEJciQQgQghxQKgT/UajQXfq6vgXo7IHgD5hVifZtVrWND4z7hbo9/sEQcD29jbj8Zh+v8/dd9+929dhmEC2cK/T6dBut/X3XroHRF1xbzQaAF8yGJneBcKkfGva8WPHd287+Ts3CUQsy+I3f/M39dfvvfde7rnnHu677z5dWmWaJgYGpLM7TNREL/VHBRuALmnLgoVQlzip51MNAHDdLLPheR69Xp/c5GOV4VF/5x1n5nlXP6fdbs80hjuT2+VyOaIoxrZzWaYljnEnOz7UAkJA7wZR+0ICP8imZQ0GjMdj4jjGdccsLi4CTMYqZz1A3W6Xv/7rv/6ir4sQQlxKAhAhhDgApq/Sx3FMrVb7orsnAJI0YW5ujmRyhT/LJkwyFsDq6qq+Gj/tZS972cym8m63S6PRYG5+jnwh6/eYn5/Xn58OEY4fP66v/EO2viNNUzqdzmXZEtV0rj43GAz0tK4LFy6QAouLi/r+0zTl7NmzMxOnXNfVTdi9Xg/DMPif/9//xz333EOaZv0Yqhlb3Ycagaue0yjMshj9fv+ypnIVcKgSqyAI9AJA1bOi+kEcx2FjYwPHcbIxx8MhlUpFP8dqZHKn26XX69Hr9bJ/dzqYpkm1WtX9NJVKWe//UPc9HA6J45hOt8toNMqyP2527Or5cByHMAxxHIdqtYppmiRxjG3bOuA5f/48Fy9eZHFxEc/LMiC3337bZRvchRDiHyMBiBBCHADqJHg0GgLpzNX7K2UVer0eGxsb+kr5wsI8DzzwIBsbG5xfXQWyYOZK41if+9znYhgGJ06cYOyOs54Ow8S2bL2NXfV21Ou1LMiYTHOazmIYxu4OwUqloj8/Go2wLIvRpFdh+usGWQkWZEsXpzMhx48f58yZMxSKRZ15gGwSVLVaxfU8br3lFj7/+c8TRTFRFGMaJkmc6NGzakxuGGQZgiTNMhr5fF7v5AiCQPdvqJKs6f4PNTI3+9smn8/6PGq1mt7TMRrtNnr3etm43G63mzWth7tBXz6f16Vcagnhzk4by7Lo9XqMRiM9FSsMQ327fr+P53qMx2P9Zzgc4nnZ59TwgBT0lvZCoahfgyiOdGB67twqcZLwzne+8+G/IYUQB5o0oQshxAHxjGc8QzcPW5aF67qsrKwAsxkFyEp3WnNznDt7Vp/Y5vP5SdBQp1gs6ivuv/M7v3PFn/eyl72MRr1OtVbjMY95DBfXLhIGoW5EV+U/ulwpjrn5ppuwczYGBpZpZnN1yUbDVqtVhsMB1WrtsscK2dje9fV1jhw5QpqmrK+vzwQ0URTpscHT1KZwVerlui5Pe9rTdH+G+vqlm9nViNxKpaJLq8rlEsPhaOZ+1WJA1VCez+cxDBiNxlnJUxBgTCaPmaY5WQZo6oxKrVaj3+9Tr9fpdrtYlqmb7dUGejXRynVddnZ2KBQKemJWkiQUCgV9n+qxqWZ39beTd0jihHq9rsuxLMvCtm0dxKnmfdd19fNRKBQIwoBSscTp06dJkoQf//Ef/+JvRCHEgWd/6ZsIIYS4HqjRrY7j4LpuNiJ2svE6l8tlS/wuXOCmm27iQx/6EO12m2q1SrFY5Gu+5muwTJPWpNQmNwkipndyXKpRrzO/sIBlWTz00EMUCgUdLFQqFYbDIevr69ltGw0MsmBCPZ6NzU2WFhdhag9ItVZjMOhjWVmZV7vdZmlpiV6vR7PZ5PDhw5w/f57Dhw+zuLjI5ubmJAjJTqA9z9NN7gCHDh0CoNfv4/k+jVqdfr/P+9//fr75m795pskcdgMZFdg0Gg2GwyGFQoEwDOl0upRKJYbDIfl8HtM09fM+HA4xTZNer6ezCq7rYk+CCNM0CXwfYxKEWJalm8Dz+TydTgfHcXRPSRzHOI6jy7P6/T5hGPKiF73oYb0ffuM3foNaLRsfnCQJSZzgOA69ScO6Wmjo+z62betSLMMwdkvsel0Mw2A8GlMqlnSA9b9+839hGAYve+nLHtZjEUIcLJIBEUKIA+I7v/M7dcO0MTnZrdXrVCflS+rq9vnz53nve9+b9WgkKd/x1O/IrqJPMh4AOcfRzdRvetObLvtZP/IjP0IURSwsLHDzzTfvTo6a/D+O2jUShqHuH1AN6YVCQU/XGo1G+mNVLuZ5HsViMQtWohDb2m0SV9mVNE1ZW1uj0WhMtqAnfP7zX9ABx/r6ut5zMh6Ps670FB7/+Mfzmc98hn6/z7/6V/8KYKYvBdB9FdPBkmriVosAC4UCwaRMSx2rCjrUx77v66Zv1W8xOdBsLG/Oplgo6vu2bXuylDDRAchgMMA0TX7sx37sK3pPvOY1r8mCvY0NVlZWdNYml8vpDJcaFew4zqS5PcU0LTAMer0uG+sb3H777bzxjW/kyU9+Mpubm0RRxMrhFbrdLnknz6te9aqv6PEJIa5PEoAIIcQB8pznPAfTNDCMbEv3YDDg6NGjQFYStbm5SavV4k1vehNHjx5l0B/wxv/9Rv7H//gfLC0tUSqVGI/HHD58mHa7TT6f53Wve91lP+eFL3yhLtWybAvbygIDtVME0M3VgB4rC9moXDUytlKpUCmXGU1KnUajIZVKVQc06n43NjZYXl5mY2ODQrGAk3P0FvYkSbhw4Xx20gwMBgM9xct1XZ2hMAwjG58b+KRJylPVfotJxmR6gWOapHrT+Wg0olQq6eyKGpOrSpiuFHSociuVUUiSBNMwMExTZ4lUaZQKMlQ/CaT0+wNe9rJHLrvw+te/nvMXznPD8Rv0BnpAl3Kpj9WOliAIspHKW9t8/OMf119/whOekN1hmj1TpmFw4eJFyuUy/+k//adH7PEKIa5tEoAIIcQB8uxnPxvTtDBNQ2/fLhWzchrDNPQuije/+c0AfNM3fZPeNN7v97nxxhv1fVmWxRve8IYr/pwf/MEf5LbbbtMZCjXK9o477uDcuXN6xKzaP+K6LsvLyzzwwAMAlEolgjDAyTncdddd+qQcsraQSqUKoK/e60V6k9G9n/rUpwBYmIyNbUyyHeVymdFotJsJmgQXasRwkiSsra3heR4/8AM/MLM4ME1Tna2IokgHHeo26mvTAcd00KFG96qfqxYRGoZBoVDQn1eZE8dxdGDW7fVIk4SXvvSlj8wb4Qp+/Md/nMc//vGcOXMmy1oZhs4oqddvPB7TarVYXV3lz//8z4HsffCYxzxGv47qee52u9TrddrtNrVaDcdxJAgRQgASgAghxIHzXd/1XQD6JBrQ9f7j8Zg//uM/nrn9N3zjN3Lk8GG+7/u+j7e85S2TYCDlLW/5P1e8/7e97W28+93vxvM8LNvmxS96EZ/4xCdI05RSqUSv15vpcVBL+xYXFzlz5gzFYhHXdfXf6rGpQED1KTQaDbrdbvb1NMXzfVJSipNpTeVyGdgNPhJSyqWynlalAg5la2tLT6sKw1CXYKkyKhVgADroiKKIcrmMAcRpiue6V8x4TC/9U/0vxWJRBxvqvorFItvb2xQKBdrtNmEYXtWgQ3nxi1+sH8OJEyfoD0dUSkVuueVWbr39Tsaur2/bbNT4/Gf/HshK5I4ePUqxVMQduzOB4srKChcuXKA/6JN38hw/fpyf/umfvurHIoR49JMARAghvgwnTpzQV9uVXC63e4IZZ+VFOTs7Ebt0xK2q5VdlSOqKvbrSrD4H6PvUfydZj4Bt20RhNPM9mvp5k/uIomjm5zmT3g11xV6VCKkT7+ljUlOqpn+OOh51v+pxqr/jOOZ1r3sdS0tL/MM//AO2bevGacuy+LZv+za+8IUvzNy34+RYWloG4PzqKmMvu4pusNvsrH7u9OhdlTkAZgIVdZyA7i9J05Sck8O2bILAZzgc6cdvGAYbGxv63/1ej3anw4tf/GK9XFA1mavjLJVKl5VQYRh4k/4QNdpXvebqOVLBzHQpVqFQwPM8vcTRDwJ+7Ed/9PLX9ir6nu/5HgqFAk95ylN4z3vew+rqKsvLS8zPLxAEIbfeficAvjvk7NmzjEYjyuWyzngsLCxQb2SBnhoTvLKywunTpymVStlEMVLyTp7f+I3f2NNjE0I8+kgAIoQQUx544AHCMND7J1QZzHSQoHY9qDGopmnO7NWYHnWaJIm+aj7tH9tCnqYppmWRTl2d1/edZp8z2J3kdOn9f6kN5+p+sq3k6IBEBUNT96Sfh+nJUVfaG6I2e7uuy1ve8hbW1tbo9/sYhsGhQ4d0s3UYhhw7dgzDMFheXtaN5yogUlRDt3ps0wGGWpxXKBR0CZfq48jn8/p1Un0exeJuYDIeZyfMakoVZMHW+vr6ZNM5lMplTp48yQ//8A/rx6aCEDUOWPVnwG6vhmoQL5VKupRK9ZWoDIq6ve/7+r2hple98IUv/Edft6vlec97Hs1mk0qlwsrKCh/60Id0AFWv13UgBdkuEtW3kyQJ8/Pz+muWZVFv1EmTVI/oVdPLSqUS49GIm26+mfX1df7n//yfe36cQohHDxnDK4Q48E6evI8wjPTiuHw+r69sq5NH1aR86Ul/kiRcvHhRf25pKes52NraZmFhga2tLRYWFtjY2NBjYQGWlpbY3NxgcXLlf31tjUOHso83NjZIJk3O6ufMz8+zvr6upzilk0AkZTcDMbvEz9CPbzpAmhYTz9z+8gBkYrIRUI3MhWzL+Nb2FgvzC5Pj3dIn6vV6nXPnzpGSYmDoCUuK2kgeRdkJeRAENBpNCoWCzvaofSUqmFMTq+I4Jl/I43vZCXwul9ON0dPlP8ViUWcbRqMx8/PznD9/nrvuupO/+7u/17frdDosLS3NHPf9999PkiR86EMf4lu+5Vt06ZVhGFSqFcIowrzS80QWsLbbbSqVCq7r6j6b6UWBnudlmZU45od/6IeueD97qVKp0Gg0WFxc5NSpU1mgN5kqNm1hYYHVyRLKNE1pNBo6s7a0tMTOzg6k6n2Y6k326usPPPAAp06d0oGhEOLgkgBECHFgnTx5kiRJCIIA27Z1SdL0lXjFmuxKmD6RX19f0x8vLx+anMRn/56fnycMw2yUbZrSbDYJw5CFheyEPY5j5ubmicIQwzAm06GygGBuLruqfOmW8uXl5ZkyKVUGNf0527bpdrv6JK8/6FOv1Wd6HaZNL9lTf1+6vE9NnlpYWNBf6/f7zLXmsseQyzE3NwfAgw89yPnzqzSbDW6//XY++9nPAnDx4kUWFhb0VXFFlbJtbGwwvzBP3snrK+aQZSeCwCdJYnI5h5tuukkfy4ULFwjCkNtuvRXLsjh79iyAHg8MUK1W2dnZ4eTJkzSbTfr9gc6U5PN56vU6GxsbesTsxYsXZ/Z8QNYfc8XADAjCAMu09ASvOI51yVscZ9OwgiAgn8/jeR6j4YiX/OhLrnhf++EHnv8DpEnKwsICo9FIBxTVSQClMnrr6+v6vauyT6rHpt1us7GxwdLSkn5tkyQlJWU0HpGmKffffz833HADDz30EK1Wa38OVgjxqCEBiBDiQLnvvvv0lWjITqSHwyHLy8sYhqEzFKq0RJ2QeZ5LYdLcrE6y5idX/9Xtoigil8vp8hvVKzI90SiO45kr9bC7CVxd/b/0a7oHY3IO7Hu+ztKoZXSqFCmKIqrVqg4katXaTI+GZVvEk0BHLR9U1I6N6dImgEKhqLMo6vaVSoUgCHCcHO54nE1xiiOWFpfY2Miew8XFJX0MpmmytrbG/Pz8ZUGI7wcMh0OSJNHbyI8cOaLLuCqVymRTu6uDDMuyMAyDvOPwqU99Sp/UTgdjnufR6XQYjUYsLy/T6XRYXFyk0aiTyzn0+309ShiygCaKIm699VZOnz4N7PbsKIEfYE56N1SGLCLSE6LUhCw1acudNKV/3/d9H49Wy8vLDAYDyuUyt912G5/4xCeArITt8Y9/HLmcw9GjR/n7v/97HMdhNBph29kI5+XlLGun3nPqT7fbBdBBR5omJGlyWRAvhDiYJAARQlz3Pv/5z+tSGHVirk7ei8WiXhoH6BNg1TismsDz+cLMCdZ0OZbqT1BNySmpLttSJ6rTTevq4/xkehOQBRfGbsCze8U9xXVdLNvGmzT87p6Q7y70m6Yamy/9XC6X08GHetxqw/VgMNBBRRAElMvlmS3n6mdYlolt5/RiuiiKddbIMHf7X2699Vbdq6FKswC2t7fJ5WwqlSrnzmWNzoDOeAAMhlmPwXA4pFQqEYaB3vg9Ho0Yuy6lUkkHa7VajXa7rV871fAeBAFJknDbbbdx6tQpqtUqZ86cYXtnm0q5ws7OTpYx6vWoVioUS0Xy+TyGYXDbbbfpXofpx5V38gS+r0vzsnHCNsPhSL/O6r0ThiEvfvGLeTSL45izZ89y9OhRVldXueWWW/j6r/96Pv/5zxOGIX/5l3/F137t1/Lxj3+cQqFAt9tlcTLaGLKFjtPBR6fbJZ36PXvwwQe55ZZbuP/+0zz04EMUCgVdxiWEOLgkABFCXLe+8IUv6BNstYNh+gpsmqZ4nothmHqL9nSQMn3Vfzwe68lK098P4Dg5kiTWscTYzU7ca9WaHsU6TcUW0TCkWCxdloWA3axIlmVwGPT7lMplxqMRnU6HarXKaDTSx6Wokio15lWxLJMkiVFpFN/39bSmUqlEsVik2+3qEbHdbpdqtcpwOJx57GEIlbI981xNP17btrn11lt1puIJT3gC//AP/6CDPnV8w+GQSqXCuXOrLC0tMR6PMQxDBxHK1tYWrVY2yapSLoNhzAQf6nWo1Wo6iOp0OszPz9Pr9ahWq2xvb9NqtTAmz025XGZzc5OFhQXW19cxDIPReHe6Vp8+jXpDT9BSCwbV41aZIxXEep6np1r1ej1+dI8nWP1TqEEEnU6Hr/qqr+L06dPccccd2DlVRhbzl3/5lzqDZ1mWLr0C9DSs7e1tHZSrZY0qG5WVbBV1luvS3wchxMEjAYgQ4rrzsY99jMXFRQzD0KUg6mRc/btSqUxOiE0cJ4fvBzMlUGoPRRakeHoCUj6fJ2fbpGTBgjqRh93AwrZsxuMxIzM7qfV9n1qtNpPVgKyxe/qkHFKyaa67/QZpmmYnt7aF73v6OFTp1aUBAux+fxAElEqlywImteBvOBpiGCb9wYBSsUixWNRL4waDAe12+7IgpFgs4vn+ZSOAVT9KmqZsb29z8803A1nvx/TPz7JECZZl6vu9ePEipmmyuLjI2toalWqFv/v7v6NW/cqalVXgALC5ucmRI0f085wC62vremv68vIyZ86c0cfzipe/AsvO3gO2lQVZ9913H3GSkJv0CY1GI+ycTeAHhFHIeDS+poKOaWoaF2R9OHNzc3zuc5/LljqSvZccxwHDwPc8jh07dtl9bG5uYlkWSZJQr9fp9XszPUenTp2ayXB9sX4kIcTBIQGIEOK68g//8A+0Wi290btUKukdF0mSUCwW9UK4QqGQBQqjkHK5rK9ip2lKuVzWmZBSqUin06XRaGT3lSR4novn+XpylqKu/sJu9iKfz7Ozs0OlWmU0OelWG7khKz+a/j71oTpxV30IcRzjuZ4OjCDLvgwGQ6rVCqPRWN+3Kp9Sj208HlMo5PH9rDfl0n0avpVdCVflaKovQpVuqSvdqpTKtm1c12XsutQnDe9RFNHtdnVfwP33368zGtOZkqxUKwVSXbamxtHmcjnaO9lo3huO38BoNKLd7pAkMbado1Ius7m1xeLi4mX9MpBdkd/c3GR5eXlmz8fq6mp28pym+vGlacqNN9zAjTfcwEc++lF+7j/8HHGUZTUKhYJ+zHfddZfegv65z30O0zTZ3trmJS959DSTf6VUMOBOdq9Mvy8OLS9z+vRpnTlK01SPO1ZU4KEyce12m1arRZIk9Hq9maxjqVRiOBxKD4gQQgIQIcT14dOf/jSwu5MhSRL6/T7ValXvqFBUaYgqCalUKvR6Pcrlkr4qf2nWIJfLsbm5mWUAJhOPbNu+YgYCoNVqzUyUyjk5fN/DztmQZleeVbmU6pXIpLNTuCbf7we+Dkw8z5spr8qa3UN9Qu77HpZlMh67urEcoFDI6x6P6SzLdI+KCjympUmCbVmYZtZUPR67LC4u6rG8jXpdP/5ms6knUk2P1Q2CANuyiCYnvKq3RjFNU5f5QDa29cKFCzQbDTrdLpaVZVf6gwHFYlEPC6hNxvNOz6haXl7WZVFhGOpgdHaC2TpHjhxh9fx5ut0ur3rVq4gmo5hVKdH04zMMg1wuxxOf+MTLX+xrmCqNg91FktPHPc22bf28QzaKeTQeYzC7e2an3aYx2R+iJpIlScJgMPii08SEEAeLBCBCiGveJz/5yexKehRhTnoujEmvgFoAp060KpUKaZrS6/WoVCokScLm5iZzcy3SNAtK5ubmdJO3ClCSJNEnVMBlJUiXarfbOsCY6Wv4Ehd/rxR8fLnSNPvWUqnI9K7ZweDKwZIKlK4UfExzxy5M7nf6RPTcuXPUajW9q+OSe9cntEmaYhoGlmkRRiE5O6cDg1arRalU0qVcx48f169BrVbTz4vrurrnQx8s6OdKXXFXV+qnS4b04IBJKZja3/K85z1P97SohYi2bc+MKFZb6C1zN+ty6tQpPSr5lltu+Uefu0crdYz33XsfhXyBer2up5apwDVNEgzTxL4k47S5uaknuk0H202VKZxkRdI01VPB4jjm+PHje3iEQohHIwlAhBDXrLvvvlufAMZxTBhFGJMxt+oKdhiGOujo9/t0Oh0qlQpRFLGzs6ODg52dNnEcUy6X6ff7erKTCj6ml+I9HKqUa7+pk8h/CsM0L9vKfqX77fV6NBoN3YAO6N0mehAAk14Qw9R9Ga1Wk/n5eZaWlrjhhhvI5XJYlkWtVtPb1C9evKinmS0szLO1tX3541RBCCmD/oDhcMhoNJoJQtJJdPZt3/Zt+nNqoV4ul9NLBKev3KsBBdNZFMPcDXiArFTJMEiSmHa7w5Of/OSv5Knec3/8x3/Md37nd9JqtfjMZz4DwGMf+9isTDGOOLS8zNr6ehaEXPK9KnhZWFhgc3OTZrOpf8/UOGiVZVSvzXTgJ4Q4uCQAEUJck+6++27CMNTTlNRW7DAM9ebqcqVMmmTZjjiOqVQrGBi6uTqOY4IgwPd9ms2mDjSu1FsA6NIuQC+bmzb9uUuDj1KxxNgdMxgMqFarX/S4sg3ok1M9lcoArEnzNmTlXe5kJO/u9+0GCNOJk0KhoIMFdTKtHt/0SaFqdv9iJViXmr5fpdFoQJrObHyfzugYhqE3iKvH0mq1OHLkCI97/OOolMrYuZxu6vd9n3q9TpzE3Hjjjdx444188IMfZDgcccMNN+gT5nq9PrO1O01S6pOysPF4rF8LNW724sWL+vG94AUvmIzSzenG/jAICMnGJKuhBa1WizAMd8cbJ7PlS+o9Y5oWc3NzPPDAA/rxqIb8R6s4zp5f9fuzvp416X/2k5/lyNGj2cjlXA7TsvBcl0KxqJ/vubk5Njc3dd9Ht9ulWqtCis5gqfeZYRjYts0b3/jGfTtWIcSjgwQgQohrzqc//Wk9UUllN9SUKnUyHccxabI7KrVSrdDeySY85fN5Op0OtVqNKIqoVCpX/Dm5XG4mwFEnsqqxPRvxm514GpNxpurkeffkPKXb7eB5WeNus9mk280a2i8NdNI0nRn1q/Z5uJOxvupEzvd9xuPx1C6O7CTfsmySmalaWcXXpXtCVGZBHfd0sDSYnDTC7lV+y8r+ryKOY136NN1c7k72cqjSt83NTb0r4syZM3qb9uMf/3g+85nP6Ob8paUloiji8Y9/fDYcwLZ19mp6r4ppmPp5+fZv/3buvfdeAP7ZP/tnnDp1Sj8OFdypUivXdTl27Nhs5mKydV4ZjUb6ebBtWzdYO47D9vY29Xody7L0uOI4jtnY2ADg0KFD+tinr/Krx6Pei6dPn9bBa5qm3HbbbTyaGIbJ9vY2w+GQdjsbADAcDjl58iT33Xcf3/Vd38WZMw8xNzePZVk6+FDLOk3ThMnywVqtRpIkM71Rhw8fZmtrizAMZQKWEAIAI5kuEBZCiEcxVXI13VSsymTSNKXRaLC9va0/NgxD78xQG8nd8TibRjUa6QBE1ar7vq+nX6VpSqfT0SNd1YmT+lnD4ZBCIcsWhOFs1kOdoBkAkxIx5dLMyHisJmGV8TwXx5mdPjW9rVyd1CZJQhD4JEl6WRZmegTvbnnZDtVqlVzOZtDPlus1m038SWAy/ZimgxV1X9VqlfF4pDfBq+DKcRwcx9GPS93XG9/4Rr2ZfKe9w6A/IIqimR0naZryxCc+kSc96Uk4jkOhWMAgC3bUnokw3G2snz7Bj6KI+++/H4ATJ07gBz6F/OziRVXqYxgGx44d4+zZsxw/fhzf93X25xu+8Rs4cvgI3W5XN/WrrfWe580spcw5Wa+DPQnG0jTVZWWQ9aao4OfS5286czb9fKuFh48Gz3zWMyFFByBhGLK1tZUFdbUax44dpZAv6HG6x48f143l9Xp9ZjeN6sFR2+EBXcLmeR5/+Id/uG/HKYR4dJAARAhxTfjUpz41E3xM92WYpkmtVmN7e5soipibm9Njd1UJUL/fp1wu6wBEBR35fH4mCEmShCRNSOJkZhpQkiSkSUIyya5cutBwejO6culkKXUbdbKuTqqny6EuNf15VXZVLBXxJxkV1QQ8fYI7XfakjsHzPPL5vM4kFItFup0Olm3T7XY5evQoruvObIxX0qn/myiWijOP6/LHnvLmN79FP65Op6MzGYZh8MQnPpG//du/5VnPehbLy8s4jsOhQ4f0IkIn7+h7ytm7Dc5ZgOjhOHm2t7ep1Wq6lEdltdRtITvpX1tb0/0f586d0zstpveEPPWpT9XPn7qPSqWi97tMv+fUcxcEAcViMRtXXMiztbnFwsICpmnqYEO9xjoYNQxSUgx2y5Gmv54kCbfeeiv76TnPeQ6NRoMTJ05QrVYpl8t8+MMf5nGPexyFYgHSrNTs9ttvB3Z3v4zHYz19TmW7bNsmCAIWFxd1Jml7e5s3velN+3qMQohHBwlAhBCPenfffTeQ9SKEk5PBcrnMYDDQC/62t7dpNBrESUwURvi+j+/7lEolXYuuAhAn7zAcjnSfwPb2tr7qroIGFZSoE3tV76+uyKsTXXVlX096imPMS26jqIb5lBTS3d4LyE5Ap+9bLTkELju5VuI4ptfvUcgXZvY3TI/obbfbWJZFs9kk5+QwMCf36egN34PBACfvYGDMTLc6evSovl81TWxubm7mpPrSvpI0TXnrW9+62yuRpszNz3PmzBkq1SqDfp+bbrqJs2fP8u/+3b9jOBpSrVT1z4AsqMpNTvaZ3Kf6E8URaZI9P294wxuALADJ5XKXZR/W19fJ5/MsLS1x7tw5/VyqAOSZz3wGhWKRJE70FXo1Hnj6GNX7Qo0VVoGjyoCo19WyLH3irfaIqABTvbbqPXRpD456/tR7Yj+naj3nOc8hSRJOnz49eV+n3HzzzcRxlm287bbbCMNQ9+i4rjsTkKpjuPRCgfR+CCEU6QERQjyqffSjH50diUqql5w1W022NrdIkoRWq8XW1hblcoleL8t2eJ5HqVSiVCqxs7MDoEusKpUyrutm2YI0ZTQc6gm504HH9IkU7GYX1InldGmWzkJMlUWp281kCgwuG8drmuZMaZk6qU2SRJcNKWEY6hPuK5UeqTKaaZubWd/C8vKhyXHtlpL9Y6aX+VmWlW0Bt20ddJmWBenutvhsAMD07pEC29u7E6tM0+SBBx7gp37qp4jjmKXFJUajEY1GQwc7uVxuMl432xivjl31gyRmQpqkPO95z+PNb34zkO0+yReKrK1d5PDK4StmlDqdjl5CqLhjl3w+P7PsUWVsHnroIZaXl6lWqziOw3g8plgsMnbH5Owc4/FYT1RT7894MoUtW2ppTrIBOR3Qqucyew3SmX+r77csi/tP349hZtkXlXHYK+985zt5+tOfzk033cTp06c4dGglG6FsmiwvL88EH4D+/VTDH9Sxqd+JZrNJp9PZ02MQQjy6mV/6JkIIsT/+4i/+At/32dnZ0ROKojAiiiIajQadnbY+wVEL5y7l+z6dToe5uTlc1yUIAsbjMZ7n47putpmZbEeF2l2gpmOp+1TNs1fqPZme8DPt0kWGu7fjirtA1JXi6UBlulwLdpftTV/tV9mOubk58vk8/8//8//M3K9qBj9+/AYAXSakxtEWS0WcvEOlfOVG/OnjUVf4px9bOnnchXx+MrULvvVbvw3TNPQ0Lx2kxTErKyv8+3//7/XzNxwOKU6mKlmWlWUKUrUBPtLPh+u6OnOQJql+PYrF4u6299GIlUMr+glOyRYaqvswrexn9Ho9er0eq6vngd2eFpX9UcHHsWPHcF1XT8JyXZfhaEi5lAW3juPoIDYMQ4Ig0MFLFEW4rkcUxbvvFdPMRhpPyvjUAsjpTIH6+UmaECcxhmlw+vRp7r//fh544AHd+3K1vfe97+W9730vp06d5mMf+xgfeP8HSNOU9Y0NbDvr04miSGfRVAbv0rJE27bpdDr8wR/8wZ48biHEtUFKsIQQj0of/vCHCYJAT91RvQnNZpPt7W3iOKbVahHHMdvb27RaLXZ2dqjXawRBiOu6lMvlyYbzsi7DUlu5Ly0RUdLJSTTpbjnWpc3lAA899BC33HILz3/+8/fuSblG/Yt/8S+AbFzucDjkJS95Cfl8nlarpZ/jer1OGIYzm+x3pbrhXr0WqjwtjmPe/e53EwQB1WpVlzpZlsXFtTXK5RILc/OcPXeO8xfOc8vNt+hyuyc96UkcOXJE9wKdPXuWlZUV3Q+yu6wyJghCyuUyds5mNBxRrVZ14GKaJkEYkHeyHhvTNLLgiZS8kydbxrhbyge7ZXXtdpu5uTkge7/l8/mZ95liqJ6SSU+KOs69LNX69m//dgzD4MiRI9ljmQSzMBtwqwCrUqnQ7Xal70MIcRkpwRJCPCplJ6ORHo06NzeHYRhsbGwwv7BAHEW6/6JerzMejymXy+zsZOVH1WqVzc1NyuWyPllV2QxgJvC4rCQGAwxwPZeX/thL9/rQrzsf/vCHef7zn89gMODFL34xtm2zsLCgJ4CVyxVdgjbdV9Hr9QD0zhbYLWlTV90BnR1p7+wQxTHLy8vZbQB3NCZp7QaYvV5PjxLOMmEeURTp+1K7QjzP0wEIwGAwmJxUlymXy8RxTD6fp91uky/kKRVLDAYDfT/q8eYdhzhO9PGppYZBENDpdGi1WllgRYphGpcNM9AlfCowuyRDdvr0aT2562rvG/mLv/gLAJ72tKextLQ00x9lWRaHDh3i/PnzmKZJsVhke3ubt771rVf1MQkhrk2SARFCPOp84AMf0JvI0zRlaWlJn6ylaapP5OI4xvM8HaQMh0Pdp6CW/akTzDiO6XQ71GtZ3fqVgg/TNIniiOf/gGQ1roZ3vftd2Whd09KvTz6fp1Kp6KwUMLMvQo0hVuV1018bj0fEScr73vteoijSOzsgxTQtnFyOjc1NlpaWWF1dxTAMdnZ2WFlZAeCf//N/rnuCVClXs9kkiiIKhQJJkrCxscGRI4fZ2WkTRRErK4dIkoROp8PS0hJnzp6jXqvhOA6VSkUHTYVCQQ9KULtqTMskCiPy+fzM8AFV1qZKvVRGJCuVS7L9LlMlTlcq+5vuGzIM46oHI9/93d+tAznLsvTFANVL43meBB9CiC9KAhAhxKPK+z/wfkizRWjlcpmFhQV9UhUnMXEUs7W1lU3CKpWwJtvHd5fyRTNjaNUegumr3NPTpyA7kXvuc5+7twd6AH3kIx/BNE0KhYKevAVQLBR12c6VRhJPj0lWO17iOObixQskKbz9bW/TwwamJ0ttbm5iGAZHjx7FMAzOnj3DeOxi27ZexvjUpz41K7kq5PFcTwcLxUKROI5oNJvkcrYOQKIo4siRw6RpytbWth4lvL6+Tq1Wo1AoZAMSmk3G4zFRlAUcpXIJ3/Nx8nmiMCSfz+thB9M9PSrYUg393W6Xer2usy7TY3thdwO7+h1R1Nftye/H1Wxk/87v/E69M0VNJhNCiH+MlGAJIR41PvWpT00FHyXm5+dZW1uDNGVhcZGtra3Lvmd7e5tCoUChUCAIguzEdmpfA6CbYWF3wtXZc+c4cviw9HDskQ9/+MOMRiMcx9G9DqS7TfSqL6M/6M806atSuXq9zpkzZyiXy2xtbRHHMWG4e9X9SvwgwJoEmw8++CDHjh3jox/9qM4wDAYDPR1N7YOxbVtnWTzPo9Ptcvz4cfr9PkmaXDZ17Pz58xyeZFTa7TbNZpO///u/57GPfSzz83Osra2TJAmlcgln0veRy+XwPG+mH0m9Z1V2T/V5NJtNojDUt1cTqAA9hUoFLdPT4qYDFdM0OX36NBsbGywvLz/ifSN/+qd/+ojenxDi+icZECHEo8InP/VJOu1O1hiepszPz7O9tcXi4uLMrg01YrZYLGZ9H6USO+223tAMWdlVHMe6mfzSUpXBYMALXvCCvT7EA+sjH/kIvV4vW4SYd/SCwWKxqPs9YHcXyvRI4263Q2WyJ6Rer2c9QJO9Imob+Zvf/GaWl5dnTr7VWFg1WcuybdbX1uj3+zorBvCUpzwlK+dLYnJ2DtM0SFN0BiJJElZWVrIt3r5HGITceOONxHGsd32o0bsqAPnEJz7BYx/7WMIwZHl5iThOWF1d5eZbbsFgd8O77/sUi0UGgwGGYVCtVnUpoOu6+j2tJm6pIBp2l1KWSiX9nKlBDdOu1NCePT8Gcbz/yw+FEAeTZECEEI8K7Z02juPg+T6kKZsbG3rUarfbpVqtYhiGHv8ZBAGlUokwjnVTL0AcRyRJOtOsDKma7Mr3fu/37t9BHlDdbpelpSU8z6NarTIajfTraFkW5XKZ4XA401iuAohDh1b0GGUmZUbnzmXTqra2tvjf//t/c+edd3LvvfcCu9OiAA6vrPBnf/ZnQEo+X+Drv/7rr3i1/rWvfS1xHDMaDQmCbJfF9F4Tz/MIgoBKpULOzgKNNE0plUpsbW1x/PhxPM+j3+/PbFkHcN0seFhZWSGeTPFSmYzRaKSD61KppJ8X13VxHAff98nlcjo7orazq74nRe0OUaVqepzxF2Ogp3KdPn1aBy833XTTV/T6CiHEl0syIEKIffe2t71NNwOrMbvLy8tcvHiRJEmYn5/HMAx9ktdoNNjZ2dFlO5D1elzaQzCd+YiikOc+9/v3/NgOure//e3Mzc1RKOQZTsbXqqEBuVyOQqHAaDzCwGA0GlEsFjEM2NjYZGVlhdEo21jf6XTwXJd4kpEIw5CHHnqICxcu8Nu//TtYVhZ4RFHE133d13Hy5Eke+9jHcu+999JoNLj99tv59V//9S/5eF/zmtfoXTGQvYccxyFOYkrFEmEYUqvVCMNwMqJ3N/OgFkbecMMNrK2tEcURx44ey75/UvqXz+d3J2VFEYPhcGq7fKobziELwvzAx8ll+0bU96qARE3aUvfvOI5uAjdNE8MwdJYFuKwHyjCyaW/GZMOMWjCZJIkEI0KIq0oCECHEvnjuc7+PJzzhifi+z+23306v32dxYQGAQ4cO6dKWKIrwfV9nQ3K5HGEU4ns+4/GYUqlEEPhZhmNyMqUazNvtNq1WS7Ie++jd7373ZDeGSblcplAo6Cv806N1a7WaniCl9rNMb6RvNpukacrq6ipzc3Ps7Oxw8uRJPvjBD1Iql6iUK1SrVZIk4ZZbbuHTf/d3JFHEcDTiCU94Ar/0S7/0ZT/23/7t32Y0Gunmb1UepUYFqxHPc3NzM5OzSqUStVqNi2sXSeKEY8eOkaYpa2trHDlyJDv2yVSvwXBIFEUsLCxg2xY7O23m5+fBgIsXLnLo0CF8388CtdGIWq2G7/szCyEBHQSp53U0GlGpVrBMa6YsS2WWVFBy6Y6bS/+9l3tGhBAHhwQgQog998u//Ms4jqP3B9x999089/u/nzRJOHToEJ/85Cf52q/9WsIwZHNzk1qtpqdiRVHEYDAAspOufr9PPp/HAL1lWmU+XHfMD/7gv92/Az3gPvShDxEEAc1mE8/3MI1sP0Qul9MjlgEqlYpeFKlOlqMoolwuMxqN8H2fxcVF1tYuMh67pGnK5z73OT7xiU/w5Cc/mWazSaFYwHHypElCsVjk1KlTus/iKwk+LvXa175Wl03pze6TjAZkJ+7VahXXdUmShFqtRpwkHD1yRC9JXFtbo9Vq6d6XvOPMBCDTWZKNjQ0dfIxGIwqFAqVStmvEtm1s2yKXy8qxcrmsp0YFeqopP5/P648LhQLdbgeAVmtOP2ZgppwrSRL9+zPdGA8SjAghHjkSgAgh9swv/uIvYhoGhWJRnxzm83mCIOBzn/scz3ve8xiNhhw9eoyHzjzE4ZXDbG9vZ1fHu11K5bLu9YBsypVqTjcNY3p4Eq7r8oM/+IN7f5ACgI997GO6mVqdyKqSuTAKdSO6OplXywZHo5E+aU7TFM/zME2ThYUFgiBgdXWVYqHA1vY2DzzwADfffLMOauxcjnu+8AUgC2pe+tKrs0TyDW94A4PBQA87yOfzhFGEbWX7TYrFYrYdPQh0o3oul6Pb7XLkyBH6/b6ecOU4Dt1ulzAM9XK/waBPqzWnn49ischwOKTVauldIJZlMR6PqVardDodCoWCbr5Xk7wu7QUZjYbUanX92FR2EaDVagHZWF+1iX66hFFlq2zblkBECPFPJgGIEGJP/NRP/TtqtXpW428a2VXwYHep3JkzZwB4ylO+mV/79d/gJ37ixzm8cpi1tTVd4qJOlgD8wM8yKKalG87ViauUXO2/97znPbRaLR0wlsolojCa2f0B6IzCeDzWgYrjOIzHY9I0pdVqkSQx586tsrKywvr6OidOnCCfz/NHf/RHfO/3fi9hGPLKV75yX47z9a9/PXEcs7m5qU/+DdOgUW8QRSGWZU82qFd0iZQau6t6llSp4bFjx7Btm9XV7Finp1oNJ5mSubk5vZxRBRdqbG8QBhTyBd2XosYdTzepG4Cdy+kgZVqhkI0YVtPF4smABzWdLAtcfEwz+7kSiAghvlISgAghrrqf+ql/R7VawzAMCoUClmVluxAmAcXmxsbM7W+88UYajQamZTI/P4/vB4RBwHg8olQq68yHZZn0B0OcXI7v/35pMH+0eM973oNhGOTzeWq1mg5C1AnudE+C2kI+GAz0lCd1VV+dmIdhyKGVQ4yGI9rtNs95znP247C+pD/4gz9gNBrR7/d1NkJlSABdmuX7Ps1mUx/fysoKGxsbuldkfX1dj/5VAYBaajg3N5eNKY5j8oWC/np7ZwfTsmi1WrqHJgsyAqIoGxkchRGmZeoJWyr7COhFhyrnYdn2zO4cQP8sRS3+lEBECPHlkgBECHFV/ef//J9xXZcjR46wvb2tl6d5ngfAhQsXAPSSwWYzKwWpViv6qvDJkyf1/g+lNTdHpVJmeWmJ1dUL/Pqv/9peHZL4R7zzne+kUCxQr9VnFuxBdsLquq5ucFYTm1QPiOqBUIsHITtpv3DhAnNzc3Q6HZ72tKfty3F9uV7/+tfT7/cJwgDLtHQWYvrkP5qM5a1Wq1QqFZ2tqNfrhGFIGIbUazU2t7Y4dOgQ/X5f94skccxwNKLZbOpAwXVdRqMRCwsLOkOSpimu6+r+KTWyWi3uVJOz8vm8zjBWKhV9HHEc0+tnwwEW5hd0adal2+pzuRw33HDD3jy5QohrngQgQoir6uUvf7muL3cch89//vMAHD58WN9mdXUVgMXFRaqVCu1OFwB1jqNOdra3t/X3qABkfW2dubm5hzViVVx9H/3oR/XUKNM0qVQqWHZWsuN7/sy0pek/gC5JAvRI2/n5ec6cPUOz0eSbv/mb9+WYHgm/93u/x3g8xvd3nwOVEVTlWLVaTWc7VC+J2pQ+nRW6+eabSeKY1fPnuemmm3TgVigU2NnZ0dkVz/NoNBoz5VpBEOjyLHsqyxFFkc7UALo8Sy06VEMCipP+LUDfryotUwHVbbfdtmfPqxDi2iQBiBDiqvmP//E/EgQ++Xx2tXVzc1PvV1hZWZlM9clObMIwm7TTaDT01B/P8/B9X2dJjhw5Qr3R4IH776der+spWI1Gg2q1yi//8i/vz4EKAN773vdi27Yuq1IBiB9kV9Zty54JOKanX+VyOcbjsR7Ju7W9xVwr6/3xPI92u82znvWsfTu2R9Iv/dIv6cxQmqaUy2U9zcqyLIrFIlEUXbZnJE1ToijS2cQoijh8+LAujUrTVO/DUUFIoVAgjmM6nQ71etaDpRrUd0vjssDDMEw9UQt2gxLVj6OoDA1w2cJDdbFAghAhxD9GNqELIa6arPE1xjSzcbqVSoWVwytEYUQURXQ6Hb3fA7I69K2tLUqlEmN3jOd5FAtFbrvtNj1W9eR99/GYx9zFcDjioTMPsXJoBcMwqFar+3y0B9u73vUufQW92Wziui7FYhHPz0rt1D6KSqXCaDTC8zzdgA1Z9sMwDCrVCtvb28y15lhdXeXQoUNEUXTdBB8AP/dzP6c//pVf+RXiJGE8HpHPF/QJvQq+kySh0WgQBAFJkrC0tKT328RxTK/Xo1qt0m63WVhY0PtClG63S7Va1QH79va2no4VhuEk4B9TqVSI4xjf9/VrVCqViKKIUqkEoEu0PM/TGQ/1u6setwpAzpw5g+u63HnnnVf/CRVCXHPM/X4AQojrkzrJUr0epVIJwzDodXt0ez1c19W7DVSjsmVZ1Go1ut0ucRRRndSi9/t97rjjDpIkO1m9776TVCplTGN374dpmrzqla/an4MVWJap+xhcz50siAxwcg7VSlW//sPhUJfsTI96VYsHDQzm5uZYX19naWkJ13Xpdrv7e3BX0c/8zM/wkz/xE/z8z/8CjUYD2J0M5vu+3sre6/UolUqsr6/j+z7nzp3j3LlzQLZwczAY4Lou/X5/5vma/nhtbU331qhMk+d5egiAaZpYlsVoNCKXy+G6LnEc6707aq+IaZr4vq+b6KMoIo5j/dqmaapLzT7zmc/sxdMohLjGSAmWEOKqeNGLXqQDC9VcG8cxuVxON7Gq0pBmswlAp9Nhfn6eXq9HGIZ6sZoKMgzDIAgCXbazsLBAFEUUi0WKxSK+7/Orv/qr+3nYB9KHPvQhvevCtm0KhYKeaKWyIp7nYRgG5XKZfr9PtVplMBjowCNNU93vkCQJSZLQarXodDp8x3d8xz4f4d777//9v+tMhOqpUWq1mm4iL5fLelrW9HOnpmjt7OywuLiosx8qyFEN6J7nUatWyU3GA0+XVKmSL/V7CNkkLJVhme4ZAXT5lrrt9GOWkiwhxDQpwRJCXBXD4ZBarUYYhsRJjJNzdN379CjPZrOpG2fVyaj6/Gg0olwuMxwOgewEx/f9rEdga5Niscj8/DyDwUDXvYu9pUqvVEYjTbOshpqkpMp2UlLKpTLD4UCXX8Hue6Fer7O1tcX8/Ly+gu553oEMPoCZvSa/93u/h+/7dDod8vk8vV6PTqeDZVl0u10qlQrFYlH//pRKJc6fP6+D/lKpRLlcmpluNT2drNPt6ulZ6vetVqvpqVndbpd6PVtguLOzQ61WA7LXVmWwCvk8cRRRnJRrAfriAMDJkycxDEMCESEEIAGIEOIq+Nmf/VkgO7k0TZNCvqCvppqmSbfbpdFo0O/3qdVqOnBQwYi6kuq6LtVqVY9rtSyLSqWim3JPnz7F+vo6x48fp16v6+BF7J18Pq+zU5ZtUSyWCMOAMAyw7d2GZgODfr+vJz8Bun+gWq2yvb2tN52nacri4qIOPA+6F73oRfrj173+dXTaHUzT0CVso9GI4XCIYRi0Wi22t7dpNpu0223q9boe3zscDllcXNRZErWZXrFtG8/zqFQqbG9tMb+wQL/fp16v47ouwMwI3ukMiOf7FAoFfbtisag32avv297exnEcGdcrhJASLCHEI+8HfuB5RFGWkTAMg/F4TLPZJE3TmZKq6YlI06ZHtSrqpEfXnccRYRASBAFHjx4lSRJKpRI///M/vzcHKfjIRz5CGIYUCoVsw/2kRA6yk9M0Tcnn8/okVF1dV6VCaZpSKBR0SZ3ruiwtLXHm7Fks0+TZz372vh3bteC1r30tYRjq4EP9PplmtmxQlcQlSUK1WtUT49I0pdFoEMcx4/FYLy08dOgQOzs7tFotCoXsosFg0KdSqeqJWEEQEMcx1WpVl2LNzc3piwvj8VhnYwA95tc0TQqFAsPRkJydk0yIEAecZECEEI+4Y8eO68WBjpOVXl2668GyLHq9HvV6/YpBiLo6rk6s1JXX8XicTeAJsw3SZ86codvtcuzYMc6fP793B3nAveMd72BhYUEv1FNX1ae3fpdKJVzXxTCyq/VbW1u69EedxKqt4b7vY1pZ4Lm4sDCz80Vc2Qtf+EL98e///u/T7/fxg2xylud5BEGAaZrk83m2tjZJ0939Kuvr6zrIME2T+fn5mfv2PI98Pk+lUtW/p2qBoQGTKVlFXNfTv+vNVpNypcx4lI3aVqVaKjgJggDbsnEch1OnTpEmKbffcfvePFlCiEcVyYAIIR5R//Jf/kue8IQncP78eaIool6vMxwO9cKyVqulr9QahqEn7KgMRxAENJtNxuNsDK+6/XQgokb1WpbF9vY2S0tLFIpF6rUav/ALv7Cfh39gfOQjHyFNUz2iNZfLTbJbCbmcoxvKU1JIs5KcTqdDqVTE83yKxeJkv0RCvd5gc2uT8WhEkqRUKhW+9Vu/dZ+P8Nr16le/Wo/PDcNQl0LmcjZxnAWGqmldZaUWFxdpNBqcOXOGW265BYD19XUWFhb0IAnf92k0GxgY2LaF72fZLrX3BbIs1nRpVrWWjcf2PV9nQwzD0JkZy7K46aab9vLpEUI8CkgGRAjxiArDkM2tTcIw1AFGs9nUteSqUTlN0SUcKrgAdImIypQMBgNKpRI7OztUKhUKxQILk9p0y7JoNpvMzc3R6/VYW1vbz0M/MN73vvdRrVb1+GM1sSx7DQ3deD5dcjUejycnsQGFQl73CkRRzPb2Nu44+3ej0bimN54/GrzqVbvjqH/t136NYrGI67oEQUiapoxGo8nY5Kouf+v3+zD5HVRldIoKKHZ2dsjn85RKJeJ4t8RK7Q+ZLsMrlUrk83mSOMF1Xd0A73ketm0ThtljieKI++67jzvuuOOqPy9CiEcPyYAIIR5R3/qt30qr1cK2bZrNJqZp0ul0ME2TJEmo1+sMBgOd8VAlWOrfkJVsqJNbFZioYEbVoJfLZarVKrZtUyqVyDk5fv4/SP/H1fbud7+bfD5PLpfTJ5VqdKvv+3qAgNotAbuNy5Zl4ft+tmhyPM6yXa0mpNlrvrq6im3bPOMZz9ifg7vOvf71rydJEv3cqy3rKnuhppepiWZzc3O6l6NQKHDx4kUWFhbo9Xo0Gg3q9TqGYbCzs8Pc3JweAqGGDKidIvl8HnvyvnByOV0apqgyMAlChDg4JAMihHjEmaZJtVplZ2eHRqOha8EBPRZ0PB5TrVb1SYvqE1B9HtlV1nhy8gpJkpWLlEqlbHdBrcZgMKDRaOCOxwwGMgFrL9i2Tb6Qx7Zs3ROgTiadfNbfkSYprutSq9V0VqpSqehSnsFgQJqmhGHI2oWLJGnK0tISgAQfV9GP/MiPzPz7N3/zN/WywTiJscyspHFubg7IdoikaUqr1dJZkV6vp78/iiL6/T5zc3O6rKrX6+mLDSqw8ScTsgDG47HeAQTZ+0llQD/32c/xNY/9mj14JoQQ+00CECHEIyo3ucIZRZFekqYCielm81KppAMOlQFRza7qa9PZD/VHTU7yfV+Xhpw6fZqVlZV9Od6D5M///M911kNlOtQEpSRJsEwre82s7Cq42icBzJxwDodDHMdhaWlJLyA8d+7czBI8cfW97GUvA+C3f/u38XwPclk2ot1p4+QcSqVsWlm73Z70kGSv+dLSki6zazQaupej1+tRrVYZjobUa9lYbMdxdMmVuugAWVBiWZaeapfP5+n2utxzzz085jGP2Z8nRAixZ6QESwjxiHruc5+rJ+8YhqF7PzCAyX9tXNfVOwjSNMUwzd0vku2MSNNUL0AD9NV2JY5jRqMRlUoF0zT53d/93b06xAPpfe97Hzknh2lk2S1VmqNOMAHdQxBOJpipyVhKPp9nOBzq7Jja8F2r1RgOhzzlKU/Z24MSM373d3+Xra0tPbZXlUU2m00sy6JYLGLbNp///Of5lm/5FkzT1EslVWA6Go8ol8r6d9zzXCqVLOiwLEvfZxiG+nPTX1MT8m6/XaZjCXE9kwBECPGI+7f/9t9imiaj0UhPO1InKK7r6vGspVJppvcjJSVNUl3SozIk02VZ05mQbrdLrVbjda973b4c50Hyvve9j3K5TC6X06+ZGqmrAhC13yObumSQppO9LXGk40s1HavVaunRvMVikW/8xm/cl+MSl/vd3/1dNjY2dMCRy+WwLEtPtNvc3OTOu+7ENExarRadTkePZIZsuITKdED2O99oNPS/1fCJ/OT9Y5jmTCkWZAHK4x73uL05YCHEnjO/9E2EEOLLMxgM9IK66Z4PVVal9kWoj+M4Jo5jkjjRJVtJkuidBZ1OR+8suPSqumw/v/pU47kKPCzL0q+tzn7AzL6WJMk+dhwH0zApFotEUUSr1dI7Jy5cuECtVtOTmMSjw0te8hJ+4Rd+gUajwWg00r/Lg8EA0zS56aabKBayscrTVGO76u0aDof6QoP6vU3ThFJpMi0rDGEq6FDN6GqRohDi+iUBiBDiETe9Ydk0TV0L7nkejuPgui6u6+qTkiv9iaIIy7J0L0mn09Gfd12XKAqpVCoYpvGlH5D4J3EcR+9xsW2bFAjCkFwup4PB7OTR0P8uFovEcUwYhnpDtnLx4kXanfZkQd4WT3/60/fjsMSX8KIXvYj/8B/+A+VymcFgQBRFeJ6H7/ucOHEC2C2lUjY3N4njGNd1KRaLOI7DaDQiCAL6vR5xnOgRvmrilmEY+r7VRQrDMLjnnnv2/JiFEHtDAhAhxCNObbx2XVdnLdQ2ZLUHAGA4HBJFkd75oU4+pj+nro6qvoPsqnoOqR7dG3/+53+uy3Agm2JkWxaFfF5frVbiONGf8zxPj95VOz/iOGZra4ulpSXKpbK+Yi4e3V784hfzkz/5k3qp4Xg8pl6v4zgO29vb9Ho9giDQk7IeeOCBmQlYqpTLzuWwLBPLMikUCkRRRJqm5HK5mXHA6vfeNE3uOSFBiBDXIwlAhBCPuL/5m78hjmOdwVCBRZqm2Lat93yoK+jqSrmaiDM9AUsFJoPBYCpDslu69fuv//19Ptrrm2maulE4n89TqVT0CN3pAFEFG2ma0m63AfTrWq1W9WsO0Om06Xa7JEnCs5/97P05MPFle8UrXgFkPR2e5zEYDOj3+1QqFYbDIePxmG63C2QLB6MoYmdnhyRJ8DwPYLIMMbu/wWBAt9tlNBoxGo0wTXPmfQJgGiYnT57c0+MUQlx9EoAIIa4KNXrX8zzd46GyG8BMwKGumqslg2onSBRFxEnW46GmZumA5ZJtzeKR96d/+qcEQYBlWeRyuawPh2xKkdp8njUO7/bxjEYjms2mPhEF9Amlaj4fDIYEQcAzn/nMfToy8ZX6yZ/8SV75ylfi+76eYtZut79oH8/Kygqe5zEej+n1ejMXIyqVCrVajUKhoPf+qGZ0QAe3SZJIOZYQ1xkJQIQQV8Xb3/52XZKhggZVchHF2VXOJE30HoggCPQUHHUiYlkWpMw0r6v7yzkOb3zjG/fzEK971WqVSqWiy6/iOMY0djMiquE8m7GcKZfLxHFMrVbTAehoPMa2LYIgoNvtsrCwsB+HIx5Br3zlK3XAGQQBnU6HbrfLcDhkfn6eKIrwfS97/YdDINsZ0ul02NjYACBJskb14XA4s+snCALdWzJTjiVBiBDXDQlAhBBXzTve8Q7iJN6dcjUJRJJ4UkoVJzOfLxaLFAoF8vk8vu9PRrbuXjFNJkGIYRh6EZq4Ot773vcCu3sabNvGnIxLVVemTdPUr830VWvTNPF9nyRNJ1OwDDzP13X/nU5HNp5fB17+8pdjWRa1Wo0kSfR43U6nw2g0Ioqy7GWz1aJcLusLEqovyLJsyuXyJVOysp4Q9T6bXl5qmiaf/exn9/5AhRCPOAlAhBBXlTvOpl2VSiU9inU66FB/DMPQteCj0Wg36EjS3d6QqTKuP/qjP9rvQ7uuWZals1C2bWOYWY/H5uYmuVyOra1N1tfXL2siNwyDsZtNvDLIpmEFQaCb1X3fZzQe7fXhiKvkx3/8x3n+859Pmqa4rovv+4RhyLlz54Cs1HJjY4MgCBgOh9RqNarVKq7rEgQBOzs7tNttBoOB7ikxDENPz1Olm4DOjN599937echCiEeALCIUQlx13/7t304ul5uZ86/6PNQG5EuvoKuvq4/VSUkK/NEf/uH+HtB17v3vfz+FQgHDMCiWStiTLIgqxYLd5YNRGBJdcpKYpil+4GOwO5ZXldYMRyOe/axn7fERib3w6le/Wpfs5fN5isUi5XJ5ZqGhaZoMBgPq9TqDwYBWq0W326XZbGKaBoaRBarZfw5m3z+Q/ffB932e+MQn7tNRCiEeCRKACCH2zNOe9jRarRbD4VBvRp9ebqd0Oh0deAAzQcgf//Ef7/0DP2D+/P1/TiGflcKpQEMthnMcR9fnq6lFSjIZGJAkKRgGYRBQLpcZDrOm87HrYpkmT33qU/f4iMRe+dVf/VVs26ZUKlEqlTAMg8XFxez31zRwcg6+71OtVhmPxxiGQblc1nti1DZ19d8H3/dxHEf3iCm1Wo2bb7557w9QCPGIkABECLGnnvrUp+qAIiUr05k+sXAch2q1Sq/Xm2Q8UizT4m1ve9u+PeaD5GMf+1jW5D+pw1dXrXPOpBF9UtevApIoimZODvu9HsVSiTRN8Xyf/GQRnRqzKpOvrn+/9Vu/RRRH1Ko1vd+jVCqRL+Rxco5eTug4Dvl8HsuyME2TXq9Ho9HQ2U7I/tswHA51IDz934rHP/7x+3J8Qoh/OglAhBD75ru/+7uzcZ5Jgm1PMiBpVuqjAo8/+ZM/2d8HecB84AMf0JvPC4WC3gNiGAZ2LodpGgR+1kw83SCsenoUz/P05LJ6vc7q6qrs/DhAfuu3fosoinAchziOufnmm/XWcxVEjMdj5ufnMU0T13UplUp6aSVAq9UCdqetTU/Vgyz4fdKTnrTHRyaEeCRIACKEEALIRidXKhUcx6FUKgFZmZXKgpiWhTk5EVSlMirQUMGI2u/iui6tVgvTNNnc3CQIApl8dcD8yZ/8CZ7nEoYRxWIRx3H0+0sFH57nEYYhjUZDDzyYZtkWvufrUj/HcfQkvCRJCIKAJz/5yftxeEKIfwKZgiWEEAJAZz7UyF1Aj0O1LAsD9FVo3/fxfV+P4J3u11GLC9vtNr1eD0CCjwPoX//rf81Ou00YhkRRxPb2NpBlMIrFog4+1Lb0MMzeW2EY4nnZDpHNjU0KhQKVSkWP8lXjeg3DYH5hfj8PUQjxFZIARAghBACFQgHbtnV/x3T5VRiGmKZJPp/X2Y98Po9hGHpMchzHhGFIGIYUCgWKxaL+nDiYXv6TL9fBRZqmeuTu1tYWAKVSiRtvvFHvEAnDENu2CYJAfy5NU73o0LIsLNvCMFXPUZ/7H7h/fw5OCPEVkwBECCEE73znOzGMbNcHBiRpokcnG4aB4zh6BCqk5PMOruvieR6GaZDL5XQPiMqeFAoFPM/j6U9/+j4emdhvnufR62X7PdbW1hiNRjSbzZlMB8CFCxd1tqRarQIwPz9PkiQ0m02azSaFQh4nlyNNdpdh9nv9fTs2IcRXRgIQIYQQMyVUF85fwDKzzEcURbr+3vM9kjQBss3mxWI2qrff65Okid7xEoYh/UGfwWAw06guDqZXvOIVunejVqvR7Xa5//779cJKyILVlZWVmffb/Pw8Ozs77OzssLm5CUC32wMM3XeU7Q0yZDmhENcYCUCEEEJgGFkWI4oijhw5QgoEYYjjOJPdHwGmYRKFYdYTYlt4ns9wOMSyLOIo1uUzxWKRcqlMFEU6GyIOtpe+9KUkSUKhUCAMQ2q1GsPBUI9xDoKsRMvzPDY3N4njmCRNsOzd/UC7QUhXl2BhQAqYlrzPhLiWyBQsIYQ44N71rndRqVQoFAp0u10WFhayvR+T/3dQPSFZA3qqG9ELxSJhEGJZlr5yHUURSZqSxDG9Xk9G74oZv/M7v0Mul8PzPF2GdWjlEIV8AcM06fd6HD58mNF4RLlU1lOxVCCr/k7TlNFohJ2zSZNUT8WSDelCXBvkkoEQQhxwhpGVtKytrdFsNjFNkziKs4ZfyyKOY12iZds5bDtHqVQmCqNJg3GoG40dxyFn24zH45nt9kIA/OiP/ihpmlIulej1egwGA9yxq4Pa+fl5giCgXCrrz43HY4bDITs7O7p5fdDvZ9vSU3Q2RLJtQlw75LdVCCEOOLXno9Vq6YDDtm3iONbZDdUorJrS1TI4Z1K2NRgMMAwT389u12q1ZPSuuKIXvvCFRHFMEARcvHgRyN5Xoe/rUqwgCNjZ2SGKIr1JPUkS/b5L0pRut5uVb/kBg8GAwWDA/++DH9zPQxNCPEwSgAghxAH29re/XZ/Uqf0fpmkyGAwYDoeMRiOiKCKfz+tshwpCVIO5aZqUSiXy+Tyu69HpdNjY2NjPwxKPci984Qv11nPP83Bdl81JdkPtBzl06BDnzq3q92GpVKRUKvLAAw/gOA75SX8SMJnOBm9/xzv4lV/5lf05KCHEwyYBiBBCHGDFYhHLsnRQ4XkelmVRLpcpFov66vNwOMQ0Tb10UG2jDi7Z8VGr1SgUClJ+Jb6kn/mZn2FpaYkoiuj3+8zNzeH7PhcuXABgOByysDB/WWnV4uICa2trvOQlP8r29jaO4/DTP/3TABw/fpw0Tfkv/+W/8IpXvGLPj0kI8fBIACKEEAfUBz/4QV1qtbGxwWA4pFgqkqQJhmliTb6mMiC+5+krzkmS6PIs0zSJ4xjXdXXTsJRfiYfj5S9/Oc973vN4y1vewvr6Ovfccw+HDx++7Hammnp1BapX5KGHHtK7bHK5HMvLy/y3//bfrtpjF0J85ez9fgBCCCH2R7/fx540jB86dIhCocBwMNRL4ALfp1wuATAaZTsbhoMBhWJx8rlsU3UURXoDepqm9PuyGE58+d7whjdw//0PEEYhaWrwa7/63zl27Njkq+YXDUJ+9Ed/lKc97WmcPn2aarWqywPVaOl3vetd3HPPPfzMz/zM3h2MEOIfJWN4hRDigPrgBz/IcDikUqlQLpcJw1D3ciie51Eql4kmpVaWZZEkCYPBgFKpNKnXDyiVyiRJguu6jEYj2X4uvixPf/rTGY/HjEZDzq2e5xlPfzrvfs/7APhX3/UcABqNBmfOnOFJT3oSACdOnACyIQoAy8vLADz2sY/l9OnT2LaNbduUy2XW19d1WeCrXvWqvTw0IcQVSAAihBAH1J/+6Z9mY3NzOer1uq61t21bn6ypRnP1t+d5FAoFAN0XEkURaZpgmlnpy5Of/OR9OBpxLfue7/ketra2sHM2rWYLwzB43OMeB8CZM2ewLItarUYcxwB6LHSlUsG0TKIwws7Z1Gt1wjAkn89TLpcZjoZ6n02apnz84x/nrrvu4ud+7uf24zCFEBPSAyKEEAfQm970Jh182LatR5+apollWRimiWGa+iqyalDP5XJ64pAajVoqlSgWs1ItVY8vxJcjiiIAvuHrv4E0TXnc4x7HPfd8gV6vp4Nhy7JwHGfyfssGJABYk8DXIAtKVAZvPB5TmrwvlSc/+clcuHCBX/zFX9yrQxNCXIEEIEIIcQAtLy3pq8j5fJ44jnEmY03TySbz8WjEcDhkOBxi2zbFYpEwDLBtG9d18TwXx3HoD/rEcUwcx7Tb7X0+MnEtStOUVqvFPffcoz935MhR+v0+N910kw42PM/j5MmT7OzscOahh/QABBWQqCyeem+7rquntqkg+/bbb8f3fX72Z3927w9UCAFIACKEEAdSfzDQTeNRFOE4DkmS6LG6vu9TLpepVCpUKhV9hZrJVeYkScjnC/i+T6VcASAMQ57znOfsw9GIa9kv/MIv6MDh1ltvxck7bG1tUS6XJ7tAzmFaJkEYYFkWN998E4PJoIMTJ05QrVb527/928tGP6ugQzWkAxQKBUzTnATdEUKI/SE9IEIIcQB94AMfAMC0TMrlMgA5OzfTgJ5OFhR6nkexlF2BTia9IKNhNgErDMNsc3rOJvADvu3bvm3PjkFcH17wghfQ6XTI5/OYVhaIqFG65VIZx3Ho9XoUCgWazab+Ptu2+fznPw/sZjwAvumbvgnDMHS/yDS1dNP3faI44sxDZ3jNa15zNQ9PCHEFkgERQogD5q1vfStBENButwmDkG6nS87OkSSJPmlzXRfP9/F8HwwD1/UA8L2s/0OVvuixp0nKeDzet2MS16YXvOAFAMzNzTG/sMD83DzLi0vUa3W9U6bdbtNqtbBtG9/32d7exvM8TNPkq7/6q/nqr/5qvuqrvgqAo0eP8OCDDxDHMWmakKaJ/lm9Xg/DMHBdl/6gj2mYDIaDvT9oIYQEIEIIcdBko3SzQKNQKNBqtRgMsj6PXM7GNLOsiCpfKRQKkKa446znI01SkiShWq3Sbrd1duTZz372fh6WuMa87GUvA+Drv+7rqFarzM21Zr5eq9bxgyzgTZIEx3EYDAZUKlnJ32AwYDQaUSwWSZKEr/3ar+Xw4SMcPnyE1dVVDMMEDP0+LpezUdGGYVDIZ5PcbrrhRl74whfu3UELIQAJQIQQ4sDJ5x3iOGF+fp58Ps947FKplCfjdLOG4OnGXtd1yRcKFIpFoihiPB5TKBQYj8fkcjmGg6HekC7Ew7Wzs0OapvztJz7BudVz7OxkAwxWz5+nUCgQxxH1Wh2A7e3tme9VywbTNGVtbQ3Ipl6pYQgrKyvEcYxhGkRRxPnz50nTFNd19b6aNE2xczmWFhf39sCFEBKACCHEQfL6178eMKhWqziOQxRFVCplgiDQjeiGYeixu57nUSwW8bysBEvdRgUhxVKRcrl0xXp7Ib6YF73oRbppfLrvSPVyqPdTkiS0Wi39bztnz9xPFEXUajW2trcxTVMHFmocdBzF+j6mR0SXy2WGwyEAnu/zkpe85CodqRDiSiQAEUKIA6RcLmf9G0lMGIY4jkMQBKytrREEAYZhMBqNdBlWPp/XSwjVlnN14tjr9QAIglB/LMTDUavVAGg0m6RpyvLSMqqNPCXLbJiGwYULFwBYXFz8okHu1vY2S4uLDAcDDMPQe2r+6q/+ir/6q7/ib//2b/V7eJphGHoXjirrEkLsDQlAhBDiACkUChiGQXunrWvnbdvm8OHDM2VUo9EoK2GZnNCpXQqQXZ1WI3pHwxFRFPGMZzxjvw5JXKNGoyGnTp4kikLSNGF1dXXm69Ek4EjTVL/3Ou3OTDCRy+UAGA4GVGs1tra22Nra4vz58zzpSV/LwsICCwsLM+N4kyTR2Y9+v08uZ8sABSH2mAQgQghxgOTzeWzbZnl5GVAN6ckkE5IFGoVCgUKhgD3JdBQKheyKtGmSJEkWeIxGugdEiC+X2iujshpRFHPo0CF839dlU8p0OdbCwgIbGxuTKVeTzNwkeNja2gKy8by2bRNFMYcPrwBw7tw53duUm0zXSpKEYrFIEEbZoAUhxJ6RAEQIIQ6I3//93yeOY4IgYDgcEgQBrutSqVRwHGcyNShr5h2Px/QnJS3ueEypVCJNU0qlEqPRiFKppLdTh5PlhUI8XO12m7m5eQA9+ODChQukacqhQ4c4f/78TBCSJIn+d6vVIk0Ttra2dHBiWiZjd6xH9w4GA86ePcu5c6scPnwYy7K4cOECSZrS6Xaz97LanD6VYRFC7A0JQIQQ4oDI5XK61MRxHHzfZ25ujna7TZIkeJ5Hp9OhVCpRKpUoFAr0ej2KpZIuWfF9n1KpRH+Q7U+IokgCEPFlS9OUKIpmAovprMji4iJJkhCGod5Pc3Ht4lQZ4FRwks4GD4PBgPF4TKVaoVKtkKYpjuNMRkgn+uer9/B4PMZxHH7oh37oqh+3ECIjAYgQQhwQhmFgmia+7xOGAbZt0263yeVypGlKtVrVuz3a7WwkahzHdDodwjAkTVM9sciyLPr9PsVikWc961n7eVjiGqSCDfWxKqf6YgHJdP+RUq/X9b/DMNK3H4/HLC4tYhompmHS6XbIFwrkCwXGrjtTNjgajQBoNBqSBRFiD0kAIoQQB4Rt26RpQqGQBRELCwtYlsVwOMSyLMIwJAxDyuUykJVWNZtNms0mjUaDMAz1mNRCPk+hUJDsh/iKRVGoe5GiKCKOdzMiqsdjOihIk1T3caivp2lKHO32g6j3p2nsnt6Yhok7Hul/q5HTpWKR4XBIsVRkdXVV+pmE2EMSgAghxAHw2te+ljRNmZubJ4piHMdhfX2NOI5ZWlqi0+ngutmmc8uyqNVq5HK5mRPAS68Sq3p7Ib5cWbAb6RI+FUCojIZaLjg/P39ZkKsCD8gyJtPvS1VuBWCahv7jOHk67Taddlsv0xyNx1kpVq8v2Q8h9pgEIEIIcQAsLy9jmibtdptSqTj53CGazSaQlbOkaapr7iG7mtzpdADY3tkmSRJM05ycAF5eEiPEl6PT6ejJVdmSQENnPZI0mSm9CoNA/1t9z3QmJEkSkjj5R96Pu6N7B4MBpmkyHA6J45gojvA8j9e97nVX83CFEFMkABFCiAOg1+uRpCm9fp8oirHtHKurq/T7fQaDgZ5wlaYpuVxOLxtstVrs7OzQarZod9r6/pIkZTwe883f/M37dETiWva2t72NarU6mWiVZTSazeZM0KHKsZIk0TtBpj833S8SxzG1Wm3yudkxvmEYEYYR1cnyQ3X76X0iUkooxN6SAEQIIQ6AKIr0/gPf93FdV2c9kiTRI3kBwjBgZ2eHnZ2dmftoNVtAdhIom8/FP1UcxyRpQpomMyVYURSRJulMcJEkCc1mUwcKaZrq92ecxDNlWbVaHQxYXT1PGEaX/dx2u62nwfm+T71W5//8n/9z1Y9XCLFLAhAhhDgAnLxDPp/nMY+5i1KpBKBP2Or1Oo7jUK1WJ0vccrRaLZ39AHQp1vT3Sd28+KfwPA/S3ZG605kP9fd0liNJsmClWq1OPp4EHSkzwUocx/ief9nPi8JQT3dLkoRutwvs9psIIfaOBCBCCHEAFAvF7ISP7CTt2LFjNBoNbNum0+lMMiExSRITxxHdbhfTNJmfn2dubo40TTEMQ5/0BUFAHF1+dVmIh+v973//TDCrMh1xHOsRuzoISRPa7TZxkt1eZULU7ac/7vf7QNbAPi3rM4Fw6n27trbGW97ylqt7oEKIy0gAIoQQ17l3vOMdeJ6HYRicO3uO0WiUTf/p9/F9n0ajQb/fx7JsLCvLgDSbTZ39OH/+PPPz8zM18wDnL1zYj8MR15Fg0lyugmC1E0QtIdQ9IWk2hQ12Aw2VCel2uzpQMQyDcrlMHMfs7OwQRZH+Y1mWDj6KxSKdTof3v//9+3j0QhxcEoAIIcR1bmNzA8Mw9KK2Wr3G2voatVqNRqNBEAQUi0WCIKDb7RKGgS5VAThy5MhlZTGVSmVfjkVcX975znfqDIYKcPv9vi6xiiZT2VQQkV4ScERRRLFYJEkSvTCz1+vpxZqGYeg/ALVqlfFoxN///d9J8CHEPpIARAghrnOBn5WeHD5ymFo9mwTk5By2t7dxPRcn72R/HIdKpUIu52Q9IHO7PSDq7yRJ8H0fwzB4wQtesD8HJK4rcRxTKBR05kMFFFEUkUxGQ+ulg3GsF2Wqfg/IMinVahWASqVCkiSXDVEAKJfLhGHIxz72l3t3gEKIy0gAIoQQB8Dm5iYAURhx6NAKc/Pz5HI54iim2+kSTaYF2bZNGIa66bw1l02+UvX06vPD4XCvD0Fcp971rncBzOz02J2KFelgZDoQUbeb3oiumsqTJCEFms0mvu/P/BmNRnz4wx/epyMVQigSgAghxHXuJ3/yJwHodXv81m//dvbJNMX3fcrlMsViEcMwdC2+bds0Gg3aOzucO3uOs2fPApBMLXl75jOfuefHIa5fKpCIokiXV41GI5JkdzyvGhetPr50e3qpVCIIAsIgIL3ChLYoinjjG9+4dwclhPiiJAARQogD4Cd+4id48MEHecXLXw7A6uoqrVaLIAiwJ/tBhsMhY3fMhYtZc/lgMOTY8WNAti8BslIXWT4oHmnvfe97cfLOTKlVpZr1GalgQ+0NUaVXcRzrgQrR1GSrlGzEr9oVov7IskEhHj2MRF1eEEIIcV37l097Gj/3//6/dDodut0Ods7hv/3X/zpzm//8S/8ZgEq5Qr1e59y5c9RqNUqlEpubm5L5EFfVM5/5TJI0wSBrGjdNE8/zKJVKGIZBEPjk8wU9EjqXy2FaJmmSYtt2Ni4aA8M0dFZPkXG7Qjx6SAZECCGuY89//vP5oR/6IZ7+jGdgmia/9Mu//LC+bzga8qlPfUr/+8/+7M8k+BBX3bvf/W7iaHevB2RBSJzEuK5LLufsjuYFXM8jjmLdI6KmZcHuVC3TNCX4EOJRRgIQIYS4Tj3vec+jWq2yvb3N1/1f/xc33nADN990E2984xtpNJr/6PdeOH+B5eVlarUav/qrv8q5c+f26FGLg+79738/73nPe7DtHFEUYZompNmAhHgSeOhm9Ukjuiq5Go1HhFHIeDym3+/jeR7j8Xifj0gIcSkpwRJCiOvQS1/6UoBL+jVSTpy4N/tocnX4jjvv1GVYX/VVX8Xtd9zOZ/7hH6Zuk5XCqL0f0sQr9tJznvMcvcE8TVNM0yRJEnK5HEmS4DiO3pSexNl+mtFohOM4ALz97W/fz4cvhPgiJAARQojrzM/+7M/qj7e3twG48cYbgd1AYjAYYNs2URTpOnm1fVqVt6yvrzMYDAAoFgsYhqk3Vr/73e/es+MR4ulPf/rM1KtcziaZ9H1gGJiGQZImmMZuYcc73/nOfXq0QogvRQIQIYS4zrzoRS/i0KFDrK2tcfz4cXK5HLBbU2+YBkmcYFkWURRhWZb+mu/75JycHrnr+T6r51Z55jOfyTvf+U6iKOL2229nY2OD17zmNftzgOLAesYzno5t53Bdl2KxSBRF+L5PsVQCYDQc8qEPfWifH6UQ4kuRAEQIIa4jKvuRy+U4c+YMt99+O46TNe4aRlZOlSRJVlc/RV1dTqb2J6hxvMtLy5w6dUpvmg6CgEOHDmHbNj//8z9/1Y9JCCHE9UWa0IUQ4jqi9ihcvHiRu+66C8uydFlVHMdYlqXr5y3L0tkP9bFpmpimiWEYHDl8BCPNSl5uvvlmHvOYuzh06BDNVou1tTVWV1d55Stfud+HLIQQ4hojAYgQQlwnfuZnfob19XUMw6BSqbC+vq4zHY7jkM/nJ7sUAtI0JQgCDNPAyTtEUYRhmti5HNvb2+RyOXZ2digUi3iuy3A45KGHztBqNalVq9xwww2YpsnW1tY+H7UQQohrjb3fD0AIIcQjw7IsDh8+DGQlWIVCIfvYtmcmCQH6a6S7W87NSYnWysoKvV6PcrnMzs4Oy4eWARgOsiAkCAN8b/I9plzHEkII8eWR/+cQQojrxNkzZ+i02wRBgJ3LUS6XGY/HjMZjTNPEcRw2NzfZ3NzUexPUn3w+rz8GqNfrABw7dozADwj8QP+cMAiBrDRLTdcSQgghHi5pQhdCiOvADzzveSwsLgJQKBZxcjny+TyQZUbG4zHlcpnRaARk43iDINATsjzPo1gq6vuzTAtAl1j1+33m5uaI41hnT9I05cEHH8R1Xf7wD/9wbw5UCCHENU9KsIQQ4jpQbzQIgoBut8stt9xCGIaUiiWGoyEA1WpFBx+lUonBYEClUsH3ffL5PPlCnp3tnZn7bLaaNJoN1i6ukcvliOKIbqfLoUOHWF1dJY5jjh8/TqfT2fPjFUIIce2SEiwhhLgOdHs98vk8S0tLhGGI4zi4ngtk/R6GYVKpVCiXy7pJfTgc4jgOYRgyHAxpNps0m019n6Zh0O329I4FyMquzp8/r0u1zpw5o5cdCiGEEA+HZECEEOI6UK1UuHDhArfeeiu2bVOaBA1hmPVrRFGEbdsYhkGSJPQHfaqVKmmaYlmW3pC+ubkJZLs+8vk8Ti5HEIYUSyUsK/u/jDRNOXLkCGmaEsexTMISQgjxZZEMiBBCXOP+zb/5NywvL3PnnXfS6/V08LG9va0zHO1OG9fNMiKmaVKvNzAti+FwSJIkdLtd4jhmbm6OxcVFHMfRvR6jYVbGtT0JNFZWVvTPPnfuHMPJ14UQQoiHQwIQIYS4xuXzeTzfw/M9IMtQ9Hs9FhYW6Ha7FItF5ufm8X2fra0tev0+kAIp9XqdwWBAPp8nCAJOnz5NHMeYpsnm1ib9QZ9ms4lxyc+Mopg4jidLDOX/SoQQQjx8UoIlhBDXuJXDK5xfPc/Ro0c5cuQI3W6XZrOpm8N7vR6GAbVaNlp3a2sLz3XJF/IEfoDjOBSL2QSs48ePc/r0aQ4fPkyePP1+n/6gT7FQ1AHH6uoqSRKTko3pPXPmzD4duRBCiGuRXLYSQohr3Pr6OnbOJkliHnzwQcrlMhsbG0RRRL1eJ0kS4jghTVO63S6Li4sUCgXqtXrWrO66jEYjRqMRSZJw9OhRPcK3VqsRRzGdToflpSUgy7AYhkkcxaRpypvf/Ob9PHwhhBDXGMmACCHENW5psv+j2+1x9OhRABqNBoZh6CxIEASkaUqtViOKImq1Gv1+H8MwWFpaotfrceHCBSDLghiGoXtA+v0+AOsbG/pnHjp0CMMwOHv27J4dpxBCiOuDZECEEOIa9l3f9V0ABEHIzs4OQRCwtrbG+vo6GxsbFItFisUiSZIQhtlt0jQlDEMKhQKFQoFur0tKysrhFe644w7Onj2LYcDq6iqrq6tEcUwURSRJwtLSEocOHeL8+fNEccThw4f3+RkQQghxrZEARAghrnGe5xPHCXfddReGaRLHMYuLi0RRRJqmrK+v02q1SNMU13WJooiLFy+Spimbm5sUC0WKhd0t6K1Wi+3tHUqlEoZhEAbB5CvZ7o8LFy6QJAlpkuqsiRBCCPFwSQAihBDXsIWFBQA++9nPYJgmG+vrLC8vs7GxQZqmemFgkiRsbm4yPz/P5uYmaZqytbVFq9UkDEPOnTvH1uYWDzzwAEEQUK1WZ37O4uKCvp8kSajX6wyHQ70/RAghhHi4pAdECCGucZ/5zGdYnAQi1WqVwWCgy6XUYsEkSZifn8cwDNI0ZXFxkY2NDTY2NgnDkPn5eQDa7WxfyPnz5wFwHIdarcbGxgbz8wszPzdlN8ARQgghHi4JQIQQ4hrW7/d18DEejRgOh5RKJUqlEpubm4zHYwqFAhcvXgSyJYStVgvIplktLS2xtrZGu90GsvIrw9jd+pFN0wpJkpSNjQ2q1Sr1ek1P1ZIARAghxJdLAhAhhLgOzC8s6OBDBQrj8ZhqtaobzoMgoNVqEccx6+vrLC0tgQFhGAKQy+Vot9szAQhk2RMwqNVqpGlKkmSBR0qKbcv/jQghhPjySA+IEEJcw1zXJYwifN/X/1Z83yeKY/3vXC7HxmSUbrlcpt/vc+7sOer1GvV6jVIpa0RvtVr6jwpG5ubmMIwsGEnTlOFwSCFf4Dd/8zf36lCFEEJcJyQAEUKIa5gajwtAmpKS7fxQDLJN6NNGo5H+uF6vzXytVCpd9jOSJBvbmyTp5MeklEolxuPxI3MQQgghDhQJQIQQ4hrW7Xb1VKuNScM5ZJkK13XxPE8HKdvb2wAMh8OZTMm0M2fOzPz70hIrHexc8rEQQgjxcEkAIoQQ17CdnR0sy+Lee+9lOBwCEE+VXV1KbTcH8DwP39/NlqiP7733Xv2353l69G4cx5MekOzfl/aKCCGEEA+HBCBCCHENMwyDnZ0dPW53bTLtCnZ3hFSrVfr9Pt1uF0CP6d3a2iJNU3w/0MGH53nAbvBRLpf11CwlTVMKhQK/93u/d7UPTwghxHVIxpcIIcQ17I477tAZi/vvv58oirjzzjv1WF2AG264QX/c6XSAbIdHo9HA8z0K+cLMfaogRGU50nR35K4auyv9H0IIIb5SEoAIIcQ1LI5jHMfB930Mw6DZbHLq1CkgCyD6/T53f+pT2I7DM57+dLa2tsjlcpw7e45jx4/prIgy3fMRBAFBEGBZRd3vMR6Pyefzsv9DCCHEV8xI1FgTIYQQ16Rf/uVf5vWvfz2QBR2maergI0kSDDOrto3CEMdx2NnZAeBpT3sag8EAyCZlpWnK8vKyvt8bb7yROI4pl8tEUTTT/5GmKa973ev2+EiFEEJcD6QHRAghrnE33nijLrOyLBPDyP5OkgTLsjANgziKLvu+973vfbiuy/b2dhZUkNLpdPSfOI51wAFkY34nCwgl+BBCCPGVkgBECCGucc997nMZDofYto2dywEG3W6Per1OpVKhXq9hmiblcllnP6aVy2VM08TAmOn1UMGH/pNOsh+SOBdCCPFPID0gQghxHfi6r/86Lp6/wIULF4niiHq9DkCpXKLb6TI3N8/dd9992fdVq1UGgwHj8Zhjx46xublJPp/nlltuIUkSxuMxxWK2IV0FHqrcSwghhPhKSAAihBDXgd/49d/QH3/rt34rlmUBcP78eUql0hWDD4CPfOQjfOP//Y265Mr1XO68804dfARBQJqm2TQsUn2/QgghxFdKmtCFEELwDd/wDayvr2MYBnfddZf+fBiGep+I4zi89rWv3a+HKIQQ4johGRAhhBDEcczS8hKkWdChLCwsEIYhpmni+/4+PkIhhBDXC8mACCGE0J75zGcyHA6J45gjR44AYJomb37zm/f5kQkhhLheSAAihBBCCCGE2DMyhlcIIYQQQgixZyQAEUIIIYQQQuwZCUCEEEIIIYQQe0YCECGEEEIIIcSekQBECCGEEEIIsWckABFCCCGEEELsGQlAhBBCCCGEEHtGAhAhhBBCCCHEnpEARAghhBBCCLFnJAARQgghhBBC7BkJQIQQQgghhBB7RgIQIYQQQgghxJ6RAEQIIYQQQgixZyQAEUIIIYQQQuwZCUCEEEIIIYQQe0YCECGEEEIIIcSekQBECCGEEEIIsWckABFCCCGEEELsGQlAhBBCCCGEEHtGAhAhhBBCCCHEnpEARAghhBBCCLFnJAARQgghhBBC7BkJQIQQQgghhBB7RgIQIYQQQgghxJ6RAEQIIYQQQgixZyQAEUIIIYQQQuwZCUCEEEIIIYQQe0YCECGEEEIIIcSekQBECCGEEEIIsWckABFCCCGEEELsGQlAhBBCCCGEEHtGAhAhhBBCCCHEnpEARAghhBBCCLFnJAARQgghhBBC7BkJQIQQQgghhBB7RgIQIYQQQgghxJ6RAEQIIYQQQgixZyQAEUIIIYQQQuwZCUCEEEIIIYQQe0YCECGEEEIIIcSekQBECCGEEEIIsWckABFCCCGEEELsGQlAhBBCCCGEEHtGAhAhhBBCCCHEnpEARAghhBBCCLFnJAARQgghhBBC7BkJQIQQQgghhBB7RgIQIYQQQgghxJ6RAEQIIYQQQgixZyQAEUIIIYQQQuwZCUCEEEIIIYQQe0YCECGEEEIIIcSekQBECCGEEEIIsWckABFCCCGEEELsGQlAhBBCCCGEEHtGAhAhhBBCCCHEnpEARAghhBBCCLFnJAARQgghhBBC7BkJQIQQQgghhBB7RgIQIYQQQgghxJ6RAEQIIYQQQgixZyQAEUIIIYQQQuwZCUCEEEIIIYQQe0YCECGEEEIIIcSekQBECCGEEEIIsWckABFCCCGEEELsGQlAhBBCCCGEEHtGAhAhhBBCCCHEnpEARAghhBBCCLFnJAARQgghhBBC7Jn/P2nwmSY4RyjPAAAAAElFTkSuQmCC;" vertex="1" parent="1">
          <mxGeometry x="30" y="280" width="180" height="180" as="geometry" />
        </mxCell>
      </root>
    </mxGraphModel>
  </diagram>
</mxfile>
